<?xml version="1.0" encoding="UTF-8" standalone="no"?>
<!-- Created with Inkscape (http://www.inkscape.org/) -->

<svg
   xmlns:dc="http://purl.org/dc/elements/1.1/"
   xmlns:cc="http://creativecommons.org/ns#"
   xmlns:rdf="http://www.w3.org/1999/02/22-rdf-syntax-ns#"
   xmlns:svg="http://www.w3.org/2000/svg"
   xmlns="http://www.w3.org/2000/svg"
   xmlns:sodipodi="http://sodipodi.sourceforge.net/DTD/sodipodi-0.dtd"
   xmlns:inkscape="http://www.inkscape.org/namespaces/inkscape"
   width="49.612511mm"
   height="38.014778mm"
   viewBox="0 0 49.612511 38.014778"
   version="1.1"
   id="svg4555"
   inkscape:version="0.92.3 (2405546, 2018-03-11)"
   sodipodi:docname="guix-pull1.svg">
  <defs
     id="defs4549" />
  <sodipodi:namedview
     id="base"
     pagecolor="#ffffff"
     bordercolor="#666666"
     borderopacity="1.0"
     inkscape:pageopacity="1"
     inkscape:pageshadow="2"
     inkscape:zoom="3.7810944"
     inkscape:cx="82.648029"
     inkscape:cy="71.838953"
     inkscape:document-units="mm"
     inkscape:current-layer="layer1"
     showgrid="false"
     fit-margin-top="0"
     fit-margin-left="0"
     fit-margin-right="0"
     fit-margin-bottom="0"
     inkscape:window-width="1198"
     inkscape:window-height="1918"
     inkscape:window-x="0"
     inkscape:window-y="0"
     inkscape:window-maximized="0" />
  <metadata
     id="metadata4552">
    <rdf:RDF>
      <cc:Work
         rdf:about="">
        <dc:format>image/svg+xml</dc:format>
        <dc:type
           rdf:resource="http://purl.org/dc/dcmitype/StillImage" />
        <dc:title></dc:title>
      </cc:Work>
    </rdf:RDF>
  </metadata>
  <g
     inkscape:label="Tavolo 1"
     inkscape:groupmode="layer"
     id="layer1"
     transform="translate(-68.17583,-113.9511)">
    <path
       style="fill:#000080;fill-opacity:1;stroke-width:0.08466666"
       d="m 96.508898,151.90988 c -0.03105,-0.031 -0.05645,-0.12769 -0.05645,-0.21478 0,-0.11334 0.174463,-0.2411 0.613833,-0.44954 0.529998,-0.25143 0.579144,-0.29238 0.359833,-0.29978 -0.300971,-0.0102 -0.946832,-0.23746 -1.206553,-0.42462 -0.299672,-0.21594 -0.766442,-1.0739 -1.031028,-1.89509 -0.353012,-1.09564 -0.85575,-2.21942 -1.29423,-2.89303 -0.500015,-0.76814 -1.369062,-1.65217 -1.847341,-1.8792 -0.426593,-0.20249 -1.209766,-0.33345 -1.857844,-0.31064 -0.360394,0.0127 -0.425336,-0.009 -0.425336,-0.13917 0,-0.12723 -0.04584,-0.14497 -0.262571,-0.10162 -0.272378,0.0545 -0.410859,-0.051 -0.413467,-0.31498 -9.26e-4,-0.0935 0.150621,-0.16157 0.527871,-0.23691 1.168861,-0.23344 1.979156,-0.64999 2.676876,-1.37611 0.457896,-0.47653 1.073243,-1.73643 1.19502,-2.44675 0.08854,-0.51644 0.07797,-0.60508 -0.17163,-1.43934 -0.322887,-1.07921 -0.308912,-1.47337 0.08405,-2.37066 0.321784,-0.73478 0.693163,-1.25762 1.084022,-1.52613 0.151341,-0.10397 0.275166,-0.21328 0.275166,-0.24291 0,-0.0296 -0.200025,-0.1234 -0.4445,-0.20838 -0.244475,-0.085 -0.8255,-0.34125 -1.291166,-0.56952 -0.774553,-0.37969 -0.881453,-0.46228 -1.255077,-0.96963 -0.542788,-0.73707 -0.762179,-1.25846 -0.978493,-2.32543 -0.351662,-1.73458 -0.432018,-2.00426 -0.977776,-3.28156 -0.62349,-1.45922 -1.15468,-2.30357 -1.879357,-2.98732 -0.712595,-0.67236 -1.053123,-0.91139 -1.52283,-1.06893 -0.227591,-0.0763 -0.488954,-0.19011 -0.580807,-0.25283 -0.09185,-0.0627 -0.235245,-0.11403 -0.318649,-0.11403 -0.0834,0 -0.217801,-0.034 -0.298661,-0.0756 -0.08086,-0.0416 -0.251793,-0.11693 -0.379851,-0.16751 -0.305989,-0.12086 -0.325242,-0.43426 -0.02668,-0.43426 0.113385,0 0.305644,0.0378 0.427242,0.0841 0.168482,0.0641 0.270365,0.0518 0.428191,-0.0516 0.122897,-0.0805 0.267614,-0.11086 0.355925,-0.0746 0.244641,0.1004 1.10076,0.11695 2.190141,0.0423 1.15312,-0.079 2.386992,-0.41218 3.123346,-0.84347 0.232833,-0.13637 0.747183,-0.40948 1.143,-0.60692 0.638754,-0.31862 0.852934,-0.49399 1.904999,-1.55987 0.98501,-0.99794 1.297446,-1.26001 1.8487,-1.55072 0.466976,-0.24625 0.767765,-0.35016 1.016,-0.35098 0.794337,-0.003 0.800491,-0.11314 0.01397,-0.2509 -0.727925,-0.12749 -0.763194,-0.14377 -0.788787,-0.36403 -0.03317,-0.28551 0.02064,-0.28837 1.089088,-0.058 1.091607,0.23536 1.096711,0.23744 1.096635,0.44697 -9e-5,0.2413 -1.273533,1.49713 -1.518129,1.49713 -0.246089,0 -0.222348,-0.23779 0.05237,-0.52453 l 0.227504,-0.23747 h -0.277249 c -0.544581,0 -1.330431,0.54636 -2.435169,1.69304 -1.000596,1.03859 -1.068578,1.09091 -2.402103,1.84895 -0.877887,0.49904 -1.540479,0.81751 -1.838947,0.8839 -0.435183,0.0968 -0.360425,0.10531 1.110827,0.12657 1.287638,0.0186 1.729074,-0.007 2.403018,-0.14137 0.454086,-0.0903 1.073259,-0.1902 1.375942,-0.22203 0.302683,-0.0318 0.759002,-0.11125 1.014039,-0.1765 0.270018,-0.0691 0.641345,-0.099 0.889,-0.0717 0.399815,0.0441 0.412616,0.0397 0.213628,-0.0733 -0.116418,-0.0661 -0.411693,-0.17043 -0.656168,-0.23187 -0.404307,-0.10161 -0.4445,-0.13323 -0.4445,-0.34971 0,-0.2546 0.189997,-0.31722 0.487984,-0.16083 0.08086,0.0424 0.33309,0.14279 0.560512,0.223 0.539139,0.19015 0.729504,0.38799 0.729504,0.75817 0,0.25077 -0.02929,0.29639 -0.1905,0.29665 -0.220813,2.7e-4 -0.630822,0.23377 -1.145815,0.65227 -0.204716,0.16636 -0.416735,0.27395 -0.486833,0.24705 -0.226957,-0.0871 -0.124987,-0.34617 0.237458,-0.6033 0.329845,-0.23401 0.342397,-0.25621 0.159485,-0.28211 -0.109196,-0.0155 -0.299696,0.0122 -0.423333,0.0614 -0.123637,0.0492 -0.586745,0.12753 -1.029129,0.174 -0.442383,0.0465 -1.128183,0.14381 -1.524,0.21629 -0.650771,0.11916 -1.90164,0.15674 -4.229607,0.12706 -0.300634,-0.004 -0.526769,0.0129 -0.502521,0.0371 0.02425,0.0242 0.334934,0.0997 0.690414,0.16775 1.081099,0.20685 1.975643,0.6618 2.874409,1.46187 0.730656,0.65043 1.039004,0.84415 2.606639,1.6377 0.256116,0.12965 0.675216,0.25927 0.931333,0.28805 l 0.465667,0.0523 -0.3175,-0.17358 c -0.371785,-0.20326 -0.412973,-0.43753 -0.101849,-0.57928 0.3096,-0.14107 0.461682,-0.12144 0.461682,0.0596 0,0.11148 0.118099,0.20043 0.402167,0.30291 1.34053,0.48358 1.537528,0.89766 0.664657,1.39707 -0.251378,0.14382 -0.479782,0.32072 -0.507558,0.39311 -0.0776,0.20223 -0.426805,0.11586 -0.459388,-0.11361 -0.02,-0.14092 0.04242,-0.22974 0.238011,-0.33867 0.781404,-0.43514 0.795456,-0.44759 0.65918,-0.58386 -0.113834,-0.11384 -0.188478,-0.11247 -0.687067,0.0126 -0.77256,0.19375 -1.46489,0.0568 -2.297676,-0.45436 -0.185172,-0.11366 -0.593281,-0.33702 -0.90691,-0.49635 -0.313629,-0.15933 -0.828876,-0.52895 -1.144993,-0.82137 -1.280285,-1.18431 -2.423049,-1.64249 -4.638756,-1.85987 l -0.423333,-0.0415 0.338666,0.16071 c 0.755624,0.35855 1.464138,0.67357 1.899609,0.8446 0.253152,0.0994 0.653202,0.27014 0.889,0.37934 0.235799,0.10921 0.732718,0.33712 1.104265,0.50647 0.371548,0.16934 0.761619,0.38876 0.866826,0.4876 0.340744,0.32011 1.097016,1.53053 1.417514,2.26874 0.171844,0.39582 0.414369,0.82882 0.538948,0.96223 0.353835,0.3789 1.056143,0.63581 2.450076,0.89622 l 0.37184,0.0695 -0.218204,-0.22776 c -0.288724,-0.30136 -0.293457,-0.59949 -0.0095,-0.59949 0.114779,0 0.245131,0.0681 0.289676,0.15133 0.04455,0.0832 0.331634,0.33535 0.63798,0.56026 0.652224,0.47885 0.699219,0.65659 0.265176,1.00291 -0.160494,0.12806 -0.323099,0.23284 -0.361345,0.23284 -0.03824,0 -0.215447,0.0991 -0.393787,0.22033 -0.215336,0.14633 -0.352584,0.19201 -0.408593,0.13599 -0.167595,-0.16759 -0.01865,-0.39969 0.377047,-0.58756 0.220636,-0.10475 0.401156,-0.20717 0.401156,-0.22761 0,-0.0204 -0.219075,-0.0809 -0.486834,-0.13435 -1.301924,-0.25995 -2.537997,-0.61033 -2.826361,-0.80116 -0.396421,-0.26233 -0.776929,-0.81099 -1.091502,-1.57385 -0.287304,-0.69672 -0.933992,-1.69033 -1.303435,-2.00267 -0.143491,-0.12132 -0.432343,-0.29558 -0.641893,-0.38724 -0.20955,-0.0917 -0.6477,-0.28895 -0.973666,-0.4384 -0.325967,-0.14944 -0.821267,-0.36282 -1.100667,-0.47417 -0.2794,-0.11134 -0.669925,-0.29026 -0.867834,-0.3976 -0.349387,-0.1895 -0.517389,-0.15951 -0.203748,0.0364 0.138453,0.0865 0.367912,0.39295 1.001581,1.3378 0.1012,0.15089 0.412664,0.80372 0.692143,1.45074 0.476481,1.10308 0.745773,2.01794 1.065389,3.61942 0.158279,0.79307 0.339436,1.22416 0.798539,1.90022 0.399587,0.58842 0.693721,0.77966 2.050301,1.33306 1.046951,0.42709 1.107514,0.43219 2.851991,0.24049 l 0.445696,-0.049 -0.361029,-0.18225 c -0.238877,-0.12059 -0.3702,-0.24683 -0.388133,-0.37313 -0.03468,-0.24426 0.195744,-0.33997 0.391654,-0.16267 0.08062,0.073 0.364948,0.21622 0.631846,0.31835 0.635355,0.24314 0.62864,0.38066 -0.04386,0.89809 -0.29102,0.22391 -0.598165,0.47613 -0.682538,0.56048 -0.190724,0.19068 -0.431715,0.15443 -0.462446,-0.0696 -0.01574,-0.11474 0.06525,-0.21935 0.254,-0.32805 0.187335,-0.10789 0.23836,-0.17338 0.157496,-0.20216 -0.06579,-0.0234 -0.161039,0.0119 -0.211667,0.0785 -0.05536,0.0728 -0.268161,0.128 -0.533889,0.13854 -0.558475,0.0222 -1.261555,0.32979 -1.656623,0.72485 -0.32612,0.32612 -0.855694,1.35343 -0.977773,1.89676 -0.05559,0.24741 -0.03362,0.47766 0.08744,0.91645 0.297677,1.07891 0.317741,1.17698 0.31977,1.56307 0.0029,0.55932 -0.210876,1.29922 -0.598461,2.07095 -0.409877,0.81612 -0.828071,1.30669 -1.487883,1.74537 -0.271683,0.18064 -0.444869,0.32855 -0.384857,0.32869 0.257299,5.3e-4 2.576645,-0.51329 2.870558,-0.63606 0.346093,-0.14458 0.787995,-0.52202 0.787995,-0.67306 0,-0.22346 0.600149,-1.31627 0.791845,-1.44188 0.353756,-0.23178 1.657665,-0.71293 2.205577,-0.81385 0.809702,-0.14915 0.923891,-0.21678 0.49057,-0.29058 -0.330211,-0.0562 -0.361937,-0.0828 -0.338667,-0.28334 0.02283,-0.1967 0.05832,-0.21862 0.319421,-0.19728 0.327181,0.0267 1.003601,0.38875 1.075248,0.57546 0.104852,0.27324 -0.0658,0.5362 -0.540814,0.83332 -0.266319,0.16658 -0.552079,0.30288 -0.635029,0.30288 -0.252412,0 -0.16905,-0.23514 0.166685,-0.47015 0.180933,-0.12665 0.244663,-0.20414 0.148167,-0.18017 -0.09313,0.0232 -0.455084,0.108 -0.804336,0.18857 -0.688864,0.15893 -1.631495,0.54902 -1.889117,0.78178 -0.187513,0.16942 -0.566217,0.88588 -0.566217,1.07121 0,0.19904 -0.499313,0.71733 -0.880983,0.91446 -0.190674,0.0985 -0.746733,0.26668 -1.235683,0.37377 l -0.889,0.1947 1.27,-0.0463 c 0.6985,-0.0255 1.43629,-0.0872 1.639533,-0.13725 0.269528,-0.0663 0.664517,-0.0628 1.459563,0.0131 0.599517,0.0573 1.208069,0.0782 1.352338,0.0465 l 0.262311,-0.0576 -0.303707,-0.20637 c -0.302853,-0.20579 -0.383871,-0.39473 -0.214225,-0.49957 0.28076,-0.17352 1.114361,0.48267 1.219128,0.95966 0.110144,0.50149 -0.133411,0.71169 -1.08939,0.94022 -0.447598,0.107 -0.594257,0.0488 -0.543774,-0.21575 0.02294,-0.12017 0.129413,-0.16788 0.45244,-0.20271 0.460348,-0.0496 0.835647,-0.21486 0.761291,-0.33517 -0.02606,-0.0422 -0.205775,-0.0191 -0.404538,0.0519 -0.3229,0.11539 -0.449548,0.11353 -1.303967,-0.0191 -0.815887,-0.12668 -1.043461,-0.13247 -1.651,-0.042 -0.387567,0.0577 -1.23807,0.13292 -1.890003,0.16716 -1.054183,0.0554 -1.129125,0.0688 -0.677334,0.12122 0.2794,0.0324 0.71755,0.10045 0.973667,0.15115 1.751838,0.3468 2.150338,0.53175 2.551922,1.18441 0.141132,0.22936 0.286253,0.41703 0.322493,0.41703 0.03624,0 0.175511,0.15818 0.309494,0.35152 0.302678,0.43676 0.652751,0.59292 1.192625,0.53198 1.043794,-0.11781 1.161949,-0.17653 0.703469,-0.34958 -0.192056,-0.0725 -0.254,-0.14929 -0.254,-0.3149 0,-0.30615 0.298646,-0.29094 0.753258,0.0384 0.416536,0.30174 0.487603,0.44238 0.362394,0.71719 -0.12192,0.26758 -0.400137,0.44074 -0.954979,0.59436 -0.837358,0.23185 -1.007343,0.2471 -1.007343,0.0904 0,-0.0774 0.08496,-0.17224 0.188797,-0.21065 0.146441,-0.0542 0.07677,-0.0791 -0.310555,-0.11125 -0.438947,-0.0364 -0.529233,-0.0763 -0.746347,-0.3296 -0.135848,-0.1585 -0.380074,-0.42732 -0.54273,-0.59737 -0.162655,-0.17006 -0.359431,-0.43676 -0.437282,-0.59267 -0.180316,-0.36112 -0.806677,-0.67593 -1.816822,-0.91312 -1.249669,-0.29344 -1.267436,-0.27971 -0.594998,0.45978 0.841955,0.92592 1.391288,1.95895 2.024401,3.80694 0.315074,0.91965 0.711322,1.64551 0.995011,1.82268 0.09953,0.0622 0.309253,0.14194 0.466053,0.17731 l 0.285094,0.0643 -0.220978,-0.23065 c -0.248853,-0.25975 -0.285855,-0.49814 -0.08904,-0.57366 0.144367,-0.0554 1.185058,0.9113 1.272299,1.18184 0.07305,0.22653 -0.09408,0.37443 -0.782595,0.69254 -0.3419,0.15797 -0.621639,0.32779 -0.621639,0.37739 0,0.0988 -0.276437,0.12418 -0.366887,0.0337 z m 1.202888,-1.24304 c 0.07272,-0.0876 0.05053,-0.15105 -0.09546,-0.27292 -0.104611,-0.0873 -0.142579,-0.10453 -0.08437,-0.0383 0.167587,0.19085 0.128817,0.33082 -0.07674,0.27706 -0.125093,-0.0327 -0.163505,-0.0169 -0.122005,0.0503 0.08135,0.13163 0.262348,0.12391 0.378576,-0.0161 z m -0.689596,-0.10633 c -0.02813,-0.0281 -0.101161,-0.0311 -0.16228,-0.007 -0.06754,0.027 -0.04748,0.0471 0.05116,0.0512 0.08925,0.004 0.139258,-0.0163 0.111125,-0.0445 z m 2.507226,-4.38954 c 0.03147,-0.082 0.0064,-0.10708 -0.07561,-0.0756 -0.133921,0.0514 -0.168799,0.1983 -0.04708,0.1983 0.04158,0 0.0968,-0.0552 0.122688,-0.12269 z m -0.282962,-0.58792 c 0,-0.0183 -0.05913,-0.056 -0.1314,-0.0837 -0.07535,-0.0289 -0.109331,-0.0147 -0.07967,0.0333 0.04972,0.0804 0.211068,0.119 0.211068,0.0504 z m -2.540002,-0.0834 c 0,-0.0176 -0.06668,-0.0843 -0.148167,-0.14817 -0.134284,-0.10531 -0.137279,-0.10232 -0.03196,0.032 0.110604,0.14104 0.180131,0.18589 0.180131,0.1162 z m -2.878667,-0.33867 c 0,-0.0176 -0.06668,-0.0843 -0.148167,-0.14816 -0.134286,-0.10532 -0.137281,-0.10232 -0.03197,0.032 0.110607,0.14103 0.180134,0.18588 0.180134,0.1162 z m 0.739071,-1.20451 c -0.02813,-0.0281 -0.101161,-0.0311 -0.162279,-0.007 -0.06754,0.027 -0.04748,0.0471 0.05115,0.0511 0.08925,0.004 0.139258,-0.0163 0.111125,-0.0445 z m -2.00907,-0.28752 c 0.09948,-0.0643 0.07805,-0.0824 -0.09891,-0.0834 -0.12425,-7.9e-4 -0.2957,-0.023 -0.381,-0.0495 -0.0853,-0.0265 -0.05984,0.0102 0.05657,0.0817 0.252539,0.15492 0.26119,0.15597 0.423334,0.0512 z m 0.908404,0.0335 c -0.02814,-0.0281 -0.101161,-0.0311 -0.16228,-0.007 -0.06754,0.027 -0.04748,0.0471 0.05116,0.0512 0.08925,0.004 0.139258,-0.0163 0.111125,-0.0445 z m -2.130038,-0.36242 c -0.05872,-0.095 -0.556366,-0.17163 -0.556366,-0.0857 0,0.0581 0.199758,0.11865 0.49183,0.14903 0.06096,0.006 0.09,-0.0222 0.06454,-0.0634 z m -0.680208,-0.0893 c -0.07376,-0.11935 0.181837,-0.17027 0.457657,-0.0912 0.202635,0.0581 0.258851,0.0479 0.258851,-0.0469 0,-0.11111 -0.105619,-0.15954 -0.281391,-0.12904 -0.511092,0.0887 -0.988609,0.0977 -0.988609,0.0187 0,-0.0515 -0.09525,-0.0857 -0.211666,-0.076 -0.22512,0.0186 -0.299265,0.14992 -0.08467,0.14992 0.06985,0 0.127265,0.0476 0.127589,0.10583 3.44e-4,0.0664 0.143315,0.11232 0.383672,0.12324 0.210697,0.01 0.36305,-0.015 0.338564,-0.0546 z m 1.624911,-0.14093 c -0.02813,-0.0281 -0.10116,-0.0311 -0.162278,-0.007 -0.06754,0.027 -0.04748,0.0471 0.05115,0.0512 0.08925,0.004 0.139259,-0.0163 0.111125,-0.0445 z m 0.423334,0 c -0.02813,-0.0281 -0.10116,-0.0311 -0.162278,-0.007 -0.06754,0.027 -0.04748,0.0471 0.05115,0.0512 0.08925,0.004 0.139258,-0.0163 0.111125,-0.0445 z m -3.132667,-0.0847 c -0.02813,-0.0281 -0.10116,-0.0311 -0.162278,-0.007 -0.06754,0.027 -0.04748,0.0471 0.05115,0.0512 0.08925,0.004 0.139259,-0.0163 0.111125,-0.0445 z m 5.210374,-0.004 c -0.05732,-0.0232 -0.171622,-0.0246 -0.254,-0.003 -0.08238,0.0215 -0.03548,0.0404 0.104222,0.0422 0.1397,0.002 0.2071,-0.0159 0.149778,-0.039 z m 2.792389,-5.3e-4 c -0.05821,-0.0235 -0.153458,-0.0235 -0.211667,0 -0.05821,0.0235 -0.01058,0.0427 0.105834,0.0427 0.116416,0 0.164041,-0.0192 0.105833,-0.0427 z m -7.122366,-0.17678 c 0.102811,-0.1311 0.10067,-0.13606 -0.01859,-0.0431 -0.07413,0.0578 -0.159859,0.08 -0.1905,0.0494 -0.03064,-0.0306 -0.05571,-0.0113 -0.05571,0.0431 0,0.14495 0.13164,0.1204 0.2648,-0.0494 z m 1.49027,0.097 c -0.02813,-0.0281 -0.10116,-0.0311 -0.162278,-0.007 -0.06754,0.027 -0.04748,0.0471 0.05115,0.0512 0.08925,0.004 0.139258,-0.0163 0.111125,-0.0445 z m -1.214765,-0.16492 c 0.02891,-0.0754 0.01472,-0.10933 -0.03327,-0.0797 -0.04603,0.0284 -0.0837,0.0876 -0.0837,0.1314 0,0.12179 0.06069,0.095 0.116972,-0.0517 z m 5.322861,0.0753 c -0.05821,-0.0235 -0.153458,-0.0235 -0.211667,0 -0.05821,0.0235 -0.01058,0.0427 0.105834,0.0427 0.116416,0 0.164041,-0.0192 0.105833,-0.0427 z m 2.518836,-0.40959 c -0.05797,-0.0699 -0.146119,-0.127 -0.195884,-0.127 -0.04977,0 -0.01651,0.0559 0.07387,0.12431 0.212384,0.16064 0.25386,0.16155 0.122018,0.003 z m -0.0635,-3.23107 c -0.05821,-0.0235 -0.153458,-0.0235 -0.211669,0 -0.05821,0.0235 -0.01058,0.0427 0.105836,0.0427 0.116416,0 0.164041,-0.0192 0.105833,-0.0427 z m 0.868029,-0.21836 c 0.03811,0.0345 0.04073,0.0133 0.0058,-0.0472 -0.04888,-0.0847 -0.09087,-0.0872 -0.182906,-0.0108 -0.0657,0.0545 -0.119465,0.1182 -0.119465,0.14148 0,0.0233 0.05113,-9e-5 0.113626,-0.052 0.06249,-0.0519 0.144801,-0.0661 0.182906,-0.0315 z m -0.508196,-0.4029 c -0.02878,-0.0466 -0.09771,-0.0841 -0.153164,-0.0834 -0.06059,7.9e-4 -0.05015,0.0341 0.02617,0.0834 0.162653,0.10511 0.191963,0.10511 0.127,0 z m -3.395871,-5.38288 c 0.03508,-0.0914 -0.02967,-0.11902 -0.268621,-0.1145 -0.246012,0.005 -0.277823,0.0209 -0.14551,0.0741 0.09313,0.0375 0.207433,0.0465 0.254,0.0201 0.04657,-0.0264 0.03165,0.0174 -0.03314,0.0972 -0.102341,0.12613 -0.10042,0.13852 0.01463,0.0944 0.07284,-0.028 0.153229,-0.10503 0.178652,-0.17128 z m 0.806482,-0.0893 c 0.07274,-0.0641 -0.380744,-0.0161 -0.54328,0.0575 -0.118015,0.0535 -0.0667,0.0611 0.169333,0.0252 0.186267,-0.0284 0.354542,-0.0656 0.373947,-0.0827 z m 0.915458,-0.16692 c -0.02813,-0.0281 -0.101161,-0.0311 -0.16228,-0.007 -0.06754,0.027 -0.04748,0.0471 0.05115,0.0511 0.08925,0.004 0.139258,-0.0163 0.111125,-0.0445 z m 1.123598,-3.88585 c 0.109368,-0.11642 0.1798,-0.21167 0.156517,-0.21167 -0.02328,0 -0.131815,0.0952 -0.241186,0.21167 -0.109368,0.11642 -0.179801,0.21167 -0.156517,0.21167 0.02328,0 0.131815,-0.0952 0.241186,-0.21167 z m -0.08467,-0.41428 c 0,-0.0183 -0.05715,-0.0552 -0.127,-0.082 -0.06985,-0.0268 -0.127,-0.0118 -0.127,0.0333 0,0.0451 0.05715,0.082 0.127,0.082 0.06985,0 0.127,-0.015 0.127,-0.0333 z M 97.02219,128.5475 c -0.02813,-0.0281 -0.101161,-0.0311 -0.16228,-0.007 -0.06754,0.027 -0.04748,0.0471 0.05116,0.0512 0.08925,0.004 0.139258,-0.0163 0.111125,-0.0445 z m -1.141238,-0.25891 c -0.05821,-0.0235 -0.153459,-0.0235 -0.211667,0 -0.05821,0.0235 -0.01058,0.0427 0.105833,0.0427 0.116417,0 0.164042,-0.0192 0.105834,-0.0427 z m 0.656166,-2.90727 c 0.09861,-0.0637 0.07384,-0.0824 -0.110828,-0.0834 -0.137253,-7.9e-4 -0.215702,0.0345 -0.185505,0.0834 0.06497,0.10513 0.133665,0.10513 0.296333,0 z m 0.400405,-0.13582 c -0.02813,-0.0281 -0.101161,-0.0311 -0.16228,-0.007 -0.06754,0.027 -0.04748,0.0471 0.05116,0.0512 0.08925,0.004 0.139258,-0.0163 0.111125,-0.0445 z m 0.276929,-0.10912 c 0,-0.0416 -0.05715,-0.0975 -0.127,-0.12434 -0.129053,-0.0495 -0.173395,0.0407 -0.07055,0.14351 0.08091,0.0809 0.197554,0.0696 0.197554,-0.0192 z m -4.402666,-1.48036 c 0,-0.0176 -0.06668,-0.0842 -0.148167,-0.14816 -0.134286,-0.10532 -0.137281,-0.10232 -0.03197,0.032 0.110606,0.14104 0.180134,0.18589 0.180134,0.1162 z m -0.338667,-0.33427 c 0,-0.0152 -0.104775,-0.11994 -0.232833,-0.23283 l -0.232834,-0.20526 0.205258,0.23283 c 0.191846,0.21762 0.260409,0.27166 0.260409,0.20526 z m -4.487334,-0.59706 c 0,-0.0176 -0.06668,-0.0843 -0.148166,-0.14817 -0.134287,-0.10531 -0.137281,-0.10232 -0.03197,0.032 0.110606,0.14103 0.180133,0.18588 0.180133,0.1162 z m -0.268009,-0.57115 c -0.06215,-0.0394 -0.191096,-0.0722 -0.286557,-0.0729 -0.09546,-7.9e-4 -0.211072,-0.0299 -0.256914,-0.0648 -0.04584,-0.0349 0.0021,0.0191 0.106621,0.11997 0.123879,0.11965 0.252566,0.1671 0.369904,0.13642 0.136354,-0.0357 0.152569,-0.0644 0.06695,-0.11868 z m 2.277079,-0.21004 c -0.02813,-0.0281 -0.10116,-0.0311 -0.162278,-0.007 -0.06754,0.027 -0.04748,0.0471 0.05115,0.0512 0.08925,0.004 0.139259,-0.0163 0.111125,-0.0445 z m -3.45934,-0.34302 c -0.0511,-0.0616 -0.127321,-0.0907 -0.169371,-0.0647 -0.106439,0.0658 -0.02302,0.17667 0.132906,0.17667 0.09768,0 0.106614,-0.0274 0.03646,-0.11196 z m 1.979437,0.0841 c -0.05821,-0.0235 -0.153458,-0.0235 -0.211667,0 -0.05821,0.0235 -0.01058,0.0427 0.105834,0.0427 0.116416,0 0.164041,-0.0192 0.105833,-0.0427 z m -1.594425,-0.08 c 0.07366,-0.0283 0.133925,-0.10447 0.133925,-0.16933 0,-0.0781 0.107226,-0.12124 0.3175,-0.12769 0.511672,-0.0157 0.649347,0.0136 0.770757,0.16406 0.101571,0.12588 0.107397,0.11804 0.05129,-0.069 -0.05173,-0.17244 -0.04173,-0.19452 0.05474,-0.1208 0.06493,0.0496 0.194246,0.0844 0.28738,0.0773 0.09313,-0.007 0.311013,-0.0194 0.484176,-0.0274 0.248362,-0.0114 0.304059,-0.0426 0.263772,-0.14758 -0.04264,-0.11112 -0.164459,-0.12582 -0.738177,-0.0891 -0.377907,0.0242 -1.087155,0.0523 -1.576105,0.0625 -0.48895,0.0102 -0.822325,0.034 -0.740833,0.0529 0.08149,0.019 0.148167,0.0742 0.148167,0.1228 0,0.0486 0.07625,0.0684 0.16945,0.044 0.0932,-0.0244 0.148099,-0.01 0.122003,0.0325 -0.04396,0.0711 0.01833,0.2461 0.08762,0.2461 0.01673,0 0.09068,-0.0231 0.164336,-0.0514 z m 1.126995,-0.0844 c -0.02814,-0.0281 -0.10116,-0.0311 -0.162278,-0.007 -0.06754,0.027 -0.04748,0.0471 0.05115,0.0511 0.08925,0.004 0.139259,-0.0163 0.111125,-0.0445 z m 0.508,0 c -0.02813,-0.0281 -0.10116,-0.0311 -0.162278,-0.007 -0.06754,0.027 -0.04748,0.0471 0.05115,0.0511 0.08925,0.004 0.139259,-0.0163 0.111125,-0.0445 z m -2.598663,-0.40151 c -0.07506,-0.074 -0.125496,-0.062 -0.207645,0.0492 -0.05968,0.0808 -0.133313,0.12205 -0.163634,0.0917 -0.03032,-0.0303 -0.05513,-0.0133 -0.05513,0.0378 0,0.0511 0.08573,0.10564 0.1905,0.12122 0.227551,0.0338 0.3791,-0.1588 0.235907,-0.29988 z m 7.001331,0.14751 c -0.02814,-0.0281 -0.101161,-0.0311 -0.162279,-0.007 -0.06754,0.027 -0.04748,0.0471 0.05115,0.0511 0.08925,0.004 0.139258,-0.0163 0.111125,-0.0445 z m -1.860904,-0.0919 c -0.08149,-0.0213 -0.214842,-0.0213 -0.296334,0 -0.08149,0.0213 -0.01482,0.0387 0.148167,0.0387 0.162983,0 0.229658,-0.0174 0.148167,-0.0387 z m 6.117166,-0.48209 c 0,-0.0179 -0.0762,-0.0524 -0.169334,-0.0767 -0.09313,-0.0244 -0.169333,-0.01 -0.169333,0.0325 0,0.0422 0.0762,0.0767 0.169333,0.0767 0.09313,0 0.169334,-0.0146 0.169334,-0.0325 z m 0.677333,-0.0495 c 0,-0.0451 -0.05715,-0.0601 -0.127,-0.0333 -0.06985,0.0268 -0.127,0.0637 -0.127,0.082 0,0.0183 0.05715,0.0333 0.127,0.0333 0.06985,0 0.127,-0.0369 0.127,-0.082 z m 0.08467,-4.36299 c 0.08798,-0.106 0.07613,-0.127 -0.07164,-0.127 -0.122586,0 -0.162052,0.0391 -0.128309,0.127 0.0268,0.0698 0.05904,0.127 0.07164,0.127 0.01259,0 0.07034,-0.0572 0.128307,-0.127 z m 1.75896,35.38569 c -0.402423,-0.21839 -0.573193,-0.79936 -0.234961,-0.79936 0.09313,0 0.169334,0.0512 0.169334,0.11388 0,0.19955 0.299847,0.39412 0.607372,0.39412 0.3762,0 0.57728,-0.21346 0.63974,-0.67914 0.0453,-0.33766 0.0397,-0.34882 -0.12296,-0.24721 -0.23789,0.14857 -0.43335,0.0479 -0.57764,-0.2974 -0.16774,-0.40144 -0.15525,-0.60114 0.0617,-0.98722 0.21258,-0.37823 0.48113,-0.43152 0.82871,-0.16443 0.19326,0.1485 0.21164,0.22512 0.2399,0.99993 0.0225,0.61719 -0.004,0.92073 -0.0984,1.14777 -0.23514,0.56275 -0.96862,0.81441 -1.512867,0.51906 z m 0.504105,-0.0885 c -0.0281,-0.0281 -0.10116,-0.0311 -0.16227,-0.007 -0.0675,0.027 -0.0475,0.0471 0.0511,0.0511 0.0893,0.004 0.13925,-0.0163 0.11112,-0.0445 z m 0.59816,-2.01667 c -0.0137,-0.13611 -0.0711,-0.26264 -0.1276,-0.28118 -0.1348,-0.0442 -0.22764,0.33929 -0.15357,0.63439 0.057,0.22691 0.0615,0.2285 0.18224,0.0635 0.0681,-0.0931 0.11263,-0.28059 0.0989,-0.41671 z m 0.24285,0.18398 c -0.0235,-0.0582 -0.0427,-0.0106 -0.0427,0.10584 0,0.11641 0.0192,0.16404 0.0427,0.10583 0.0235,-0.0582 0.0235,-0.15346 0,-0.21167 z m 3.76235,0.85892 c -0.17704,-0.82406 -0.1893,-0.98544 -0.0951,-1.25172 0.1987,-0.5616 0.41048,-0.6592 0.74802,-0.34473 0.23216,0.21629 0.25316,0.8681 0.0429,1.33292 -0.0783,0.17313 -0.14497,0.50528 -0.14816,0.73811 -0.005,0.35654 -0.0325,0.42713 -0.17514,0.44739 -0.15083,0.0214 -0.19155,-0.0793 -0.37257,-0.92197 z m 0.42378,-1.11254 c -0.0566,-0.15305 -0.072,-0.15746 -0.1193,-0.0342 -0.0299,0.0778 -0.0296,0.26492 7.9e-4,0.41575 l 0.055,0.27424 0.0643,-0.24004 c 0.0354,-0.13202 0.0351,-0.31911 -7.9e-4,-0.41575 z m 0.76283,1.77216 c -0.0985,-0.15933 -0.17904,-0.33282 -0.17904,-0.38553 0,-0.18175 0.31955,-0.0953 0.46429,0.12561 0.12238,0.18677 0.16299,0.20334 0.2593,0.10583 0.13341,-0.13506 0.27337,-0.7235 0.22557,-0.94838 -0.0255,-0.11992 -0.0819,-0.14316 -0.24706,-0.10172 -0.33334,0.0837 -0.53276,-0.15284 -0.53276,-0.63185 0,-0.64986 0.4197,-0.87857 0.86113,-0.46924 0.19003,0.1762 0.23365,0.3066 0.28467,0.85108 0.10679,1.13963 -0.0962,1.67 -0.65768,1.7182 -0.2618,0.0225 -0.32185,-0.0107 -0.47842,-0.264 z m 0.4983,-1.45004 c 0,-0.0205 -0.0381,-0.0609 -0.0847,-0.0897 -0.0466,-0.0288 -0.0847,-0.012 -0.0847,0.0373 0,0.0493 0.0381,0.0897 0.0847,0.0897 0.0466,0 0.0847,-0.0168 0.0847,-0.0373 z m 0.34819,-0.32567 c -0.0691,-0.0691 -0.0942,-0.0597 -0.0942,0.0356 0,0.1683 0.11385,0.28215 0.15593,0.15593 0.0179,-0.0536 -0.01,-0.13976 -0.0617,-0.19156 z m -0.26482,-0.0392 c -0.002,-0.0811 -0.16501,-0.33668 -0.16674,-0.26092 -8e-4,0.0311 -0.0244,0.11684 -0.0527,0.1905 -0.0337,0.0879 -0.005,0.13392 0.0847,0.13392 0.0748,0 0.13547,-0.0286 0.13476,-0.0635 z m -4.99613,0.77766 c -0.10889,-0.2864 -0.10614,-0.96816 0.004,-0.96816 0.0476,0 0.12987,-0.0952 0.18292,-0.21167 0.0607,-0.13317 0.16608,-0.21166 0.28425,-0.21166 0.19766,0 0.27535,0.137 0.47514,0.8379 0.0663,0.23274 0.16469,0.38755 0.26242,0.41311 0.20473,0.0535 0.15417,0.30811 -0.0675,0.34001 -0.21907,0.0315 -0.50842,-0.27809 -0.6165,-0.65969 l -0.0839,-0.29633 -0.008,0.38523 c -0.0111,0.55836 -0.27568,0.78521 -0.43306,0.37126 z m 1.67709,-0.0157 c -0.41147,-0.47172 -0.44782,-1.29117 -0.0573,-1.29117 0.13246,0 0.16028,0.0633 0.16028,0.36482 0,0.42003 0.18042,0.75393 0.3016,0.55817 0.0404,-0.0653 0.0938,-0.27106 0.11876,-0.45732 0.0357,-0.26713 0.0811,-0.33867 0.21464,-0.33867 0.13765,0 0.17766,0.0713 0.21386,0.381 0.0515,0.44085 0.12815,0.59267 0.29913,0.59267 0.0671,0 0.12201,0.0762 0.12201,0.16933 0,0.1301 -0.0564,0.16933 -0.24364,0.16933 -0.13399,0 -0.29186,-0.0581 -0.3508,-0.12913 -0.096,-0.11574 -0.12198,-0.11574 -0.24987,0 -0.18774,0.1699 -0.3696,0.16335 -0.52869,-0.019 z m 0.75434,-0.84506 c -0.0215,-0.0824 -0.0404,-0.0355 -0.0422,0.10422 -0.002,0.1397 0.0159,0.2071 0.039,0.14978 0.0232,-0.0573 0.0246,-0.17162 0.003,-0.254 z m 5.5011,0.76744 c -0.11116,-0.11116 -0.053,-0.37578 0.15523,-0.70555 0.27062,-0.42869 0.26613,-0.52398 -0.033,-0.70067 -0.48019,-0.28365 -0.37176,-0.91486 0.19161,-1.11548 0.33773,-0.12028 0.54047,0.12816 0.59616,0.73053 0.0378,0.40931 0.0119,0.53888 -0.17438,0.87225 -0.12036,0.21533 -0.2007,0.40965 -0.17854,0.43181 0.0222,0.0222 0.14403,8e-4 0.27081,-0.0474 0.48973,-0.18619 0.53288,0.17368 0.0504,0.41986 -0.32984,0.16826 -0.76749,0.22538 -0.87826,0.1146 z m 0.50438,-2.03561 c -0.025,-0.025 -0.1095,-0.021 -0.18769,0.009 -0.13058,0.0501 -0.12915,0.069 0.0175,0.23203 l 0.15969,0.17748 0.028,-0.18651 c 0.0154,-0.10258 0.007,-0.207 -0.0175,-0.23204 z m 5.25296,2.03561 c -0.12793,-0.12792 -0.0441,-0.28222 0.15327,-0.28222 0.32414,0 0.50009,-0.33496 0.42811,-0.815 -0.0883,-0.58882 -0.11561,-0.63465 -0.30698,-0.51513 -0.21911,0.13683 -0.43079,-0.002 -0.55002,-0.36017 -0.13268,-0.39881 -0.0582,-0.65014 0.22776,-0.76859 0.31305,-0.12967 0.73858,0.0259 0.792,0.28944 0.27886,1.37588 0.31479,1.70182 0.2218,2.0122 -0.0534,0.1781 -0.16937,0.36254 -0.25781,0.40987 -0.18123,0.097 -0.62231,0.11543 -0.70813,0.0296 z m 0.21974,-2.34276 c -0.0768,-0.13189 -0.21449,0.10065 -0.15134,0.25568 0.059,0.14484 0.0665,0.14393 0.12765,-0.0155 0.0357,-0.0931 0.0464,-0.20123 0.0237,-0.24021 z m 0.39985,0.20493 c -7.9e-4,-0.0737 -0.0339,-0.18554 -0.0738,-0.24847 -0.0519,-0.0818 -0.0829,-0.0436 -0.10897,0.13406 -0.0244,0.16632 -1e-5,0.24847 0.0738,0.24847 0.0606,0 0.10968,-0.0603 0.10897,-0.13406 z m -3.32187,1.84883 c -0.1965,-0.11445 -0.18844,-0.4711 0.0199,-0.87971 0.0924,-0.18129 0.14958,-0.3481 0.127,-0.37068 -0.0226,-0.0226 -0.041,0.003 -0.041,0.0577 0,0.18045 -0.31703,0.10208 -0.45812,-0.11325 -0.26006,-0.3969 -0.26139,-0.67384 -0.004,-0.87614 0.6725,-0.52898 1.1693,0.27231 0.80734,1.30215 -0.0954,0.27154 -0.16196,0.50528 -0.14783,0.51942 0.0141,0.0141 0.15628,-0.0118 0.31587,-0.0575 0.41617,-0.11936 0.67008,-0.10281 0.72774,0.0474 0.0675,0.17583 0.0436,0.19147 -0.51243,0.33631 -0.56314,0.14668 -0.63603,0.14967 -0.83419,0.0343 z m 1.18357,-0.29837 c -0.0281,-0.0281 -0.10116,-0.0311 -0.16228,-0.007 -0.0675,0.027 -0.0475,0.0471 0.0512,0.0512 0.0892,0.004 0.13926,-0.0163 0.11113,-0.0445 z m -1.08409,-1.52284 c -0.0713,-0.0859 -0.1327,-0.0988 -0.19126,-0.0403 -0.0586,0.0586 -0.0339,0.14427 0.0768,0.26694 0.14132,0.15655 0.16686,0.16193 0.19126,0.0403 0.0155,-0.0772 -0.0191,-0.19735 -0.0768,-0.26693 z m -1.17898,1.62221 c 0,-0.17718 0.0404,-0.21755 0.21755,-0.21755 0.17719,0 0.21254,0.0353 0.1905,0.1905 -0.0174,0.12242 -0.0951,0.20017 -0.21755,0.21755 -0.15515,0.022 -0.1905,-0.0133 -0.1905,-0.1905 z m 2.794,-0.17522 c 0,-0.16933 0.0423,-0.21166 0.21167,-0.21166 0.16933,0 0.21166,0.0423 0.21166,0.21166 0,0.16934 -0.0423,0.21167 -0.21166,0.21167 -0.16934,0 -0.21167,-0.0423 -0.21167,-0.21167 z m -13.7795,-2.0734 c -0.19302,-0.11769 -0.27517,-0.23134 -0.27517,-0.38069 0,-0.25511 0.16247,-0.27586 0.35937,-0.0459 0.18698,0.21837 0.53917,0.30427 0.70007,0.17074 0.17024,-0.14128 0.16537,-0.37101 -0.007,-0.30507 -0.20228,0.0776 -0.59506,-0.1657 -0.6955,-0.43085 -0.17655,-0.46607 -0.19035,-0.70265 -0.0593,-1.01632 0.23738,-0.56812 0.55591,-0.60146 0.9896,-0.10359 0.25853,0.29679 0.30798,0.42389 0.3565,0.91625 0.0584,0.59322 -0.0177,0.94081 -0.2663,1.21551 -0.18369,0.20298 -0.75401,0.19259 -1.10282,-0.0201 z m 0.85877,-1.06619 c 0.0859,-0.22377 0.0591,-0.28941 -0.11794,-0.28941 -0.14111,0 -0.16933,-0.0564 -0.16933,-0.33866 0,-0.35879 -0.1212,-0.45438 -0.21227,-0.16744 -0.0624,0.19665 0.0221,0.6676 0.14775,0.8236 0.11781,0.14624 0.29018,0.13248 0.35179,-0.0281 z m 0.28061,-0.39425 c -0.0202,-0.10532 -0.0376,-0.0391 -0.0385,0.14718 -10e-4,0.18626 0.0156,0.27243 0.0368,0.19148 0.0212,-0.081 0.022,-0.23335 0.002,-0.33866 z m 3.96571,1.52302 c -0.0182,-0.0582 -0.0812,-0.36354 -0.1401,-0.67851 -0.0723,-0.38697 -0.13485,-0.54483 -0.19286,-0.48683 -0.15123,0.15124 -0.37164,0.0924 -0.55022,-0.147 -0.13145,-0.17618 -0.17437,-0.19751 -0.1764,-0.0877 -0.004,0.23408 -0.50624,0.44348 -0.5145,0.21465 -0.002,-0.0582 -0.0595,-0.22014 -0.12752,-0.35984 l -0.12371,-0.254 0.0344,0.35653 c 0.0369,0.383 -0.0988,0.59044 -0.32856,0.50227 -0.2529,-0.097 -0.0767,-1.18926 0.22164,-1.37363 0.14024,-0.0867 0.38618,0.0515 0.48752,0.27396 0.0931,0.20434 0.10933,0.21007 0.20895,0.0738 0.16919,-0.23139 0.41417,-0.1193 0.6447,0.29498 l 0.21149,0.38006 0.0537,-0.42933 c 0.1074,-0.85839 0.45778,-1.18685 0.83461,-0.78237 0.26129,0.28046 0.23872,0.96368 -0.0457,1.38276 -0.2019,0.29751 -0.2111,0.35033 -0.12243,0.70249 0.0762,0.30259 0.0732,0.39518 -0.0145,0.45083 -0.16172,0.10258 -0.32266,0.0877 -0.36048,-0.0332 z m -2.02042,-1.43405 c -0.027,-0.0675 -0.0471,-0.0475 -0.0512,0.0512 -0.004,0.0893 0.0163,0.13927 0.0445,0.11113 0.0281,-0.0281 0.0311,-0.10116 0.007,-0.16228 z m 2.30688,-0.38629 c 0.003,-0.15134 -0.0295,-0.27516 -0.0728,-0.27516 -0.0981,0 -0.14522,0.29985 -0.0997,0.63483 0.03,0.22102 0.043,0.23197 0.10053,0.0847 0.0363,-0.093 0.0687,-0.29299 0.072,-0.44433 z m -1.56038,0.40217 c 0.0288,-0.0466 0.012,-0.0847 -0.0373,-0.0847 -0.0493,0 -0.0897,0.0381 -0.0897,0.0847 0,0.0466 0.0168,0.0847 0.0373,0.0847 0.0205,0 0.0609,-0.0381 0.0897,-0.0847 z m -0.33867,-0.59267 c -0.0288,-0.0466 -0.0977,-0.0841 -0.15316,-0.0834 -0.0606,8e-4 -0.0502,0.0341 0.0262,0.0834 0.16265,0.10512 0.19196,0.10512 0.127,0 z m -1.31281,1.29117 c -2.5e-4,-0.0815 -0.0391,-0.28728 -0.0863,-0.4573 -0.0691,-0.24858 -0.1185,-0.3006 -0.2525,-0.26557 -0.23173,0.0606 -0.30479,-0.18085 -0.13371,-0.44195 0.16754,-0.25571 0.3116,-0.26683 0.51694,-0.0399 0.15591,0.17227 0.40664,1.1557 0.32736,1.28398 -0.0824,0.13326 -0.37127,0.0717 -0.37175,-0.0792 z m 8.65228,-0.889 c 0.0203,-0.2109 0.071,-0.28149 0.21703,-0.30222 0.15157,-0.0215 0.1905,0.0139 0.1905,0.17356 0,0.2232 -0.14252,0.40383 -0.31863,0.40383 -0.0792,0 -0.10711,-0.0863 -0.0889,-0.27517 z m 4.76215,-0.16933 -0.0789,-0.4445 -0.42176,-0.0423 c -0.3603,-0.0362 -0.433,-0.0745 -0.49885,-0.26287 -0.0652,-0.18653 -0.0134,-0.32685 0.33619,-0.91016 0.26695,-0.44545 0.46607,-0.68964 0.56235,-0.68964 0.082,0 0.15235,0.0476 0.15636,0.10583 0.004,0.0582 0.0154,0.22014 0.0252,0.35984 0.01,0.1397 0.0256,0.37782 0.035,0.52916 0.0131,0.21004 0.0561,0.27517 0.1815,0.27517 0.0904,0 0.18788,-0.0381 0.21666,-0.0847 0.0288,-0.0466 0.12881,-0.0847 0.22229,-0.0847 0.13523,0 0.16448,0.0473 0.14317,0.23128 -0.0198,0.17097 -0.093,0.25287 -0.28079,0.3141 -0.1397,0.0456 -0.26213,0.0861 -0.27207,0.0902 -0.01,0.004 0.0376,0.19228 0.10563,0.41831 0.13308,0.44222 0.0685,0.63947 -0.20948,0.63947 -0.10666,0 -0.16379,-0.11415 -0.22247,-0.4445 z m -0.27696,-1.22712 c -0.0347,-0.29694 -0.0418,-0.30391 -0.11341,-0.1104 -0.042,0.11361 -0.11764,0.25624 -0.16803,0.31695 -0.071,0.0856 -0.0455,0.1104 0.11341,0.1104 0.18701,0 0.20178,-0.0279 0.16803,-0.31695 z m 0.15567,-0.63132 c 0,-0.13677 -0.025,-0.16123 -0.0942,-0.092 -0.0518,0.0518 -0.0686,0.13564 -0.0373,0.18627 0.0876,0.1417 0.13156,0.1102 0.13156,-0.0942 z m -6.0419,2.15947 c -0.0323,-0.0323 -0.29587,-0.0609 -0.58561,-0.0635 -0.50722,-0.004 -0.5278,-0.0131 -0.55307,-0.23191 -0.0144,-0.12497 0.0377,-0.35081 0.11578,-0.50187 0.1234,-0.23863 0.12589,-0.28655 0.0189,-0.36545 -0.35279,-0.2602 -0.41397,-0.77744 -0.12415,-1.04971 0.63309,-0.59476 1.07374,0.32523 0.62149,1.29757 l -0.19689,0.42334 h 0.40224 c 0.22124,0 0.43086,-0.0286 0.46584,-0.0635 0.035,-0.0349 0.13343,-0.0635 0.21881,-0.0635 0.22127,0 0.21445,0.47034 -0.008,0.58968 -0.19146,0.10247 -0.29335,0.11031 -0.37481,0.0289 z m -0.70692,-1.80395 c -0.0243,-0.0931 -0.0779,-0.16925 -0.11905,-0.16925 -0.0858,0 -0.10187,0.28337 -0.0206,0.36459 0.0982,0.0982 0.18478,-0.023 0.1397,-0.19534 z m -32.419672,1.65514 c -0.07017,-0.18287 0.0197,-0.27689 0.371173,-0.38831 0.595935,-0.18893 0.936253,-0.53765 0.549154,-0.56272 -0.08149,-0.005 -0.776817,-0.0496 -1.545167,-0.0984 -1.425073,-0.0906 -1.71241,-0.14112 -2.180736,-0.3833 -0.764968,-0.39558 -1.228017,-1.72277 -0.938365,-2.68954 0.05403,-0.18033 0.0798,-0.3463 0.05727,-0.36883 -0.02253,-0.0225 -0.81849,-0.0837 -1.768798,-0.13584 -2.065443,-0.11341 -2.522995,-0.22334 -2.907712,-0.69857 -0.256791,-0.31721 -0.263294,-0.34744 -0.291281,-1.35383 -0.02814,-1.01205 -0.02423,-1.03771 0.232833,-1.5248 0.143803,-0.27249 0.261459,-0.54824 0.261459,-0.61277 0,-0.16996 0.613594,-0.53137 1.372105,-0.80819 0.986536,-0.36004 2.366608,-0.58145 3.61687,-0.58027 1.198501,0.001 1.775075,0.1189 2.368616,0.4838 0.576653,0.35452 0.719977,0.821 0.696497,2.26686 -0.0098,0.60536 -0.04485,1.31021 -0.07781,1.56633 -0.06998,0.54369 -0.03804,0.95395 0.06912,0.88773 0.04136,-0.0256 0.05258,-0.10545 0.02492,-0.17752 -0.0395,-0.10293 0.0022,-0.12505 0.194198,-0.10312 0.195834,0.0224 0.249848,0.0746 0.271455,0.26264 0.04446,0.38691 -0.302376,0.47119 -2.063128,0.50134 l -1.51405,0.0259 -0.144595,0.46567 c -0.160528,0.51698 -0.132291,0.94112 0.09883,1.48453 0.354924,0.83449 1.230197,1.1652 2.969184,1.12186 l 0.96545,-0.024 -0.358912,-0.20557 c -0.353384,-0.20241 -0.50719,-0.43032 -0.403556,-0.598 0.09108,-0.14738 0.306578,-0.094 0.594812,0.14741 0.152918,0.12805 0.434172,0.3588 0.625011,0.51278 0.296457,0.23918 0.346978,0.3269 0.346978,0.60241 0,0.40857 -0.242508,0.72481 -0.657491,0.8574 -0.173897,0.0556 -0.35237,0.13453 -0.396609,0.17547 -0.125605,0.11624 -0.38556,0.0874 -0.437726,-0.0485 z m 1.16396,-0.53322 c 0.105314,-0.13429 0.10232,-0.13728 -0.03197,-0.032 -0.08149,0.0639 -0.148166,0.13058 -0.148166,0.14817 0,0.0697 0.06953,0.0248 0.180133,-0.1162 z m -0.0108,-0.74458 c 0,-0.01 -0.05715,-0.0653 -0.127,-0.12326 -0.102998,-0.0855 -0.127,-0.0821 -0.127,0.0179 0,0.0678 0.05715,0.12326 0.127,0.12326 0.06985,0 0.127,-0.008 0.127,-0.0179 z m -6.836833,-3.56599 c -0.05821,-0.0235 -0.153459,-0.0235 -0.211667,0 -0.05821,0.0235 -0.01058,0.0427 0.105833,0.0427 0.116417,0 0.164042,-0.0192 0.105834,-0.0427 z m 4.984054,-0.36727 c 0.07735,-0.383 0.241987,-2.23168 0.202282,-2.27138 -0.01669,-0.0167 -0.09344,0.0916 -0.17055,0.24077 -0.09258,0.17903 -0.130648,0.41893 -0.112077,0.70636 0.02469,0.38208 0.0074,0.43822 -0.141396,0.45956 -0.150019,0.0215 -0.19628,-0.0862 -0.402166,-0.93639 -0.315611,-1.30329 -0.310695,-2.00892 0.014,-2.00892 0.12141,0 0.143467,0.0892 0.141337,0.5715 -0.0014,0.31433 0.02715,0.68176 0.06342,0.81651 l 0.06594,0.24501 0.138768,-0.20267 c 0.07632,-0.11148 0.208251,-0.26489 0.293175,-0.34092 0.144724,-0.12957 0.14641,-0.16939 0.02688,-0.635 -0.07893,-0.30748 -0.206968,-0.56643 -0.336015,-0.67962 -1.065874,-0.93485 -4.62957,-0.73257 -6.623963,0.376 -0.302295,0.16803 -0.646565,0.99504 -0.71262,1.71186 -0.114166,1.23893 0.112415,1.74436 0.876957,1.9562 0.559674,0.15507 2.979351,0.30058 4.884337,0.29371 l 1.731854,-0.006 z m -6.021221,-0.48312 c -0.197447,-0.0722 -0.511908,-0.38246 -0.643045,-0.6345 -0.29383,-0.56474 -0.0142,-1.25304 0.509068,-1.25304 0.273545,0 0.55731,0.20816 0.55731,0.40883 0,0.12777 -0.275411,0.12856 -0.402811,0.001 -0.156496,-0.15649 -0.359189,0.0741 -0.359189,0.40857 0,0.19481 0.06812,0.35793 0.207818,0.49763 0.345064,0.34506 0.557336,0.254 0.699721,-0.30018 0.05307,-0.20658 0.130683,-0.30432 0.256213,-0.32268 0.152743,-0.0224 0.184587,0.0226 0.209797,0.29633 0.02819,0.3061 0.03282,0.31072 0.09009,0.0898 0.0332,-0.12805 0.08014,-0.32808 0.104311,-0.4445 0.0279,-0.13437 0.101587,-0.21166 0.201792,-0.21166 0.16074,0 0.258942,0.21494 0.261106,0.5715 7.93e-4,0.13159 0.05187,0.1905 0.165166,0.1905 0.137015,0 0.157253,-0.0453 0.122952,-0.27517 -0.05159,-0.34576 0.225296,-0.8255 0.476451,-0.8255 0.258097,0 0.304133,0.23573 0.08577,0.43916 -0.15128,0.14094 -0.176666,0.22792 -0.128359,0.43977 0.112759,0.49449 0.09464,0.60116 -0.106987,0.62979 -0.134372,0.0191 -0.1905,-0.016 -0.1905,-0.11895 0,-0.13573 -0.01195,-0.1352 -0.169677,0.007 -0.138209,0.12507 -0.207677,0.13624 -0.374571,0.0602 -0.162847,-0.0742 -0.226874,-0.0669 -0.312007,0.0357 -0.06548,0.0789 -0.190262,0.11316 -0.321055,0.0882 -0.13334,-0.0255 -0.291097,0.0198 -0.418734,0.12019 -0.209843,0.16516 -0.298824,0.18247 -0.520623,0.10139 z m -0.327867,-1.61238 c 0.105314,-0.13428 0.102319,-0.13728 -0.03197,-0.032 -0.08149,0.0639 -0.148167,0.13059 -0.148167,0.14817 0,0.0697 0.06953,0.0248 0.180133,-0.1162 z m 3.804947,1.21262 c -0.155982,-0.16603 -0.187185,-0.27997 -0.162315,-0.59266 0.01693,-0.21292 0.0033,-0.38712 -0.03034,-0.38712 -0.1194,0 -0.236423,0.3325 -0.236423,0.67176 0,0.28513 -0.02842,0.34424 -0.165496,0.34424 -0.414514,0 -0.229681,-1.2554 0.21464,-1.45784 0.236355,-0.1077 0.496811,0.0515 0.418438,0.25571 -0.03888,0.10131 -0.02439,0.10571 0.0754,0.0229 0.171214,-0.1421 0.469964,0.0262 0.482838,0.27205 0.0068,0.13039 0.02115,0.14482 0.047,0.0474 0.04128,-0.15563 0.368462,-0.26727 0.5637,-0.19235 0.06929,0.0266 0.164294,0.15038 0.211128,0.27509 0.287108,0.76452 0.297742,0.94641 0.05533,0.94641 -0.125685,0 -0.27404,-0.22743 -0.383365,-0.58772 l -0.06573,-0.21661 -0.0073,0.23493 c -0.0052,0.1664 -0.06662,0.25749 -0.21072,0.31228 -0.111893,0.0425 -0.228442,0.11779 -0.258997,0.16723 -0.09438,0.15272 -0.345496,0.0997 -0.547814,-0.11566 z m 0.465968,-0.33873 c 0.186054,-0.18606 0.152479,-0.32351 -0.04838,-0.19807 -0.09313,0.0582 -0.169334,0.15374 -0.169334,0.21239 0,0.13938 0.06852,0.13487 0.217714,-0.0143 z m 1.814285,-0.38705 c 0,-0.0931 -0.03453,-0.16934 -0.07674,-0.16934 -0.04221,0 -0.05681,0.0762 -0.03246,0.16934 0.02435,0.0931 0.05889,0.16933 0.07674,0.16933 0.01785,0 0.03246,-0.0762 0.03246,-0.16933 z m -3.196166,-3.18874 c -0.05821,-0.0235 -0.153459,-0.0235 -0.211667,0 -0.05821,0.0235 -0.01058,0.0427 0.105833,0.0427 0.116417,0 0.164042,-0.0192 0.105834,-0.0427 z m 39.484075,9.97529 c -0.0762,-0.12357 -0.21991,-1.08668 -0.21991,-1.47399 0,-0.38057 0.0152,-0.41151 0.1905,-0.38662 0.17042,0.0242 0.19638,0.0896 0.24622,0.61972 0.0306,0.32597 0.0824,0.73003 0.11492,0.89792 0.0514,0.26512 0.0358,0.31138 -0.11913,0.35188 -0.0981,0.0257 -0.19376,0.0216 -0.2126,-0.009 z m 0.77168,-0.35292 c -0.56464,-0.44414 -0.24458,-1.52297 0.45183,-1.52297 0.4411,0 0.78094,0.63875 0.59685,1.1218 -0.0843,0.22119 -0.53545,0.57054 -0.73768,0.57122 -0.0519,1.7e-4 -0.19188,-0.0763 -0.311,-0.17005 z m 0.60015,-0.35457 c 0.13963,-0.13963 0.12778,-0.53326 -0.0197,-0.65569 -0.0965,-0.08 -0.15723,-0.0648 -0.29634,0.0743 -0.26089,0.26089 -0.18591,0.68299 0.12134,0.68299 0.0512,0 0.13885,-0.0457 0.19473,-0.1016 z m 1.1176,0.31827 c 0,-0.27279 0.16639,-0.36635 0.30774,-0.17305 0.0832,0.11384 0.0882,0.18366 0.0191,0.26694 -0.15141,0.18244 -0.32686,0.13205 -0.32686,-0.0939 z m -34.033639,-0.24258 c -0.427951,-0.14712 -0.701023,-0.64843 -0.644812,-1.18378 0.0831,-0.79144 0.614794,-1.40852 1.268832,-1.4726 0.449744,-0.0441 0.762722,0.12057 0.797404,0.41945 0.0312,0.2689 -0.193873,0.32421 -0.365305,0.0898 -0.174329,-0.23841 -0.598004,-0.17688 -0.89066,0.12936 -0.457039,0.47825 -0.558024,1.08576 -0.246346,1.482 0.208772,0.26541 0.577618,0.29747 0.785065,0.0683 0.21321,-0.2356 0.168899,-0.39435 -0.135044,-0.48383 -0.190197,-0.056 -0.283571,-0.14022 -0.302384,-0.27275 -0.02486,-0.1751 0.0045,-0.19084 0.338666,-0.18138 0.201237,0.006 0.47066,-0.0172 0.598718,-0.051 0.183858,-0.0484 0.232833,-0.0323 0.232833,0.0767 0,0.0759 -0.04631,0.21217 -0.102906,0.3028 -0.08076,0.12932 -0.08076,0.22601 0,0.44936 0.17211,0.47596 0.140509,0.59758 -0.14066,0.54135 -0.148697,-0.0297 -0.30534,-0.002 -0.402167,0.0714 -0.191629,0.14511 -0.400921,0.14905 -0.791234,0.0149 z m 1.073516,-0.92557 c -0.02025,-0.10532 -0.03759,-0.0391 -0.03853,0.14718 -9.52e-4,0.18626 0.01563,0.27243 0.03682,0.19148 0.02119,-0.081 0.02196,-0.23334 0.0017,-0.33866 z m 2.953744,0.6401 c -0.07423,-0.21785 -0.134959,-0.50135 -0.134959,-0.63001 0,-0.12865 -0.03411,-0.255 -0.07579,-0.28076 -0.100019,-0.0618 -0.178205,0.15427 -0.178205,0.49251 0,0.28459 -0.125844,0.47567 -0.313267,0.47567 -0.06054,0 -0.110066,-0.0611 -0.110066,-0.13577 0,-0.10063 -0.07746,-0.0678 -0.29928,0.127 -0.441705,0.38782 -0.844294,0.32951 -1.096844,-0.15887 -0.205948,-0.39825 -0.163509,-0.79231 0.117759,-1.09341 0.1351,-0.14462 0.30655,-0.26295 0.381,-0.26295 0.174675,0 0.474031,0.29919 0.474031,0.47377 0,0.20645 -0.271938,0.62118 -0.442882,0.67544 -0.08373,0.0266 -0.130392,0.0837 -0.103683,0.12689 0.07494,0.12126 0.344527,0.093 0.461899,-0.0484 0.05797,-0.0699 0.176935,-0.127 0.264366,-0.127 0.134315,0 0.158967,-0.0657 0.158967,-0.42334 0,-0.34924 0.02634,-0.42333 0.150517,-0.42333 0.08278,0 0.213335,-0.0734 0.290111,-0.16303 0.165988,-0.19386 0.454248,-0.14796 0.58313,0.0929 0.04788,0.0895 0.124624,0.37998 0.170535,0.64559 0.04591,0.2656 0.10576,0.60673 0.133001,0.75808 0.04258,0.23659 0.02535,0.27516 -0.122924,0.27516 -0.129684,0 -0.205922,-0.0982 -0.307411,-0.39608 z m -1.708358,-0.84371 c 0.08066,-0.2102 -0.0082,-0.23891 -0.116053,-0.0375 -0.05201,0.0972 -0.05917,0.17659 -0.01592,0.17659 0.04322,0 0.10261,-0.0626 0.131972,-0.13912 z m 1.267267,-0.19198 c 0.0807,-0.10203 0.06793,-0.10291 -0.08759,-0.006 -0.110165,0.0686 -0.162536,0.16422 -0.132628,0.24215 0.0421,0.10972 0.05508,0.11062 0.08759,0.006 0.02099,-0.0675 0.08067,-0.17646 0.132628,-0.24215 z m 1.886577,1.29066 c -0.03104,-0.031 -0.05645,-0.14535 -0.05645,-0.254 0,-0.14213 0.04825,-0.19756 0.17199,-0.19756 0.213145,0 0.305749,0.21343 0.165782,0.38208 -0.113843,0.13717 -0.193869,0.15694 -0.281327,0.0695 z m 1.185333,0 c -0.122439,-0.12244 -0.04087,-0.3615 0.315048,-0.92341 0.457313,-0.72197 0.544113,-0.96748 0.342047,-0.96748 -0.202141,0 -0.368995,-0.24896 -0.372181,-0.55532 -0.0055,-0.53145 0.451895,-0.77579 0.800232,-0.42746 0.354699,0.3547 0.222714,1.12982 -0.335554,1.97063 l -0.305067,0.45947 0.253311,-0.131 c 0.13932,-0.0721 0.407603,-0.13099 0.596181,-0.13099 0.290268,0 0.342872,-0.0269 0.342872,-0.17522 0,-0.13329 0.04559,-0.16875 0.1905,-0.14817 0.138112,0.0196 0.224593,0.12568 0.314473,0.38568 0.168012,0.48602 0.08498,0.55109 -0.552033,0.43262 -0.459804,-0.0855 -0.540987,-0.0774 -0.861906,0.0863 -0.357637,0.18246 -0.624244,0.22798 -0.727923,0.1243 z m 0.845673,-2.541 c -0.0243,-0.0243 -0.08667,-0.0179 -0.138596,0.0142 -0.06777,0.0419 -0.06338,0.0958 0.01553,0.191 0.09905,0.11951 0.112783,0.11811 0.138596,-0.0142 0.01576,-0.0807 0.0088,-0.16669 -0.01553,-0.191 z m 14.608817,2.49584 c -0.14592,-0.14592 -0.12514,-0.40268 0.0376,-0.46515 0.15863,-0.0609 0.36876,0.17481 0.36876,0.4136 0,0.17546 -0.25069,0.20726 -0.4064,0.0515 z m -1.84086,-2.03623 c -0.34256,-0.3272 -0.49348,-0.65617 -0.30102,-0.65617 0.042,0 0.11448,-0.10931 0.16106,-0.2429 0.18314,-0.52537 0.92825,-0.91302 1.06583,-0.55451 0.13943,0.36335 0.0513,0.73515 -0.23916,1.0091 -0.21622,0.20393 -0.26603,0.29853 -0.19473,0.36983 0.27325,0.27325 1.07012,-0.20603 0.9535,-0.57348 -0.0665,-0.2094 0.24142,-0.77004 0.42288,-0.77004 0.0634,0 0.17063,0.079 0.23827,0.17557 0.10569,0.1509 0.14703,0.16053 0.29426,0.0686 0.21197,-0.13238 0.37481,-0.0184 0.61037,0.42714 0.0879,0.1663 0.16153,0.25608 0.16359,0.19951 0.007,-0.18775 0.33263,-0.29812 0.60241,-0.20407 0.1364,0.0476 0.24742,0.0599 0.2467,0.0274 -0.003,-0.12718 -0.13356,-0.22843 -0.29503,-0.22843 -0.21488,0 -0.2345,-0.36378 -0.0267,-0.49486 0.22604,-0.14259 0.55243,0.0862 0.7094,0.49719 0.2618,0.68552 0.0228,0.97419 -0.55786,0.6739 -0.14718,-0.0761 -0.28854,-0.11744 -0.31413,-0.0918 -0.09,0.09 0.16996,0.30462 0.36897,0.30462 0.26914,0 0.26241,0.22978 -0.0104,0.35407 -0.16047,0.0731 -0.25775,0.0717 -0.40217,-0.006 -0.10477,-0.0563 -0.29879,-0.16145 -0.43115,-0.23362 -0.13236,-0.0722 -0.30253,-0.27034 -0.37815,-0.44036 -0.1342,-0.3017 -0.1382,-0.30375 -0.1663,-0.0851 -0.034,0.26501 -0.3258,0.56244 -0.43853,0.44706 -0.0421,-0.0431 -0.0923,-0.21178 -0.11145,-0.37476 -0.0259,-0.22069 -0.0383,-0.18016 -0.0484,0.15875 l -0.0136,0.45508 -0.24662,-0.0493 c -0.16284,-0.0326 -0.2814,-0.007 -0.34903,0.0741 -0.0643,0.0775 -0.25743,0.1234 -0.51931,0.1234 -0.37493,0 -0.45483,-0.0362 -0.79363,-0.35983 z m 0.0917,-0.39654 c -0.0307,-0.0497 -0.0932,-0.0903 -0.13881,-0.0903 -0.0456,0 -0.0339,0.0533 0.0262,0.11846 0.12155,0.1319 0.19952,0.11241 0.11265,-0.0282 z m 2.24019,-0.17496 c 0,-0.0466 -0.0404,-0.0847 -0.0897,-0.0847 -0.0493,0 -0.0661,0.0381 -0.0373,0.0847 0.0288,0.0466 0.0691,0.0847 0.0897,0.0847 0.0205,0 0.0373,-0.0381 0.0373,-0.0847 z m -1.80339,-0.34252 c 0.0559,-0.11118 0.0812,-0.22247 0.0562,-0.24731 -0.0542,-0.0539 -0.36949,0.31892 -0.36949,0.43693 0,0.1453 0.2083,0.0192 0.31328,-0.18962 z m 2.18439,0.004 c -0.0288,-0.0466 -0.0977,-0.0841 -0.15316,-0.0834 -0.0606,8e-4 -0.0502,0.0341 0.0262,0.0834 0.16265,0.10512 0.19196,0.10512 0.127,0 z m 2.29157,0.8402 c -0.35958,-0.31572 -0.45894,-0.70866 -0.27106,-1.07199 0.17165,-0.33193 0.57567,-0.50499 0.868,-0.37179 0.28284,0.12886 0.23874,0.39042 -0.0667,0.39595 -0.24708,0.005 -0.49342,0.17101 -0.49342,0.33358 0,0.0579 0.079,0.2056 0.17547,0.3283 0.22484,0.28584 0.54784,0.28982 0.92519,0.0114 0.33194,-0.2449 0.55194,-0.26942 0.66145,-0.0737 0.0425,0.0759 0.11907,0.12349 0.17025,0.10583 0.0549,-0.0189 -0.01,-0.18477 -0.15766,-0.40469 -0.13789,-0.20491 -0.2507,-0.46075 -0.2507,-0.56852 0,-0.38728 0.77677,-0.52243 0.83058,-0.14452 0.0203,0.14236 -0.0225,0.19061 -0.18764,0.21167 l -0.2139,0.0273 0.25114,0.37257 c 0.30911,0.45856 0.31457,0.62359 0.0281,0.84895 -0.27825,0.21888 -0.3546,0.21907 -0.58622,0.002 -0.16738,-0.15724 -0.19789,-0.16135 -0.31659,-0.0427 -0.37526,0.37526 -0.96525,0.39291 -1.3662,0.0409 z m 1.78793,-1.36406 c -0.027,-0.0675 -0.0471,-0.0475 -0.0511,0.0512 -0.004,0.0892 0.0163,0.13926 0.0445,0.11112 0.0281,-0.0281 0.0311,-0.10115 0.007,-0.16227 z m 3.18067,1.14513 c -0.15901,-0.0642 -0.12734,-0.49713 0.0587,-0.80313 l 0.16458,-0.27064 -0.20692,-0.2459 c -0.1138,-0.13525 -0.20691,-0.35215 -0.20691,-0.482 0,-0.26456 0.28766,-0.68225 0.46986,-0.68225 0.40859,0 0.55501,1.16564 0.21814,1.73659 -0.10279,0.17421 -0.17292,0.33071 -0.15586,0.34777 0.0171,0.0171 0.21863,-0.0135 0.44794,-0.068 l 0.41692,-0.099 v -0.49903 c 0,-0.47732 0.0155,-0.51356 0.35655,-0.83165 0.37694,-0.35161 0.61359,-0.41387 0.78555,-0.20667 0.14848,0.1789 0.0386,0.41168 -0.16876,0.35746 -0.11559,-0.0302 -0.23351,0.0345 -0.37998,0.20855 -0.30778,0.36579 -0.28253,0.51423 0.076,0.44697 0.22666,-0.0425 0.32635,-0.0161 0.46567,0.12316 0.23136,0.23136 0.22375,0.39248 -0.0305,0.64678 -0.21152,0.21152 -0.57661,0.27146 -0.7983,0.13105 -0.0743,-0.0471 -0.24459,-0.0163 -0.46567,0.0841 -0.33057,0.15012 -0.81585,0.19922 -1.04704,0.10593 z m 2.0955,-0.63031 c 0,-0.0967 -0.2296,-0.0989 -0.28904,-0.003 -0.0248,0.0401 -0.0233,0.0946 0.003,0.12116 0.0661,0.0661 0.28575,-0.025 0.28575,-0.11841 z m -1.778,-1.13395 c 0,-0.0699 -0.0369,-0.127 -0.082,-0.127 -0.0451,0 -0.0601,0.0571 -0.0333,0.127 0.0268,0.0699 0.0637,0.127 0.082,0.127 0.0183,0 0.0333,-0.0572 0.0333,-0.127 z m 3.86594,1.3335 c -0.0213,-0.0349 -0.0663,-0.32239 -0.0999,-0.63882 -0.057,-0.5355 -0.0712,-0.56627 -0.20578,-0.4445 -0.17796,0.16105 -0.42756,0.17097 -0.42756,0.017 0,-0.0626 0.094,-0.22327 0.20897,-0.35703 0.11494,-0.13375 0.23274,-0.35142 0.2618,-0.4837 0.0408,-0.18587 0.0943,-0.23459 0.23553,-0.21447 0.16333,0.0233 0.18911,0.0967 0.24313,0.6928 0.0332,0.36672 0.10095,0.78953 0.15047,0.93958 0.0495,0.15004 0.0659,0.33577 0.0363,0.41273 -0.0542,0.14126 -0.33139,0.19383 -0.40296,0.0764 z m 0.0274,-1.60863 c -0.001,-0.16944 -0.0219,-0.20035 -0.0768,-0.11351 -0.0415,0.0656 -0.0559,0.17041 -0.032,0.23284 0.0687,0.17903 0.11022,0.13351 0.10882,-0.11933 z m -1.57665,1.46075 c -0.0293,-0.0762 -0.0141,-0.17774 0.0337,-0.22554 0.13801,-0.13802 0.40123,-0.045 0.40123,0.14179 0,0.21536 -0.358,0.2843 -0.43495,0.0837 z M 82.961492,142.023 c -0.08133,-0.21195 0.03403,-0.39678 0.230176,-0.36879 0.128423,0.0183 0.179724,0.0861 0.179724,0.23731 0,0.24669 -0.32561,0.35113 -0.4099,0.13148 z m -0.294871,-1.79694 c 0.01992,-0.17395 0.0738,-0.23954 0.196771,-0.23954 0.260575,0 0.235401,0.41397 -0.02744,0.45121 -0.171105,0.0242 -0.193192,-0.003 -0.169333,-0.21167 z m 21.083239,0.11857 c -0.0553,-0.0666 -0.0743,-0.24406 -0.0454,-0.42245 0.0275,-0.1692 0.0229,-0.5595 -0.01,-0.86734 -0.0521,-0.48668 -0.0866,-0.56983 -0.26434,-0.63741 -0.2422,-0.0921 -0.28572,-0.42058 -0.0557,-0.42058 0.12517,0 0.15113,-0.0881 0.16417,-0.5573 0.0165,-0.59193 0.18002,-0.9667 0.42195,-0.9667 0.1948,0 0.70454,0.40599 0.70454,0.56114 0,0.082 0.0801,0.034 0.21919,-0.13131 0.31259,-0.3715 0.71214,-0.3126 0.71214,0.10498 0,0.12095 -0.0434,0.15093 -0.17044,0.1177 -0.21235,-0.0555 -0.33756,0.15575 -0.33756,0.56959 0,0.24546 0.0317,0.3019 0.16933,0.3019 0.0941,0 0.16934,0.0564 0.16934,0.127 0,0.10281 0.0295,0.0975 0.15463,-0.0276 0.085,-0.085 0.18065,-0.22244 0.21245,-0.30531 0.0718,-0.18724 0.43805,-0.11974 0.68932,0.12705 0.37587,0.36916 0.0724,1.26423 -0.42864,1.26423 -0.22298,0 -0.62776,-0.44473 -0.62776,-0.68972 0,-0.12654 -0.0476,-0.16196 -0.1905,-0.14167 -0.21634,0.0307 -0.22137,0.096 -0.10551,1.36816 l 0.0682,0.74844 -0.20358,-0.0288 c -0.19501,-0.0276 -0.20714,-0.0684 -0.28824,-0.97003 -0.0788,-0.87631 -0.0952,-0.93474 -0.23779,-0.84667 -0.12286,0.0759 -0.17708,0.0624 -0.2743,-0.0686 -0.1886,-0.25396 -0.22421,-0.11557 -0.12171,0.47306 0.12672,0.72764 0.0837,1.37383 -0.0937,1.40746 -0.0741,0.014 -0.17766,-0.0261 -0.23007,-0.0893 z m 0.21187,-0.71633 c -0.0215,-0.0824 -0.0404,-0.0355 -0.0422,0.10422 -0.002,0.1397 0.0159,0.2071 0.039,0.14978 0.0232,-0.0573 0.0246,-0.17162 0.003,-0.254 z m 2.27264,-0.95892 c 0.0864,-0.13975 -0.0316,-0.48993 -0.19448,-0.57704 -0.12589,-0.0674 -0.14595,-0.0402 -0.13878,0.18806 0.005,0.14673 0.0141,0.31441 0.0212,0.37262 0.0156,0.12879 0.23548,0.14032 0.31209,0.0163 z m -1.56931,-0.79953 c 0,-0.11641 -0.0667,-0.28423 -0.14817,-0.37293 -0.0815,-0.0887 -0.22156,-0.26671 -0.31128,-0.39557 -0.15125,-0.21727 -0.16775,-0.22248 -0.22688,-0.0716 -0.0351,0.0895 -0.0665,0.34092 -0.0697,0.5587 -0.006,0.42279 0.0369,0.4627 0.52322,0.48322 0.19453,0.008 0.23283,-0.025 0.23283,-0.20185 z m 5.26558,2.0955 c -0.0409,-0.0815 -0.16322,-0.52452 -0.2718,-0.98451 -0.1804,-0.76425 -0.18702,-0.86643 -0.0768,-1.18533 0.0972,-0.28118 0.16588,-0.35419 0.35344,-0.37577 0.18575,-0.0214 0.24991,0.0182 0.3175,0.19601 0.0946,0.24885 0.0994,0.98786 0.009,1.31244 -0.0326,0.11641 -0.0228,0.37193 0.0219,0.56782 0.0603,0.2649 0.0533,0.38963 -0.0273,0.48683 -0.1412,0.17014 -0.23378,0.16517 -0.32547,-0.0175 z m 0.002,-1.05257 c -0.053,-0.053 -0.0648,0.003 -0.0333,0.15716 0.0361,0.1772 0.0574,0.19849 0.0821,0.0821 0.0183,-0.0864 -0.004,-0.19411 -0.0488,-0.23926 z m 0.0402,-0.72381 c -0.0215,-0.0824 -0.0404,-0.0355 -0.0422,0.10422 -0.002,0.1397 0.0159,0.2071 0.039,0.14978 0.0232,-0.0573 0.0246,-0.17163 0.003,-0.254 z m -27.540427,1.47009 c -0.08517,-0.22196 0.0019,-0.43454 0.17791,-0.43454 0.130244,0 0.168173,0.057 0.168173,0.25284 0,0.27701 -0.25761,0.41226 -0.346083,0.1817 z m 18.533937,-0.13805 c -0.44564,-0.12309 -0.70417,-0.49827 -0.70417,-1.02187 0,-0.49084 0.22687,-0.74974 0.53425,-0.60968 l 0.1949,0.0888 -0.12576,-0.48273 c -0.1312,-0.50392 -0.0968,-0.76868 0.10003,-0.76868 0.0751,0 0.18209,0.2611 0.30333,0.7399 0.10304,0.40694 0.24254,0.77078 0.31001,0.80854 0.0703,0.0394 0.12267,0.19393 0.12267,0.36238 0,0.27105 0.0164,0.28964 0.21166,0.24062 0.18138,-0.0455 0.21128,-0.0246 0.20898,0.14655 -0.004,0.3262 -0.1806,0.47334 -0.60746,0.50729 -0.21698,0.0172 -0.46374,0.0122 -0.54835,-0.0111 z m 0.42656,-0.44466 c -0.12775,-0.2093 -0.65163,-0.74083 -0.73018,-0.74083 -0.12767,0 0.0173,0.44637 0.21315,0.65617 0.18941,0.20292 0.6336,0.27566 0.51703,0.0847 z m -0.0429,-0.66589 c -0.18881,-0.11966 -0.26241,-0.0841 -0.12021,0.0581 0.0732,0.0732 0.13747,0.17795 0.14287,0.23284 0.005,0.0549 0.0282,0.0281 0.0507,-0.0594 0.0225,-0.0876 -0.0105,-0.19175 -0.0733,-0.23154 z m 1.38896,0.83805 c -0.0487,-0.0598 -0.13835,-0.2761 -0.19912,-0.48076 -0.0608,-0.20465 -0.12503,-0.32848 -0.1428,-0.27516 -0.0587,0.17603 -0.35687,0.11089 -0.35687,-0.078 0,-0.29443 0.16094,-0.50244 0.38874,-0.50244 0.1712,0 0.24643,0.0745 0.38005,0.37662 0.2759,0.62373 0.22501,1.32137 -0.07,0.9597 z m 4.50349,-0.27331 c -0.0746,-0.11385 -0.12356,-0.29905 -0.10881,-0.41156 0.0147,-0.11252 -0.0267,-0.26905 -0.0921,-0.34786 -0.15391,-0.18544 -0.15327,-0.63541 0.001,-0.73308 0.066,-0.0418 0.24642,-0.0765 0.401,-0.0772 0.24333,-10e-4 0.27742,0.0243 0.254,0.18921 -0.0177,0.12498 -0.0853,0.19053 -0.19639,0.19061 -0.0931,6e-5 -0.15877,0.0282 -0.14585,0.0626 0.0129,0.0344 0.0456,0.12005 0.0726,0.19039 0.0826,0.21517 0.18485,0.14486 0.35769,-0.24587 0.0909,-0.20557 0.24656,-0.41723 0.34583,-0.47036 0.26019,-0.13925 0.51277,-0.0334 0.51277,0.21482 0,0.16325 0.0439,0.20596 0.21167,0.20596 0.32141,0 0.55033,0.28094 0.55033,0.67538 0,0.25649 -0.0454,0.36587 -0.1905,0.45907 -0.27318,0.17546 -0.93815,0.25652 -1.15449,0.14074 -0.14611,-0.0782 -0.17901,-0.0719 -0.17901,0.0342 0,0.22268 -0.48132,0.16474 -0.63972,-0.077 z m 1.778,-0.4627 c 0.0888,-0.14364 -0.048,-0.32855 -0.27613,-0.37335 -0.3022,-0.0593 -0.38153,0.0349 -0.22156,0.26332 0.13276,0.18955 0.41058,0.25097 0.49769,0.11003 z m 1.88962,0.45448 c -0.26066,-0.14368 -0.48806,-0.52505 -0.48758,-0.81775 1.7e-4,-0.10709 0.0772,-0.32088 0.17126,-0.4751 0.14489,-0.23764 0.21261,-0.27636 0.44419,-0.254 0.2396,0.0231 0.27649,0.0601 0.2997,0.30069 0.0201,0.20874 -0.0272,0.32405 -0.19818,0.48249 -0.12356,0.11451 -0.19989,0.24825 -0.16964,0.2972 0.0845,0.13664 0.55127,0.10742 0.60707,-0.038 0.0705,-0.1837 0.36928,-0.16139 0.36928,0.0276 0,0.197 -0.3181,0.49618 -0.59266,0.55742 -0.11741,0.0262 -0.31488,-0.01 -0.44344,-0.0805 z m 4.26523,0.0554 c -0.0634,-0.0404 -0.18378,-0.0555 -0.26758,-0.0335 -0.13112,0.0343 -0.16057,-0.0367 -0.21113,-0.50878 -0.0771,-0.71993 -0.0136,-0.96838 0.39225,-1.53516 0.25408,-0.35483 0.39003,-0.472 0.54765,-0.472 0.34344,0 0.34886,0.23647 0.0118,0.51431 -0.16514,0.13612 -0.37987,0.41196 -0.47718,0.61299 -0.2034,0.42016 -0.23311,0.63071 -0.0711,0.50396 0.22327,-0.17469 0.49732,-0.18144 0.66245,-0.0163 0.0897,0.0897 0.16305,0.22209 0.16305,0.29426 0,0.17753 -0.23994,0.63079 -0.33392,0.63079 -0.0416,0 -0.12631,0.0187 -0.18833,0.0414 -0.062,0.0228 -0.1646,0.008 -0.22796,-0.032 z m 0.311,-0.5122 c 0.0212,-0.0635 -0.0106,-0.0953 -0.0741,-0.0741 -0.0611,0.0204 -0.12779,0.0871 -0.14817,0.14817 -0.0212,0.0635 0.0106,0.0952 0.0741,0.0741 0.0611,-0.0204 0.1278,-0.0871 0.14817,-0.14817 z m -0.22733,-0.23812 c 0.10532,-0.13429 0.10232,-0.13729 -0.032,-0.032 -0.0815,0.0639 -0.14816,0.13058 -0.14816,0.14816 0,0.0697 0.0695,0.0248 0.18013,-0.1162 z m -1.7888,0.68125 c -0.22449,-0.0817 -0.59266,-0.47529 -0.59266,-0.6336 0,-0.097 0.0623,-0.15349 0.16933,-0.15349 0.0931,0 0.16933,0.0371 0.16933,0.0825 0,0.13026 0.51613,0.36659 0.60547,0.27724 0.0429,-0.0429 0.10138,-0.22199 0.12993,-0.39796 0.0504,-0.31061 0.0464,-0.31698 -0.13795,-0.21832 -0.29422,0.15745 -0.59138,0.0378 -0.73003,-0.29408 -0.17901,-0.42842 -0.14953,-0.67136 0.11592,-0.95553 0.20641,-0.22096 0.29189,-0.25246 0.65616,-0.24178 l 0.41884,0.0123 0.0624,0.67733 c 0.0643,0.69785 0.0194,1.33439 -0.11129,1.57859 -0.0557,0.10406 -0.56191,0.36515 -0.61989,0.31973 -0.005,-0.004 -0.0657,-0.0275 -0.13554,-0.0529 z m 0.29485,-1.65492 c 0.10155,-0.23832 0.10032,-0.29217 -0.009,-0.40217 -0.11242,-0.11286 -0.14007,-0.1087 -0.24833,0.0374 -0.12718,0.17156 -0.16246,0.48647 -0.0654,0.58354 0.11398,0.11399 0.20847,0.05 0.32298,-0.21872 z m -0.57559,-0.16405 c -0.027,-0.0675 -0.0471,-0.0475 -0.0512,0.0512 -0.004,0.0892 0.0163,0.13926 0.0445,0.11113 0.0281,-0.0281 0.0311,-0.10116 0.007,-0.16228 z m 0.95817,0.0159 c 0,-0.0931 -0.0146,-0.16933 -0.0325,-0.16933 -0.0179,0 -0.0524,0.0762 -0.0767,0.16933 -0.0244,0.0931 -0.01,0.16934 0.0325,0.16934 0.0422,0 0.0767,-0.0762 0.0767,-0.16934 z m -31.919338,1.06922 c 0,-0.24631 0.09635,-0.32991 0.293169,-0.25438 0.205997,0.0791 0.129472,0.40692 -0.102669,0.43988 -0.154154,0.0219 -0.1905,-0.0135 -0.1905,-0.1855 z m 20.176868,-0.69973 c -0.0647,-0.16848 0.0754,-0.41182 0.23703,-0.41182 0.071,0 0.12831,0.10932 0.1443,0.27517 0.0223,0.23131 -0.002,0.27516 -0.15082,0.27516 -0.0975,0 -0.20128,-0.0623 -0.23051,-0.13851 z m -20.436758,-0.92692 c -0.08068,-0.0972 -0.08685,-0.1729 -0.02246,-0.27516 0.144268,-0.22911 0.35459,-0.22006 0.414294,0.0178 0.09232,0.36785 -0.161675,0.53466 -0.391836,0.25734 z m -0.04386,-1.59036 c -0.08517,-0.22196 0.0019,-0.43454 0.17791,-0.43454 0.130243,0 0.168173,0.057 0.168173,0.25284 0,0.27701 -0.25761,0.41225 -0.346083,0.1817 z m 19.332588,-0.61009 c -0.33235,-0.21764 -0.42271,-0.46136 -0.16934,-0.45676 0.0815,0.002 0.22213,0.0586 0.31252,0.127 0.24195,0.183 0.45272,0.15238 0.68636,-0.0997 0.14861,-0.16035 0.20762,-0.32051 0.20762,-0.56346 0,-0.33191 -0.004,-0.33609 -0.16618,-0.18903 -0.21966,0.19879 -0.3839,0.12292 -0.58054,-0.26819 -0.23804,-0.47342 -0.30022,-0.9102 -0.14762,-1.03685 0.16328,-0.13552 0.30168,-0.044 0.30168,0.19959 0,0.2845 0.17363,0.73464 0.26224,0.67987 0.042,-0.026 0.0764,-0.25718 0.0764,-0.51378 0,-0.43186 0.0138,-0.46455 0.18544,-0.43951 0.15764,0.023 0.20801,0.12859 0.33602,0.70439 0.19487,0.87648 0.19271,1.20856 -0.01,1.54106 -0.17364,0.28478 -0.56694,0.53672 -0.82472,0.52829 -0.0838,-0.003 -0.29524,-0.0985 -0.46987,-0.2129 z m -1.03016,-0.0573 c -0.0165,-0.0582 -0.0767,-0.27728 -0.1337,-0.48683 -0.057,-0.20955 -0.145351,-0.4071 -0.19627,-0.439 -0.05092,-0.0319 -0.103976,-0.34566 -0.117909,-0.69723 -0.03148,-0.79424 0.08655,-0.98044 0.621489,-0.98044 0.2921,0 0.39333,0.046 0.57388,0.26053 0.12057,0.14328 0.24339,0.35686 0.27294,0.4746 0.0828,0.33001 -0.17169,0.77603 -0.52773,0.92479 -0.2329,0.0973 -0.28889,0.15983 -0.24225,0.27049 0.0334,0.0792 0.0793,0.22987 0.10206,0.33491 0.0634,0.29238 -0.27378,0.61585 -0.35251,0.33818 z m 0.47982,-1.40182 c 0.20886,-0.17938 0.18399,-0.46118 -0.061,-0.69135 -0.17353,-0.16302 -0.23125,-0.1782 -0.33866,-0.0891 -0.13835,0.11482 -0.16093,0.33168 -0.0778,0.74724 0.0552,0.27608 0.18422,0.28504 0.47749,0.0332 z m 0.37534,-0.37089 c -0.027,-0.0675 -0.0471,-0.0475 -0.0512,0.0512 -0.004,0.0892 0.0163,0.13926 0.0445,0.11113 0.0281,-0.0281 0.0311,-0.10116 0.007,-0.16228 z m -19.428513,0.84667 c -0.18553,-0.18553 -0.123093,-0.40746 0.114632,-0.40746 0.185762,0 0.213403,0.0328 0.1905,0.2263 -0.03052,0.2578 -0.154741,0.33155 -0.305132,0.18116 z m 22.767323,-0.18377 c -0.0525,-0.0632 -0.15788,-0.36804 -0.23421,-0.67734 -0.0861,-0.34873 -0.18239,-0.56235 -0.2536,-0.56235 -0.13824,0 -0.14493,0.18455 -0.0226,0.62493 0.0753,0.2712 0.0679,0.35191 -0.0422,0.46204 -0.20084,0.20084 -0.2825,0.0579 -0.47789,-0.83673 -0.27821,-1.27373 -0.28284,-1.31997 -0.13766,-1.37568 0.16902,-0.0649 0.27627,0.0783 0.3451,0.46076 0.0459,0.2552 0.0849,0.30134 0.22363,0.26505 0.0924,-0.0242 0.18666,-0.13463 0.20943,-0.24549 0.0228,-0.11085 0.0612,-0.2968 0.0854,-0.41321 0.10122,-0.48751 0.88739,-0.0949 0.88739,0.44311 0,0.12398 -0.10616,0.30778 -0.26165,0.45303 -0.23576,0.22024 -0.25597,0.27804 -0.20422,0.58431 0.0316,0.18693 0.0846,0.33988 0.11777,0.33988 0.0332,0 0.14489,-0.174 0.24822,-0.38667 0.25134,-0.51733 0.49758,-0.49988 0.67716,0.048 0.0687,0.20955 0.17645,0.41147 0.23947,0.44871 0.16883,0.0998 0.13932,0.29402 -0.054,0.35538 -0.22036,0.0699 -0.33268,-0.007 -0.4624,-0.31512 l -0.10626,-0.25271 -0.18343,0.2968 c -0.15137,0.24494 -0.33344,0.39827 -0.47289,0.39827 -0.0138,0 -0.068,-0.0517 -0.12047,-0.11498 z m 0.15935,-1.82736 c 0,-0.0904 -0.0381,-0.18788 -0.0847,-0.21666 -0.048,-0.0297 -0.0847,0.0414 -0.0847,0.16433 0,0.11917 0.0381,0.21667 0.0847,0.21667 0.0466,0 0.0847,-0.0739 0.0847,-0.16434 z m 1.49523,1.48549 c -0.22205,-0.33889 -0.25729,-0.6246 -0.10561,-0.8561 0.15933,-0.24317 0.44437,-0.27401 0.80566,-0.0872 0.36759,0.19008 0.45989,0.60536 0.21292,0.95795 -0.19115,0.27292 -0.73021,0.26426 -0.91297,-0.0147 z m 0.62144,-0.39184 c 0,-0.16628 -0.27482,-0.37227 -0.36987,-0.27722 -0.0925,0.0925 -0.0585,0.26214 0.0804,0.40097 0.15826,0.15825 0.28951,0.10215 0.28951,-0.12375 z m 1.75492,0.41923 c -0.0825,-0.049 -0.20129,-0.21055 -0.26389,-0.35898 l -0.11381,-0.2699 -0.0798,0.29634 c -0.0562,0.20866 -0.13466,0.30434 -0.26528,0.32339 -0.15888,0.0232 -0.18566,-0.0133 -0.18665,-0.254 -7.9e-4,-0.15459 -0.0239,-0.36611 -0.0518,-0.47005 -0.04,-0.14925 -0.004,-0.20667 0.17049,-0.27307 0.12163,-0.0462 0.22115,-0.12313 0.22115,-0.17084 0,-0.0477 0.0959,-0.0868 0.21303,-0.0868 0.21381,0 0.25051,0.0534 0.53821,0.78316 0.0505,0.12806 0.15256,0.23284 0.22682,0.23284 0.19726,0 0.11433,0.29201 -0.0899,0.31665 -0.0927,0.0112 -0.236,-0.0198 -0.31855,-0.0688 z m -0.63685,-0.4974 c 0.0201,-0.13725 0.005,-0.23025 -0.0327,-0.20668 -0.0679,0.042 -0.10114,0.4562 -0.0366,0.4562 0.018,0 0.0492,-0.11228 0.0694,-0.24952 z m 3.05613,0.27633 c -0.33562,-0.17364 -0.6182,-0.45581 -0.6182,-0.6173 0,-0.18285 0.16631,-0.34084 0.3588,-0.34084 0.11659,0 0.1495,0.0539 0.13124,0.21505 -0.0179,0.15764 0.0369,0.25272 0.20505,0.35621 0.30331,0.18662 0.66686,0.0671 0.78071,-0.2566 0.1184,-0.33665 -0.0914,-0.51718 -0.60698,-0.52231 -0.34091,-0.003 -0.40315,-0.0293 -0.40315,-0.16797 0,-0.11254 0.0829,-0.18544 0.26451,-0.23249 0.14549,-0.0377 0.31171,-0.1254 0.36937,-0.19488 0.15836,-0.19081 -0.11139,-0.26241 -0.35246,-0.0936 -0.24826,0.17388 -0.37663,0.17019 -0.44688,-0.0129 -0.0729,-0.1899 0.20575,-0.42131 0.5952,-0.49437 0.51662,-0.0969 0.88608,0.32231 0.63444,0.71989 -0.0537,0.0848 -0.0177,0.16647 0.1218,0.2762 0.37031,0.2913 0.3321,0.90794 -0.0773,1.24774 -0.23442,0.19455 -0.69775,0.25178 -0.95612,0.1181 z m 5.37197,-0.11825 c -0.17179,-0.10006 -0.20074,-0.41656 -0.0381,-0.41656 0.0605,0 0.15294,0.0429 0.20534,0.0953 0.22484,0.22484 1.03926,-0.18898 1.03926,-0.52807 0,-0.14892 -0.45856,-0.36232 -0.91026,-0.42362 -0.25842,-0.0351 -0.50263,-0.11389 -0.54269,-0.17517 -0.0401,-0.0613 -0.0629,-0.28286 -0.0508,-0.49241 l 0.0221,-0.381 0.57791,-0.0252 c 0.56042,-0.0244 0.57708,-0.0193 0.55034,0.16933 -0.0219,0.15435 -0.0937,0.20326 -0.34789,0.23685 -0.42931,0.0567 -0.41364,0.19732 0.0305,0.27313 0.19802,0.0338 0.50616,0.15817 0.68477,0.27637 0.27438,0.18157 0.32475,0.26115 0.32475,0.51301 0,0.56398 -0.45364,0.97189 -1.07529,0.96692 -0.17694,-10e-4 -0.38838,-0.0414 -0.46988,-0.0889 z m -0.0428,-1.89822 c 0.0222,-0.11642 0.008,-0.21167 -0.0325,-0.21167 -0.0401,0 -0.0729,0.0952 -0.0729,0.21167 0,0.11641 0.0146,0.21166 0.0325,0.21166 0.0179,0 0.0507,-0.0952 0.0729,-0.21166 z m -2.70889,1.52262 c -0.11572,-0.22944 -0.1905,-0.53157 -0.1905,-0.76963 0,-0.34236 0.0416,-0.43347 0.3287,-0.72062 0.44066,-0.44065 1.02597,-0.45395 1.02597,-0.0233 0,0.21256 -0.15547,0.26728 -0.31269,0.11006 -0.23019,-0.2302 -0.78302,0.47004 -0.6649,0.8422 0.0515,0.16221 0.0643,0.16344 0.29934,0.0285 0.23382,-0.13419 0.25689,-0.13249 0.48306,0.0356 0.28983,0.21546 0.36344,0.60897 0.14393,0.76948 -0.0827,0.0605 -0.32414,0.10896 -0.53643,0.10769 -0.37127,-0.002 -0.39324,-0.0167 -0.57648,-0.38006 z m 0.80927,-0.0473 c -0.0167,-0.0501 -0.0665,-0.091 -0.11077,-0.091 -0.0442,0 -0.0941,0.041 -0.11077,0.091 -0.0167,0.0501 0.0332,0.091 0.11077,0.091 0.0776,0 0.12746,-0.041 0.11077,-0.091 z m -1.6771,0.19262 c 0,-0.19506 0.16053,-0.3556 0.3556,-0.3556 0.17474,0 0.20612,0.25107 0.0508,0.4064 -0.15533,0.15533 -0.4064,0.12394 -0.4064,-0.0508 z m 2.87866,-0.31327 c 0,-0.236 0.17486,-0.28205 0.33559,-0.0884 0.12805,0.15429 0.0449,0.30004 -0.17125,0.30004 -0.11885,0 -0.16434,-0.0586 -0.16434,-0.21166 z m -34.162758,-0.80358 c -0.06831,-0.21522 0.0091,-0.33943 0.211426,-0.33943 0.08764,0 0.183098,0.0384 0.212135,0.0854 0.09108,0.14738 -0.04707,0.42258 -0.212135,0.42258 -0.08686,0 -0.181999,-0.0759 -0.211426,-0.16858 z m 23.918058,-1.00377 c -0.21644,-0.21644 -0.24518,-0.22507 -0.28189,-0.0847 -0.0225,0.086 -0.0973,0.15635 -0.16626,0.15635 -0.0886,0 -0.18022,-0.23413 -0.31258,-0.79908 -0.18476,-0.7886 -0.18995,-0.79803 -0.3961,-0.71965 -0.13768,0.0523 -0.26782,0.0479 -0.38177,-0.0131 -0.12502,-0.0669 -0.19848,-0.0669 -0.26539,-1e-5 -0.16041,0.16041 -0.47118,0.10302 -0.61283,-0.11317 -0.18996,-0.28991 -0.13485,-0.76799 0.0885,-0.76799 0.12915,0 0.17562,0.0653 0.19586,0.27516 0.0277,0.28699 0.1779,0.38489 0.1949,0.127 0.005,-0.0815 0.0186,-0.18626 0.0294,-0.23283 0.0108,-0.0466 0.0255,-0.15134 0.0326,-0.23283 0.007,-0.0843 0.0819,-0.14817 0.17281,-0.14817 0.11773,0 0.17561,0.0837 0.21943,0.3173 0.0594,0.3164 0.1609,0.44095 0.36149,0.4434 0.069,8e-4 0.10584,-0.12999 0.10584,-0.3764 0,-0.38251 0.22525,-0.72297 0.47833,-0.72297 0.43548,0 0.63383,1.01338 0.31793,1.62427 -0.18056,0.34917 -0.15158,0.6519 0.0716,0.74774 0.10477,0.045 0.29665,0.16683 0.42638,0.27072 0.18339,0.14685 0.26818,0.1688 0.381,0.0986 0.27262,-0.16955 0.52612,-0.63976 0.52612,-0.97589 0,-0.31125 -0.0126,-0.3262 -0.27517,-0.32744 -0.32258,-0.002 -0.42653,-0.0593 -0.55882,-0.31064 -0.24112,-0.45808 2.6e-4,-0.98488 0.43158,-0.94165 0.35186,0.0353 0.54669,0.32645 0.69552,1.03952 0.15927,0.76304 0.0609,1.19831 -0.36423,1.61121 -0.3952,0.38386 -0.76715,0.40228 -1.11425,0.0552 z m -0.45971,-2.17853 c -0.10085,-0.40182 -0.23891,-0.10676 -0.16665,0.35616 l 0.0644,0.41238 0.08,-0.26946 c 0.044,-0.1482 0.054,-0.37279 0.0223,-0.49908 z m 1.3602,-0.0788 c -0.0289,-0.0754 -0.091,-0.11333 -0.13785,-0.0843 -0.0986,0.0609 -0.11478,0.40831 -0.0233,0.49975 0.0899,0.0899 0.22322,-0.25372 0.16118,-0.41541 z m -6.422825,1.94305 c -0.244398,-0.13263 -0.404294,-0.36286 -0.404294,-0.58213 0,-0.18606 0.230447,-0.16543 0.335037,0.03 0.04785,0.0894 0.223027,0.20745 0.389282,0.26232 0.26214,0.0865 0.32513,0.0791 0.47416,-0.0558 0.0945,-0.0856 0.2111,-0.23216 0.25906,-0.32582 0.0716,-0.13987 0.0672,-0.15138 -0.0248,-0.0645 -0.1918,0.1813 -0.64209,0.12682 -0.874749,-0.10585 -0.494205,-0.4942 -0.318408,-1.56631 0.256829,-1.56631 0.10777,0 0.34373,0.077 0.52437,0.17118 0.33186,0.17298 0.41106,0.32395 0.56521,1.07736 0.12803,0.62579 -0.36953,1.29448 -0.95842,1.28807 -0.17105,-0.002 -0.414823,-0.0597 -0.541709,-0.12859 z m 0.917175,-1.11686 c 0.0619,-0.0815 0.11369,-0.23421 0.11517,-0.33938 0.002,-0.17087 -0.0156,-0.17988 -0.16922,-0.0847 -0.14083,0.0873 -0.18535,0.085 -0.24617,-0.0128 -0.0408,-0.0656 -0.0591,-0.16088 -0.0406,-0.21167 0.0185,-0.0508 -0.004,-0.14949 -0.0502,-0.21934 -0.0745,-0.11289 -0.093,-0.11289 -0.16715,0 -0.209198,0.31868 0.005,1.016 0.31167,1.016 0.0737,0 0.18465,-0.0667 0.24651,-0.14817 z m -19.567606,0.99408 c -0.07831,-0.12671 0.03732,-0.42258 0.165139,-0.42258 0.166128,0 0.311104,0.21381 0.251064,0.37027 -0.05837,0.1521 -0.333181,0.18664 -0.416203,0.0523 z m 20.506836,-0.81476 c -0.10979,-0.1098 -0.0606,-0.88382 0.0725,-1.14127 0.20416,-0.3948 0.45373,-0.30448 0.728,0.26345 0.12369,0.25612 0.26657,0.51169 0.3175,0.56793 0.14455,0.15961 0.10889,0.36341 -0.0636,0.36341 -0.19912,0 -0.40501,-0.22756 -0.54123,-0.59817 l -0.10689,-0.29083 -0.0423,0.42259 c -0.0292,0.29104 -0.0832,0.43033 -0.17346,0.44743 -0.0721,0.0137 -0.15785,-0.002 -0.1905,-0.0345 z m 0.49097,-1.13182 c -0.0288,-0.0466 -0.0977,-0.0841 -0.15317,-0.0834 -0.0606,8e-4 -0.0502,0.0341 0.0262,0.0834 0.16266,0.10512 0.19197,0.10512 0.127,0 z m -21.024394,0.8255 c 0.01739,-0.12242 0.09513,-0.20016 0.217556,-0.21755 0.15515,-0.022 0.1905,0.0133 0.1905,0.1905 0,0.17718 -0.04037,0.21755 -0.217556,0.21755 -0.177185,0 -0.212534,-0.0353 -0.1905,-0.1905 z m 28.800954,-0.10857 c -0.031,-0.0807 -0.006,-0.22737 0.0564,-0.32597 0.062,-0.0986 0.18473,-0.30087 0.27279,-0.44948 l 0.16011,-0.27018 -0.24917,-0.12885 c -0.40833,-0.21116 -0.48229,-0.66273 -0.15839,-0.96702 0.26491,-0.24887 0.59573,-0.23828 0.76797,0.0246 0.20433,0.31185 0.16865,0.80507 -0.0961,1.32815 l -0.23283,0.46005 0.42333,-0.11026 c 0.48139,-0.12538 0.635,-0.0955 0.635,0.12346 0,0.16322 -0.46809,0.3312 -1.16357,0.41758 -0.28888,0.0359 -0.37026,0.0159 -0.41553,-0.10207 z m 0.64777,-1.58974 c 0,-0.061 -0.0496,-0.17869 -0.11029,-0.26165 -0.0966,-0.13213 -0.12321,-0.13525 -0.21459,-0.0252 -0.0838,0.10103 -0.0776,0.15234 0.0317,0.26165 0.1646,0.16459 0.29321,0.17562 0.29321,0.0252 z m 1.47235,1.51407 c -0.0786,-0.20478 0.0269,-0.38726 0.22395,-0.38726 0.1437,0 0.1725,0.0443 0.15082,0.23211 -0.0301,0.26038 -0.29267,0.3691 -0.37477,0.15515 z m 0.94339,-0.12462 c -0.0371,-0.11688 0.005,-0.28062 0.11815,-0.46441 0.22282,-0.36053 0.22143,-0.47556 -0.006,-0.47556 -0.2449,0 -0.40555,-0.23383 -0.40881,-0.59499 -0.005,-0.58665 0.46243,-0.88049 0.80283,-0.50436 0.20658,0.22827 0.26097,0.95684 0.10497,1.40601 l -0.12121,0.34898 0.54526,-0.0438 c 0.50009,-0.0401 0.54273,-0.0306 0.51462,0.11539 -0.0315,0.16333 -0.27211,0.23849 -1.09948,0.34338 -0.3497,0.0443 -0.39966,0.0298 -0.45061,-0.13067 z m 0.29429,-1.57314 c -0.0705,-0.1853 -0.11478,-0.21795 -0.19162,-0.14111 -0.0768,0.0768 -0.0614,0.17189 0.0666,0.41091 0.13541,0.25271 0.17129,0.27914 0.19162,0.14111 0.0138,-0.0934 -0.0162,-0.27832 -0.0666,-0.41091 z m 2.91939,1.6477 c -0.0728,-0.11776 0.0306,-0.88902 0.21232,-1.58339 0.15009,-0.57365 0.15006,-0.57417 -0.0278,-0.60361 -0.0979,-0.0162 -0.19199,0.0124 -0.20904,0.0635 -0.0443,0.1329 -0.31666,0.11484 -0.43596,-0.0289 -0.0556,-0.067 -0.0889,-0.22896 -0.0739,-0.35983 0.0214,-0.18634 0.064,-0.23079 0.19662,-0.20494 0.0931,0.0181 0.35984,0.0372 0.59267,0.0423 l 0.42333,0.009 0.0255,0.39443 c 0.014,0.21693 -0.0336,0.62248 -0.10583,0.90122 -0.0722,0.27874 -0.13132,0.68093 -0.13132,0.89376 0,0.29593 -0.0385,0.40758 -0.16377,0.47461 -0.20355,0.10894 -0.23632,0.1091 -0.30281,0.002 z m -0.97275,-0.37453 c 0,-0.25908 0.10232,-0.32667 0.28846,-0.19055 0.18046,0.13195 0.0948,0.39722 -0.12819,0.39722 -0.11348,0 -0.16027,-0.0603 -0.16027,-0.20667 z m -34.459338,-0.97867 c 0,-0.22719 0.02766,-0.26185 0.1905,-0.23872 0.139541,0.0198 0.1905,0.0837 0.1905,0.23872 0,0.15505 -0.05096,0.21891 -0.1905,0.23873 -0.162844,0.0231 -0.1905,-0.0115 -0.1905,-0.23873 z m 18.965336,-0.73377 c -0.06985,-0.0271 -0.231775,-0.14698 -0.359834,-0.26629 -0.294126,-0.27406 -0.335256,-0.77794 -0.0635,-0.77794 0.122828,0 0.169334,0.0564 0.169334,0.20553 0,0.25775 0.361164,0.55688 0.597702,0.49502 0.27204,-0.0711 0.58176,-0.5494 0.64243,-0.99205 0.0531,-0.38744 0.0487,-0.39901 -0.11399,-0.29742 -0.27935,0.17445 -0.61075,0.0346 -0.75902,-0.32023 -0.239117,-0.57228 0.01315,-1.20751 0.47954,-1.20751 0.31463,0 0.49889,0.23616 0.63773,0.81734 0.24755,1.03632 0.1011,1.77756 -0.42848,2.16861 -0.22591,0.16682 -0.608211,0.25022 -0.801912,0.17494 z m 0.720302,-2.3951 c -0.035,-0.20744 -0.0993,-0.33802 -0.15698,-0.3191 -0.13776,0.0452 -0.17231,0.55535 -0.0478,0.70543 0.16634,0.20042 0.27063,0.004 0.20474,-0.38633 z m -0.28617,-0.49063 c 0.10531,-0.13428 0.10232,-0.13728 -0.032,-0.032 -0.141034,0.1106 -0.185886,0.18013 -0.116203,0.18013 0.01757,0 0.08426,-0.0667 0.148163,-0.14817 z m 4.59932,2.07434 c -0.32433,-1.04642 -0.2375,-2.0955 0.17345,-2.0955 0.41495,0 0.57701,0.63738 0.34198,1.34499 -0.11722,0.3529 -0.1257,0.48647 -0.0462,0.72733 0.11063,0.33523 0.0624,0.46768 -0.17039,0.46768 -0.12035,0 -0.19587,-0.11234 -0.29883,-0.4445 z m 0.17355,-0.5715 c 0.0288,-0.0466 0.012,-0.0847 -0.0373,-0.0847 -0.0493,0 -0.0897,0.0381 -0.0897,0.0847 0,0.0466 0.0168,0.0847 0.0373,0.0847 0.0205,0 0.0609,-0.0381 0.0897,-0.0847 z m 0.016,-0.91017 c -0.0213,-0.0815 -0.0387,-0.0148 -0.0387,0.14817 0,0.16298 0.0174,0.22966 0.0387,0.14816 0.0213,-0.0815 0.0213,-0.21484 0,-0.29633 z m -24.410195,1.37989 c -0.06565,-0.17109 0.03199,-0.30039 0.226824,-0.30039 0.118847,0 0.164336,0.0586 0.164336,0.21167 0,0.15631 -0.04498,0.21166 -0.17199,0.21166 -0.0946,0 -0.193221,-0.0553 -0.21917,-0.12294 z m 21.262325,-0.38371 c -0.0283,-0.0458 -0.10786,-0.27314 -0.17676,-0.50515 -0.0689,-0.23201 -0.18567,-0.45564 -0.25948,-0.49695 -0.091,-0.0509 -0.11565,-0.13359 -0.0765,-0.25684 0.0633,-0.19946 0.31759,-0.24284 0.44494,-0.0759 0.11103,0.14555 0.448,1.10734 0.448,1.2787 0,0.15178 -0.29421,0.19524 -0.38017,0.0562 z m 9.59018,-0.007 c -0.3386,-0.19735 -0.35279,-1.07054 -0.0255,-1.57002 0.12962,-0.19783 0.13036,-0.22991 0.008,-0.36459 -0.15943,-0.17617 -0.17708,-0.51059 -0.0278,-0.52692 1.11814,-0.12227 1.41194,0.0225 0.90272,0.44478 -0.15889,0.13177 -0.25079,0.24086 -0.20422,0.24243 0.17629,0.006 0.46567,0.56416 0.46567,0.89827 0,0.39017 -0.16444,0.66143 -0.50894,0.83958 -0.28353,0.14662 -0.40858,0.1541 -0.61039,0.0365 z m 0.69405,-0.58366 c 0.12995,-0.2428 0.10542,-0.43767 -0.0963,-0.76563 l -0.18231,-0.29635 -0.19669,0.42333 c -0.19025,0.40946 -0.19328,0.63865 -0.0115,0.86606 0.10302,0.12885 0.36051,0.009 0.48681,-0.22743 z m -0.78689,-0.2735 c -0.027,-0.0675 -0.0471,-0.0475 -0.0511,0.0511 -0.004,0.0893 0.0163,0.13926 0.0445,0.11112 0.0281,-0.0281 0.0311,-0.10116 0.007,-0.16227 z m -7.52422,0.43985 -0.17566,-0.4227 -0.13715,0.27453 c -0.0805,0.16122 -0.2134,0.28539 -0.32189,0.30083 -0.15268,0.0217 -0.19075,-0.0224 -0.21929,-0.254 l -0.0345,-0.2803 -0.0135,0.26946 c -0.01,0.19348 -0.0643,0.28556 -0.19345,0.32656 -0.35202,0.11173 -0.45877,-0.53406 -0.15262,-0.92327 0.21018,-0.2672 0.44781,-0.28654 0.61353,-0.0499 0.10552,0.15063 0.12809,0.1554 0.17366,0.0367 0.0347,-0.0904 0.13118,-0.12742 0.28569,-0.10965 0.18638,0.0214 0.27369,0.11198 0.43407,0.45017 0.11041,0.23283 0.23424,0.43603 0.27516,0.45155 0.0409,0.0155 0.0744,0.10125 0.0744,0.1905 0,0.1176 -0.0596,0.16228 -0.21636,0.16228 -0.17968,0 -0.24613,-0.0717 -0.39202,-0.42269 z m 4.60888,0.36662 c -0.14305,-0.0577 -0.13326,-0.22461 0.0423,-0.72139 0.13398,-0.37904 0.13541,-0.42636 0.0149,-0.49406 -0.0733,-0.0412 -0.18455,-0.23031 -0.24725,-0.42031 -0.0997,-0.30216 -0.0965,-0.38225 0.026,-0.63914 0.11486,-0.24087 0.18676,-0.2937 0.39974,-0.2937 0.2163,0 0.28019,0.0491 0.38237,0.29362 0.16405,0.39262 0.15623,0.52565 -0.0733,1.24833 l -0.19601,0.61705 0.53468,-0.016 c 0.58424,-0.0175 0.7017,0.1011 0.3465,0.34989 -0.18052,0.12645 -0.982,0.1758 -1.22999,0.0757 z m 0.23945,-2.08786 c -0.0653,-0.0653 -0.0913,-0.0181 -0.0913,0.16554 0,0.33422 0.11881,0.45384 0.15479,0.15585 0.0153,-0.12656 -0.0133,-0.27118 -0.0635,-0.32139 z m 4.77659,1.88915 c -0.0925,-0.14964 0.0482,-0.42257 0.21783,-0.42257 0.12537,0 0.16363,0.0594 0.16363,0.254 0,0.19498 -0.0382,0.254 -0.16433,0.254 -0.0904,0 -0.1881,-0.0384 -0.21713,-0.0854 z m -32.977205,-0.29558 c 0,-0.18329 0.03423,-0.21858 0.1905,-0.19639 0.125038,0.0178 0.1905,0.0852 0.1905,0.19639 0,0.11114 -0.06546,0.17863 -0.1905,0.19639 -0.156267,0.0222 -0.1905,-0.0131 -0.1905,-0.19639 z m 29.802665,-0.0785 c 0,-0.16387 0.0434,-0.21787 0.17522,-0.21787 0.13309,0 0.16872,0.0456 0.14817,0.18963 -0.0401,0.28141 -0.32339,0.30615 -0.32339,0.0282 z m 3.9116,0.10386 c -0.13683,-0.13683 -0.12816,-0.56383 0.02,-0.98368 0.10952,-0.31041 0.10831,-0.33948 -0.0123,-0.29322 -0.16026,0.0615 -0.36332,-0.18564 -0.36332,-0.44218 0,-0.18685 0.40312,-0.63465 0.57133,-0.63465 0.15935,0 0.36,0.35849 0.36,0.64319 0,0.14677 -0.0513,0.41452 -0.1141,0.59499 -0.0628,0.18048 -0.13851,0.42829 -0.16836,0.55067 l -0.0543,0.22252 0.31653,-0.11297 c 0.17409,-0.0621 0.4135,-0.11464 0.53202,-0.11669 0.17759,-0.003 0.26324,-0.0968 0.48687,-0.53288 0.29359,-0.57251 0.38318,-1.04095 0.12953,-0.67733 -0.18261,0.26179 -0.4509,0.25285 -0.4509,-0.015 0,-0.22795 0.3538,-0.55648 0.59929,-0.55648 0.18745,0 0.41671,0.30975 0.41671,0.56302 0,0.10267 -0.13367,0.44312 -0.29704,0.75656 -0.16338,0.31344 -0.27454,0.59239 -0.24704,0.61989 0.0275,0.0275 0.26594,0.0394 0.52988,0.0264 0.52787,-0.0259 0.74387,0.0616 0.6642,0.26923 -0.0391,0.10184 -0.18423,0.1394 -0.58384,0.15105 -0.77911,0.0227 -0.94437,0.002 -1.0398,-0.12815 -0.0726,-0.0993 -0.15791,-0.094 -0.55096,0.0343 -0.56786,0.18534 -0.6165,0.18935 -0.74446,0.0614 z m 2.33081,-0.20355 c -0.0281,-0.0281 -0.10116,-0.0311 -0.16228,-0.007 -0.0675,0.027 -0.0475,0.0471 0.0511,0.0511 0.0893,0.004 0.13926,-0.0163 0.11112,-0.0445 z m -2.16147,-1.57445 c -0.079,-0.079 -0.1016,-0.0564 -0.1016,0.1016 0,0.15804 0.0226,0.18062 0.1016,0.1016 0.079,-0.079 0.079,-0.12418 0,-0.2032 z m 1.4332,-0.2159 c 0.10531,-0.13429 0.10232,-0.13728 -0.032,-0.032 -0.0815,0.0639 -0.14817,0.13059 -0.14817,0.14817 0,0.0697 0.0695,0.0248 0.18013,-0.1162 z m -13.9808,0.52917 c 0,-0.24395 0.28549,-0.30303 0.37221,-0.077 0.0694,0.18073 -0.008,0.28869 -0.20788,0.28869 -0.11885,0 -0.16433,-0.0586 -0.16433,-0.21166 z M 75.624965,122.8837 c -0.429535,-0.3169 -0.78138,-0.9117 -0.828328,-1.40029 -0.03212,-0.33424 0.0049,-0.50961 0.185573,-0.87887 0.390759,-0.79868 0.951679,-1.14868 1.842596,-1.14974 0.329393,-2.7e-4 0.426178,0.0379 0.575265,0.22739 0.197957,0.25167 0.199941,0.57647 0.0035,0.57647 -0.06922,0 -0.174997,-0.10253 -0.235056,-0.22784 -0.148591,-0.31002 -0.370369,-0.36037 -0.864495,-0.19624 -0.608321,0.20205 -1.187589,0.94271 -1.187589,1.51846 0,0.29147 0.414186,1.04657 0.676522,1.23337 0.59031,0.42034 1.355478,-0.0166 1.355478,-0.77405 0,-0.0998 0.06095,-0.1567 0.16772,-0.1567 0.185215,0 0.242975,0.15909 0.27666,0.762 0.01979,0.35424 0.0064,0.38143 -0.19038,0.38713 -0.116417,0.003 -0.353318,0.0701 -0.526447,0.14816 -0.459431,0.20731 -0.909994,0.18237 -1.25104,-0.0692 z m 1.292264,-3.31558 c -0.05732,-0.0232 -0.171621,-0.0246 -0.254,-0.003 -0.08238,0.0215 -0.03548,0.0404 0.104223,0.0422 0.1397,0.002 0.207099,-0.0159 0.149777,-0.039 z m 1.620175,3.27509 c -0.09756,-0.0395 -0.302717,-0.22997 -0.455906,-0.42339 -0.230824,-0.29144 -0.263878,-0.38337 -0.192995,-0.53675 0.04704,-0.10179 0.12664,-0.28784 0.176884,-0.41344 0.132162,-0.33036 0.463517,-0.52878 0.685054,-0.41021 0.09571,0.0512 0.197052,0.18493 0.225213,0.29713 0.06094,0.24279 -0.182075,0.69946 -0.410848,0.77207 -0.19823,0.0629 -0.148508,0.21762 0.112032,0.34858 0.31357,0.15762 0.553907,-0.12763 0.710011,-0.84271 0.02796,-0.12806 0.102872,-0.23283 0.166478,-0.23283 0.06361,0 0.17806,-0.0953 0.254339,-0.21167 0.307945,-0.46998 0.714531,-0.12936 0.939243,0.78687 0.07659,0.31229 0.159961,0.65352 0.185269,0.7583 0.03654,0.15127 0.0097,0.1905 -0.130211,0.1905 -0.215197,0 -0.303794,-0.15739 -0.428947,-0.762 -0.184341,-0.89056 -0.366067,-0.8848 -0.467848,0.0148 -0.05823,0.51472 -0.19733,0.68493 -0.413277,0.50571 -0.08136,-0.0675 -0.146545,-0.0481 -0.252092,0.0752 -0.149229,0.17429 -0.40357,0.20464 -0.702399,0.0838 z m 0.450784,-0.13804 c -0.02813,-0.0281 -0.10116,-0.0311 -0.162278,-0.007 -0.06754,0.027 -0.04748,0.0471 0.05115,0.0512 0.08925,0.004 0.139259,-0.0163 0.111125,-0.0445 z m -0.403095,-1.20805 c -0.0022,-0.11576 -0.02257,-0.11152 -0.127,0.0266 -0.161797,0.21392 -0.160084,0.35175 0.0027,0.21665 0.06985,-0.058 0.125789,-0.16741 0.124308,-0.2432 z m 3.337672,1.13836 c -0.08199,-0.21367 0.0049,-0.51158 0.157776,-0.54071 0.181227,-0.0345 0.269165,0.16559 0.197762,0.45008 -0.05752,0.22918 -0.280555,0.28603 -0.355538,0.0906 z m 1.964828,-0.78446 c -0.02738,-0.13073 -0.058,-0.56876 -0.06804,-0.97339 l -0.01826,-0.7357 -0.234428,0.42869 c -0.307033,0.56145 -0.395935,0.6617 -0.586784,0.6617 -0.180589,0 -0.223962,-0.29526 -0.05313,-0.36172 0.05821,-0.0226 0.271094,-0.36961 0.473079,-0.77105 0.545823,-1.08481 0.702527,-1.00315 0.792755,0.41311 0.03263,0.51223 0.07073,1.06468 0.08467,1.22766 0.02126,0.24869 -0.004,0.30052 -0.157372,0.32237 -0.141191,0.0201 -0.194014,-0.028 -0.232488,-0.21167 z m -7.818642,-0.25144 c -0.05821,-0.0235 -0.105833,-0.11573 -0.105833,-0.20498 0,-0.13182 0.06117,-0.16228 0.325892,-0.16228 0.179241,0 0.617391,-0.0246 0.973667,-0.0547 0.613845,-0.0519 0.647775,-0.0457 0.647775,0.1183 0,0.14626 -0.08304,0.18753 -0.536102,0.26643 -0.552163,0.0962 -1.119355,0.11236 -1.305399,0.0373 z m 24.041569,-0.11937 c -0.10684,-0.0417 -0.249137,-0.20723 -0.316211,-0.36776 -0.06708,-0.16053 -0.160634,-0.31578 -0.207907,-0.345 -0.130784,-0.0808 -0.102534,-0.38074 0.04105,-0.43584 0.06985,-0.0268 0.127,-0.11422 0.127,-0.19425 0,-0.08 0.0958,-0.23552 0.212895,-0.34552 0.177323,-0.16659 0.251593,-0.18648 0.444503,-0.11902 0.19638,0.0687 0.23558,0.13571 0.25771,0.44081 0.0223,0.30686 -0.0121,0.39804 -0.23343,0.61938 -0.27143,0.27142 -0.27319,0.41465 -0.005,0.41465 0.19105,0 0.50877,-0.42055 0.50877,-0.67344 0,-0.25696 0.23565,-0.68123 0.37837,-0.68123 0.066,0 0.18329,0.0857 0.26061,0.1905 0.0942,0.12759 0.15399,0.15555 0.18119,0.0847 0.0223,-0.0582 0.10897,-0.10584 0.19252,-0.10584 0.18921,0 0.28889,0.12254 0.43483,0.53453 0.1515,0.42767 0.33048,0.5825 0.33048,0.28588 0,-0.28438 0.25155,-0.3618 0.5963,-0.18353 0.14636,0.0757 0.2802,0.12351 0.29743,0.10628 0.0172,-0.0172 -0.0429,-0.15339 -0.13362,-0.30258 -0.17537,-0.28836 -0.47523,-0.36558 -0.56016,-0.14424 -0.0642,0.16737 -0.36928,0.16419 -0.36928,-0.004 0,-0.1984 0.39001,-0.54649 0.61231,-0.54649 0.44051,0 0.80437,0.47607 0.84562,1.10638 l 0.0237,0.36272 -0.48797,0.12913 c -0.44486,0.11771 -0.50012,0.11698 -0.62545,-0.008 -0.10781,-0.10781 -0.17049,-0.11686 -0.29046,-0.0419 -0.20086,0.12543 -0.4674,-0.1049 -0.55222,-0.47722 l -0.0607,-0.26639 -0.0735,0.27516 c -0.0571,0.21379 -0.11895,0.27517 -0.27715,0.27517 -0.15714,0 -0.21168,-0.0532 -0.23889,-0.23283 -0.0332,-0.21905 -0.036,-0.21671 -0.048,0.0393 -0.008,0.17666 -0.0721,0.30399 -0.18202,0.36281 -0.0931,0.0498 -0.16934,0.0643 -0.16934,0.0322 0,-0.0321 -0.0667,-5.3e-4 -0.14816,0.0703 -0.201,0.17465 -0.53061,0.23723 -0.76576,0.14538 z m 1.62188,-0.71355 c 0.0268,-0.0699 0.0118,-0.127 -0.0333,-0.127 -0.0451,0 -0.082,0.0571 -0.082,0.127 0,0.0699 0.015,0.127 0.0333,0.127 0.0183,0 0.0552,-0.0571 0.082,-0.127 z m -1.835444,-0.22754 c -0.02703,-0.0675 -0.04709,-0.0475 -0.05115,0.0512 -0.0037,0.0892 0.01632,0.13926 0.04447,0.11112 0.02813,-0.0281 0.03114,-0.10116 0.0067,-0.16227 z m 0.450164,-0.38131 c 0,-0.0609 -0.034,-0.11082 -0.0756,-0.11082 -0.0894,0 -0.1795,0.20988 -0.1757,0.40909 0.002,0.12184 0.0198,0.11867 0.127,-0.0231 0.0684,-0.0904 0.12431,-0.21421 0.12431,-0.27516 z m 12.2381,0.91705 c -0.0722,-0.22732 0.0315,-0.4352 0.21696,-0.4352 0.21945,0 0.21687,0.38709 -0.003,0.50496 -0.13131,0.0703 -0.17352,0.0565 -0.21359,-0.0698 z m -6.84766,0.0164 c -0.10493,-0.10493 -0.0573,-0.28223 0.0758,-0.28223 0.0727,0 0.22068,-0.0667 0.32878,-0.14816 l 0.19654,-0.14817 -0.24411,-0.27811 c -0.13427,-0.15297 -0.24412,-0.33122 -0.24412,-0.39612 0,-0.37879 0.69443,-0.51946 0.74672,-0.15127 0.0194,0.13652 -0.0166,0.19176 -0.127,0.19494 -0.13452,0.004 -0.1299,0.0213 0.0365,0.13733 0.27766,0.19368 0.25592,0.61054 -0.047,0.90072 -0.22156,0.21228 -0.59291,0.30025 -0.72209,0.17106 z m 0.62089,-0.90686 c 0,-0.0176 -0.0667,-0.0843 -0.14816,-0.14817 -0.13429,-0.10531 -0.13728,-0.10232 -0.032,0.032 0.1106,0.14103 0.18013,0.18588 0.18013,0.1162 z m -1.83254,0.67794 c -0.30661,-0.26374 -0.32091,-0.71745 -0.0323,-1.02466 0.25417,-0.27055 0.67951,-0.2985 0.67951,-0.0447 0,0.0931 -0.0563,0.16934 -0.12505,0.16934 -0.0688,0 -0.18758,0.0954 -0.26401,0.21209 -0.11199,0.17091 -0.11858,0.23666 -0.0339,0.33866 0.13676,0.16479 0.29812,0.15989 0.59958,-0.0182 0.19863,-0.11733 0.26528,-0.12428 0.35174,-0.0367 0.086,0.0872 0.0531,0.15616 -0.16984,0.35643 -0.3408,0.30608 -0.68624,0.32244 -1.00571,0.0476 z m 4.38948,0.0991 c -0.14159,-0.14159 -0.12769,-0.27734 0.0676,-0.66008 l 0.16917,-0.33161 -0.2115,-0.2115 c -0.24507,-0.24507 -0.26094,-0.38604 -0.0823,-0.73141 0.14625,-0.28282 0.45003,-0.33583 0.66911,-0.11675 0.20171,0.20171 0.17042,0.86509 -0.0625,1.32515 l -0.19554,0.38622 0.33162,-0.20934 c 0.18239,-0.11514 0.45135,-0.22783 0.5977,-0.25042 0.22831,-0.0353 0.2863,-0.005 0.40856,0.21542 0.18044,0.32484 0.52174,0.42368 0.74993,0.21717 0.0913,-0.0826 0.16592,-0.20053 0.16592,-0.26208 0,-0.20063 -0.41517,-0.3976 -0.80681,-0.38278 -0.29053,0.011 -0.39122,-0.0219 -0.45991,-0.15026 -0.21472,-0.40121 0.0303,-0.8276 0.58085,-1.01095 0.44607,-0.14855 0.6012,-0.12383 0.6012,0.0958 0,0.16073 -0.07,0.20825 -0.43401,0.29472 -0.23871,0.0567 -0.47111,0.0802 -0.51645,0.0522 -0.0453,-0.028 -0.0392,0.0298 0.0136,0.1286 0.0764,0.1427 0.17542,0.17955 0.48258,0.17955 0.32511,0 0.4313,0.0448 0.66864,0.28215 0.26117,0.26117 0.27666,0.30651 0.20829,0.60963 -0.14897,0.66052 -0.84966,0.84688 -1.39242,0.37034 l -0.29827,-0.26189 -0.42561,0.26189 c -0.45647,0.28086 -0.66801,0.32174 -0.82947,0.16028 z m 0.32967,-1.70232 c -0.067,-0.067 -0.0926,-0.0451 -0.0926,0.0795 0,0.22384 0.1184,0.34265 0.15611,0.15665 0.016,-0.079 -0.0126,-0.18526 -0.0635,-0.23619 z m 4.35239,1.44209 c -0.20674,-0.11836 -0.33866,-0.25605 -0.33866,-0.35347 0,-0.20836 0.15888,-0.25672 0.31861,-0.097 0.0696,0.0696 0.22549,0.15142 0.34637,0.18176 0.18308,0.0459 0.23728,0.0167 0.32468,-0.1751 0.0942,-0.20671 0.0843,-0.24692 -0.0963,-0.39322 -0.12486,-0.1011 -0.30046,-0.15356 -0.46262,-0.13822 -0.20703,0.0196 -0.26641,-0.0105 -0.28558,-0.14459 -0.0157,-0.10958 0.0441,-0.19922 0.16933,-0.254 0.39044,-0.17081 0.18897,-0.41753 -0.20792,-0.25462 -0.0994,0.0408 -0.16527,0.0141 -0.20207,-0.0818 -0.071,-0.18504 0.11009,-0.34866 0.45712,-0.41301 0.37479,-0.0695 0.65175,0.19122 0.58067,0.54661 -0.027,0.13485 -0.0175,0.24518 0.0211,0.24518 0.0386,0 0.17101,0.0934 0.29422,0.20762 0.28917,0.26799 0.3038,0.70966 0.0335,1.01214 -0.27522,0.30802 -0.55279,0.34058 -0.9525,0.11174 z m -9.86366,-3.17646 c 0,-0.36927 -0.0236,-0.84342 -0.0524,-1.05367 -0.045,-0.3284 -0.076,-0.37607 -0.22033,-0.33834 -0.0924,0.0242 -0.19567,-0.001 -0.22955,-0.0558 -0.0339,-0.0548 -0.12059,-0.077 -0.19269,-0.0494 -0.11714,0.045 -0.11441,0.12403 0.0258,0.7437 0.2111,0.93323 0.21177,1.3284 0.002,1.3284 -0.22453,0 -0.39562,-0.22285 -0.27899,-0.36338 0.0656,-0.079 0.0423,-0.31987 -0.0838,-0.86809 -0.17417,-0.75695 -0.17518,-0.7587 -0.44022,-0.75845 -0.20929,2e-4 -0.26565,-0.0357 -0.26565,-0.16908 0,-0.12179 0.0654,-0.17686 0.23284,-0.19613 0.22252,-0.0256 0.23283,-0.0474 0.23283,-0.49239 0,-0.59625 0.10464,-0.79315 0.42151,-0.79315 0.24506,0 0.50982,0.25162 0.50982,0.48451 0,0.13259 -0.30649,0.14405 -0.38658,0.0144 -0.0877,-0.14192 -0.20326,0.0873 -0.20479,0.40621 -0.002,0.33346 0.0467,0.365 0.47133,0.30804 0.32152,-0.0431 0.33651,-0.0583 0.30729,-0.31177 -0.0474,-0.41171 0.10844,-0.7321 0.3561,-0.7321 0.26627,0 0.37103,0.1645 0.18936,0.29734 -0.1661,0.12146 -0.18936,0.54933 -0.0299,0.54933 0.0605,0 0.15502,-0.045 0.20996,-0.0999 0.0746,-0.0746 0.14846,-0.076 0.2921,-0.005 0.10571,0.052 0.28746,0.1204 0.40388,0.15196 0.568,0.154 0.78244,0.76145 0.3967,1.12383 -0.20926,0.1966 -0.48206,0.235 -0.72932,0.10266 -0.20745,-0.11102 -0.37551,-0.54635 -0.31067,-0.8047 0.0504,-0.20076 0.0418,-0.20689 -0.16066,-0.11464 -0.20783,0.0947 -0.21207,0.11329 -0.14948,0.65495 0.0354,0.30662 0.0644,0.80514 0.0644,1.10782 0,0.50626 -0.0153,0.5525 -0.1905,0.57739 -0.18381,0.0261 -0.1905,0.003 -0.1905,-0.64435 z m 0.22717,0.0511 c -0.027,-0.0675 -0.0471,-0.0475 -0.0512,0.0512 -0.004,0.0892 0.0163,0.13926 0.0445,0.11112 0.0281,-0.0281 0.0311,-0.10116 0.007,-0.16227 z m 1.20901,-1.24825 c 0.066,-0.12338 0.0549,-0.19603 -0.0454,-0.29633 -0.0731,-0.0731 -0.16569,-0.13288 -0.20579,-0.13288 -0.12787,0 -0.18684,0.34215 -0.081,0.46972 0.13752,0.16571 0.22767,0.15471 0.33215,-0.0405 z m 4.53928,1.32762 c -0.0215,-0.10477 -0.085,-0.39802 -0.14105,-0.65164 -0.15618,-0.7064 -0.14871,-1.74573 0.0137,-1.90896 0.43515,-0.43729 0.88004,0.66231 0.53665,1.32636 -0.10484,0.20274 -0.12164,0.38877 -0.0761,0.84247 0.0555,0.55223 0.0494,0.58227 -0.11784,0.58227 -0.11481,0 -0.18995,-0.0665 -0.2154,-0.1905 z m 0.2052,-1.79917 c 0,-0.0699 -0.0369,-0.127 -0.082,-0.127 -0.0451,0 -0.0601,0.0571 -0.0333,0.127 0.0268,0.0699 0.0637,0.127 0.082,0.127 0.0183,0 0.0333,-0.0571 0.0333,-0.127 z m -10.068833,0.92381 c -0.215152,-0.18104 -0.260496,-0.28143 -0.260496,-0.5767 0,-0.46385 0.232251,-0.72811 0.639909,-0.72811 0.26147,0 0.28995,-0.0215 0.25296,-0.1905 -0.0229,-0.10477 -0.0522,-0.36195 -0.0651,-0.5715 -0.0204,-0.33165 -2.7e-4,-0.38429 0.15457,-0.40642 0.15988,-0.0228 0.18363,0.0285 0.23337,0.50435 0.0305,0.29136 0.11663,0.74808 0.1915,1.01493 0.1227,0.4373 0.1515,0.47557 0.29191,0.38789 0.0857,-0.0535 0.16705,-0.19399 0.18083,-0.31218 0.0175,-0.1501 0.0761,-0.2149 0.1944,-0.2149 0.13121,0 0.17558,0.0657 0.1971,0.29183 0.0153,0.16051 0.0878,0.3357 0.1611,0.38932 0.0733,0.0536 0.10621,0.14137 0.0731,0.195 -0.0932,0.15077 -0.4485,0.11566 -0.51257,-0.0506 -0.0538,-0.13961 -0.0621,-0.13924 -0.14381,0.006 -0.10708,0.19077 -0.76297,0.4805 -1.08774,0.4805 -0.1352,0 -0.354539,-0.096 -0.500983,-0.21919 z m 0.908633,-0.24923 c 0.0144,-0.0117 -0.0298,-0.15507 -0.0981,-0.3186 -0.12268,-0.2936 -0.43263,-0.48288 -0.56203,-0.34322 -0.300264,0.32407 -0.0106,0.83727 0.41511,0.73545 0.12039,-0.0288 0.23065,-0.0619 0.24502,-0.0736 z m 5.1408,0.24693 c -0.18689,-0.18689 -0.11486,-0.33215 0.15515,-0.3129 0.27217,0.0194 0.29214,-0.13933 0.0456,-0.36245 -0.24164,-0.21869 -0.43744,-0.615 -0.37904,-0.76721 0.0319,-0.0831 0.13999,-0.11589 0.32363,-0.0982 0.2311,0.0223 0.27645,0.0617 0.28005,0.2433 0.002,0.11919 0.0881,0.35229 0.1905,0.51799 0.23029,0.37262 0.23385,0.52997 0.0169,0.74695 -0.20476,0.20477 -0.44798,0.21726 -0.63273,0.0325 z m 0.4634,-0.73905 c 0,-0.0161 -0.0857,-0.10179 -0.1905,-0.1905 l -0.1905,-0.16129 0.16129,0.1905 c 0.15157,0.17902 0.21971,0.22904 0.21971,0.16129 z m 4.51294,0.62088 c -0.66563,-0.26806 -0.4996,-1.74499 0.17707,-1.57516 0.29941,0.0752 0.37629,0.41521 0.17737,0.78458 -0.084,0.15597 -0.19243,0.28358 -0.24098,0.28358 -0.0587,0 -0.0572,0.031 0.004,0.0925 0.11208,0.11207 0.40341,-0.02 0.47907,-0.21716 0.0556,-0.14493 0.27163,-0.17357 0.35021,-0.0464 0.0817,0.13225 -0.11376,0.42014 -0.40649,0.59863 -0.30246,0.18442 -0.28589,0.18199 -0.5405,0.0795 z m -3.74849,-0.23753 c -0.28671,-0.28672 -0.32548,-0.56771 -0.13037,-0.94501 0.12848,-0.24846 0.39645,-0.39381 0.5505,-0.2986 0.1481,0.0915 0.0927,0.35983 -0.0839,0.406 -0.23238,0.0608 -0.23107,0.48885 0.002,0.63437 0.21967,0.13719 0.50605,-0.001 0.50605,-0.24411 0,-0.48555 0.46427,-0.66821 0.8307,-0.32683 0.36444,0.33954 0.11599,0.88439 -0.37958,0.83241 -0.13176,-0.0138 -0.27793,-0.001 -0.32482,0.0276 -0.0469,0.029 -0.22674,0.0792 -0.39966,0.11168 -0.27682,0.0519 -0.34507,0.0283 -0.57086,-0.19747 z m 7.40589,0.13943 c -0.0931,-0.0517 -0.23919,-0.15454 -0.32457,-0.22861 -0.087,-0.0755 -0.26398,-0.12326 -0.4026,-0.10872 -0.13604,0.0143 -0.38051,-0.018 -0.54326,-0.0717 -0.22979,-0.0758 -0.29591,-0.14349 -0.29591,-0.30276 0,-0.23875 0.0617,-0.25112 0.39249,-0.0786 0.32044,0.16712 0.42135,0.16035 0.62351,-0.0418 0.25508,-0.25507 0.22175,-0.42958 -0.0708,-0.37106 -0.17741,0.0355 -0.29914,-0.004 -0.46576,-0.15028 -0.30756,-0.27041 -0.36142,-0.63439 -0.14525,-0.98149 0.1406,-0.22575 0.22482,-0.27517 0.46895,-0.27517 0.39287,0 0.59589,0.21593 0.71198,0.75724 0.12793,0.5965 0.11762,0.86412 -0.042,1.09207 -0.15439,0.22043 -0.16429,0.20095 0.19493,0.38359 0.4066,0.20673 0.68771,0.17866 0.80578,-0.0805 0.1217,-0.26711 0.0141,-0.47627 -0.28042,-0.54531 -0.26721,-0.0626 -0.32422,-0.38554 -0.0817,-0.46253 0.13965,-0.0443 0.15746,-0.0866 0.0898,-0.21303 -0.0464,-0.0868 -0.17023,-0.16992 -0.2751,-0.18481 -0.24993,-0.0355 -0.31026,-0.37216 -0.0798,-0.4453 0.22073,-0.0701 0.57841,0.0763 0.6883,0.2816 0.0494,0.0923 0.0898,0.27996 0.0898,0.41702 0,0.13706 0.0542,0.29416 0.12038,0.34911 0.19433,0.16127 0.24981,0.71494 0.10056,1.00355 -0.0715,0.13828 -0.19169,0.27509 -0.26707,0.30401 -0.21878,0.084 -0.82746,0.056 -1.0122,-0.0465 z m -0.51288,-1.41701 c 0.0261,-0.0422 -0.0288,-0.0568 -0.12201,-0.0325 -0.19769,0.0517 -0.22268,0.10923 -0.0474,0.10923 0.0671,0 0.14335,-0.0345 0.16945,-0.0768 z m -0.10196,-0.4347 c -0.0402,-0.37713 -0.0919,-0.45136 -0.23283,-0.33436 -0.13043,0.10824 -0.17077,0.43418 -0.0666,0.53832 0.13046,0.13046 0.32123,5.3e-4 0.29946,-0.20396 z m 0.34216,1.1e-4 c -0.0248,-0.095 -0.0641,-0.15377 -0.0872,-0.13065 -0.0458,0.0458 0.0351,0.30335 0.0953,0.30335 0.0204,0 0.0167,-0.0777 -0.008,-0.17269 z m -12.94704,0.21503 c -0.0681,-0.17744 0.0247,-0.381 0.17359,-0.381 0.11988,0 0.38846,0.30571 0.38846,0.44217 0,0.12409 -0.51236,0.0683 -0.56205,-0.0612 z"
       id="path4538"
       inkscape:connector-curvature="0"
       inkscape:export-xdpi="204.78999"
       inkscape:export-ydpi="204.78999" />
  </g>
</svg>
