<?xml version="1.0" encoding="UTF-8" standalone="no"?>
<!-- Created with Inkscape (http://www.inkscape.org/) -->

<svg
   xmlns:dc="http://purl.org/dc/elements/1.1/"
   xmlns:cc="http://creativecommons.org/ns#"
   xmlns:rdf="http://www.w3.org/1999/02/22-rdf-syntax-ns#"
   xmlns:svg="http://www.w3.org/2000/svg"
   xmlns="http://www.w3.org/2000/svg"
   xmlns:sodipodi="http://sodipodi.sourceforge.net/DTD/sodipodi-0.dtd"
   xmlns:inkscape="http://www.inkscape.org/namespaces/inkscape"
   width="37.142097mm"
   height="27.085258mm"
   viewBox="0 0 37.142097 27.085258"
   version="1.1"
   id="svg834"
   inkscape:version="0.92.3 (2405546, 2018-03-11)"
   sodipodi:docname="guix-pull2.svg">
  <defs
     id="defs828" />
  <sodipodi:namedview
     id="base"
     pagecolor="#ffffff"
     bordercolor="#666666"
     borderopacity="1.0"
     inkscape:pageopacity="0.0"
     inkscape:pageshadow="2"
     inkscape:zoom="5.0505921"
     inkscape:cx="70.189791"
     inkscape:cy="51.184742"
     inkscape:document-units="mm"
     inkscape:current-layer="layer1"
     showgrid="false"
     fit-margin-top="0"
     fit-margin-left="0"
     fit-margin-right="0"
     fit-margin-bottom="0"
     inkscape:window-width="1198"
     inkscape:window-height="1918"
     inkscape:window-x="0"
     inkscape:window-y="0"
     inkscape:window-maximized="0" />
  <metadata
     id="metadata831">
    <rdf:RDF>
      <cc:Work
         rdf:about="">
        <dc:format>image/svg+xml</dc:format>
        <dc:type
           rdf:resource="http://purl.org/dc/dcmitype/StillImage" />
        <dc:title></dc:title>
      </cc:Work>
    </rdf:RDF>
  </metadata>
  <g
     inkscape:label="Tavolo 1"
     inkscape:groupmode="layer"
     id="layer1"
     transform="translate(-71.387282,-106.56456)">
    <path
       style="fill:#800080;stroke-width:0.08466666;fill-opacity:1"
       d="m 86.366963,133.46185 c -0.300784,-0.32018 -0.168301,-0.68572 0.137641,-0.37978 0.120086,0.12009 0.129921,-0.0853 0.04642,-0.96943 -0.04992,-0.52853 -0.06897,-0.5715 -0.253398,-0.5715 -0.244236,0 -0.258034,-0.17472 -0.03009,-0.381 0.117451,-0.1063 0.169333,-0.26077 0.169333,-0.50419 0,-0.57284 0.260301,-0.70948 0.635942,-0.33384 0.252787,0.25279 0.270115,0.67634 0.02692,0.65805 -0.08812,-0.007 -0.124461,0.0337 -0.09636,0.10691 0.02481,0.0647 -0.0015,0.17373 -0.05848,0.24238 -0.05698,0.0686 -0.08091,0.21521 -0.05318,0.3257 0.102247,0.40738 0.08144,1.73956 -0.02926,1.87294 -0.149359,0.17997 -0.280679,0.16241 -0.495491,-0.0662 z m 0.350072,-2.37021 c -0.02603,-0.0421 -0.07815,-0.0267 -0.115827,0.0342 -0.03767,0.0609 -0.0472,0.14529 -0.02117,0.18741 0.02603,0.0421 0.07815,0.0267 0.115827,-0.0342 0.03767,-0.061 0.0472,-0.14529 0.02117,-0.18741 z m 1.897727,2.0065 c -0.02841,-0.0284 -0.02911,-0.37132 -0.0015,-0.762 l 0.05013,-0.71034 h -0.224243 c -0.276286,0 -0.31326,-0.28506 -0.05491,-0.42333 0.118358,-0.0633 0.169334,-0.17728 0.169334,-0.37847 0,-0.15831 0.03716,-0.38557 0.08257,-0.50502 0.108653,-0.28578 0.455029,-0.29526 0.637064,-0.0174 0.18587,0.28367 0.06598,0.5348 -0.232802,0.48762 -0.03493,-0.006 -0.0635,0.0635 -0.0635,0.15342 0,0.10504 0.06808,0.17312 0.1905,0.1905 0.255489,0.0363 0.262281,0.35549 0.0083,0.39169 -0.173471,0.0247 -0.179971,0.058 -0.1362,0.69657 0.03254,0.47481 0.01472,0.70825 -0.06104,0.79954 -0.110465,0.1331 -0.273282,0.16769 -0.363709,0.0773 z m 0.248849,-0.90084 c -0.02349,-0.0582 -0.04271,-0.0106 -0.04271,0.10584 0,0.11641 0.01922,0.16404 0.04271,0.10583 0.02349,-0.0582 0.02349,-0.15346 0,-0.21167 z m -13.139365,0.69479 c -0.03004,-0.0486 -0.0086,-0.14385 0.0477,-0.21166 0.08598,-0.10361 0.05877,-0.12329 -0.170416,-0.12329 -0.69471,0 -1.278347,-0.58077 -1.34083,-1.33423 -0.03675,-0.44312 -0.03128,-0.45751 0.163574,-0.42995 0.164793,0.0233 0.209911,0.0908 0.247155,0.3698 0.02506,0.18771 0.12031,0.44286 0.211667,0.567 0.22357,0.30379 0.652641,0.53158 0.853551,0.45315 0.145754,-0.0569 0.138495,-0.0788 -0.08583,-0.25905 -0.432734,-0.34771 -0.130839,-0.6251 0.353866,-0.32515 0.337402,0.2088 0.441521,0.36606 0.441521,0.66686 0,0.4653 -0.534779,0.92939 -0.721958,0.62652 z m 1.731446,-0.15911 c -0.461344,-0.46134 -0.273076,-1.15851 0.352656,-1.30591 0.28,-0.066 0.549488,0.11834 0.471233,0.32227 -0.0349,0.0909 -0.107866,0.12844 -0.189223,0.0972 -0.185542,-0.0712 -0.45882,0.0938 -0.45882,0.27711 0,0.43597 0.68367,0.57946 0.761455,0.15982 0.05684,-0.30664 0.295443,-0.57301 0.513282,-0.57301 0.190939,0 0.515067,0.14804 0.596485,0.27243 0.02799,0.0428 0.161215,-0.0391 0.296058,-0.18201 0.239062,-0.25329 0.448862,-0.32459 0.577465,-0.19626 0.035,0.0349 0.203274,0.0635 0.373944,0.0635 0.296022,0 0.314391,0.0169 0.39892,0.36743 l 0.08861,0.36743 0.126887,-0.40976 c 0.145787,-0.4708 0.41566,-0.59898 0.58701,-0.27881 0.07184,0.13424 0.123431,0.15837 0.191995,0.0898 0.263808,-0.26381 0.641411,0.0417 0.713213,0.577 0.04178,0.31146 0.02844,0.34524 -0.136271,0.34524 -0.119894,0 -0.212052,-0.0775 -0.268432,-0.22582 l -0.08586,-0.22581 -0.128517,0.18348 c -0.152927,0.21833 -0.35708,0.2386 -0.432177,0.0429 -0.04549,-0.11854 -0.06512,-0.11039 -0.125186,0.052 -0.05112,0.13818 -0.118833,0.18013 -0.239728,0.14851 -0.124697,-0.0326 -0.16849,-0.002 -0.16849,0.11735 0,0.10192 -0.05907,0.1614 -0.160275,0.1614 -0.175719,0 -0.263059,-0.1569 -0.263059,-0.47259 0,-0.24739 -0.132119,-0.27152 -0.193865,-0.0354 -0.05902,0.22568 -0.398801,0.23158 -0.398801,0.007 0,-0.0893 -0.02858,-0.2322 -0.0635,-0.3175 -0.04458,-0.10888 -0.07611,-0.029 -0.105834,0.26825 -0.03591,0.35909 -0.07124,0.42744 -0.232833,0.45039 -0.128133,0.0182 -0.1905,-0.0165 -0.1905,-0.10584 0,-0.17481 -0.0499,-0.16765 -0.254,0.0364 -0.199218,0.19922 -0.529018,0.22105 -0.675374,0.0447 -0.09108,-0.10974 -0.11834,-0.10974 -0.228082,0 -0.06855,0.0686 -0.277249,0.12464 -0.463771,0.12464 -0.261941,0 -0.395464,-0.0563 -0.586619,-0.24749 z m 1.684568,-0.36548 c -0.01488,-0.1043 -0.09373,-0.20234 -0.175222,-0.21788 -0.169837,-0.0324 -0.198243,0.15424 -0.04657,0.30592 0.157663,0.15766 0.251527,0.1204 0.221788,-0.088 z m 1.484889,-0.31836 c 0.08188,-0.10751 0.07603,-0.11087 -0.03807,-0.0219 -0.07413,0.0578 -0.154828,0.0851 -0.179319,0.0606 -0.02449,-0.0245 -0.02288,0.0616 0.0036,0.19123 0.03929,0.19251 0.05444,0.2047 0.0826,0.0664 0.01897,-0.0931 0.07801,-0.22648 0.131205,-0.29633 z m -0.759972,0.1226 c 0.02891,-0.0753 0.01472,-0.10933 -0.03328,-0.0797 -0.04603,0.0284 -0.0837,0.0876 -0.0837,0.1314 0,0.12178 0.06069,0.095 0.116972,-0.0517 z m -2.307506,-0.35544 c 0.105315,-0.13428 0.10232,-0.13728 -0.03197,-0.032 -0.08149,0.0639 -0.148166,0.13059 -0.148166,0.14817 0,0.0697 0.06953,0.0248 0.180133,-0.1162 z m 5.5772,0.71125 c 0,-0.16245 -0.06668,-0.41464 -0.148167,-0.56042 -0.141111,-0.25244 -0.141111,-0.27035 0,-0.37603 0.08149,-0.061 0.148167,-0.18841 0.148167,-0.28307 0,-0.1762 0.208212,-0.31319 0.346307,-0.22784 0.148394,0.0917 0.07654,0.38193 -0.113474,0.45831 -0.104775,0.0421 -0.144404,0.079 -0.08807,0.0819 0.133918,0.007 0.301514,0.57379 0.264917,0.8959 -0.02118,0.18643 -0.07851,0.25954 -0.219185,0.27952 -0.166321,0.0236 -0.1905,-0.0104 -0.1905,-0.26831 z m 0.731704,0.0491 c -0.02216,-0.0358 -0.08716,-0.53317 -0.144436,-1.10516 -0.107995,-1.07839 -0.07155,-1.28045 0.211374,-1.17188 0.102235,0.0392 0.132989,0.18271 0.133988,0.62508 0.0014,0.63748 0.09355,0.90388 0.228909,0.66201 0.109418,-0.19552 0.561705,-0.14569 0.601934,0.0663 0.01879,0.099 -0.03283,0.17041 -0.144268,0.19955 -0.09742,0.0255 -0.252493,0.2085 -0.353583,0.41733 -0.167649,0.34632 -0.419901,0.49125 -0.533918,0.30677 z m 0.309499,-0.3017 c 0.02383,-0.0621 -0.0066,-0.11288 -0.06754,-0.11288 -0.06097,0 -0.09136,0.0508 -0.06754,0.11288 0.02383,0.0621 0.05422,0.11289 0.06754,0.11289 0.01332,0 0.04371,-0.0508 0.06754,-0.11289 z m 7.002694,-0.14032 c -0.09917,-0.13926 -0.176942,-0.32024 -0.172836,-0.40216 0.0041,-0.0819 0.01597,-0.49186 0.02637,-0.91096 0.01784,-0.71911 0.02963,-0.76352 0.209404,-0.78905 0.18097,-0.0257 0.1905,7.6e-4 0.1905,0.52916 v 0.55622 h 0.255816 c 0.190226,0 0.280368,0.0539 0.351582,0.21019 0.08699,0.19092 0.105318,0.19712 0.199965,0.0677 0.07587,-0.10377 0.0795,-0.18204 0.01334,-0.28798 -0.0669,-0.10712 -0.06156,-0.18078 0.02025,-0.27935 0.164312,-0.19799 0.478809,-0.16262 0.665604,0.0749 0.191765,0.24379 0.325364,0.91629 0.190931,0.9611 -0.04885,0.0163 -0.08883,0.0699 -0.08883,0.11905 0,0.14696 -0.280077,0.31421 -0.530982,0.31709 -0.167721,0.002 -0.261342,-0.0559 -0.328237,-0.20271 l -0.09359,-0.2054 -0.208456,0.24773 c -0.265462,0.31549 -0.473456,0.31386 -0.700841,-0.006 z m 1.500506,-0.0519 c -0.02813,-0.0281 -0.10116,-0.0311 -0.162278,-0.007 -0.06754,0.027 -0.04748,0.0471 0.05115,0.0512 0.08925,0.004 0.139259,-0.0163 0.111125,-0.0445 z m -0.994366,-0.43568 c 6.88e-4,-0.0582 -0.05057,-0.10583 -0.113963,-0.10583 -0.07838,0 -0.101835,0.0702 -0.07331,0.21945 0.03063,0.16024 0.06138,0.1888 0.113962,0.10583 0.03961,-0.0625 0.07259,-0.16124 0.07331,-0.21945 z m -0.398383,0.0601 c -0.02484,-0.095 -0.06408,-0.15377 -0.0872,-0.13065 -0.0458,0.0458 0.0351,0.30334 0.0953,0.30334 0.02039,0 0.01674,-0.0777 -0.0081,-0.17269 z m 1.415679,0.13536 c 0,-0.0205 -0.0381,-0.0609 -0.08467,-0.0897 -0.04657,-0.0288 -0.08467,-0.012 -0.08467,0.0373 0,0.0493 0.0381,0.0897 0.08467,0.0897 0.04657,0 0.08467,-0.0168 0.08467,-0.0373 z m 0.252704,-0.3225 c -0.001,-0.14874 -0.01835,-0.16354 -0.07908,-0.0675 -0.04278,0.0676 -0.059,0.15335 -0.03604,0.1905 0.07344,0.11882 0.116453,0.0729 0.11512,-0.12296 z m -0.21037,-0.5715 c -0.02878,-0.0466 -0.0977,-0.0841 -0.153164,-0.0834 -0.06059,7.7e-4 -0.05015,0.0341 0.02617,0.0834 0.162655,0.10512 0.191965,0.10512 0.127,0 z m -5.309429,1.26512 c -0.228655,-0.1333 -0.287051,-0.6496 -0.110544,-0.97736 0.08229,-0.1528 0.207341,-0.29997 0.27789,-0.32704 0.379563,-0.14566 0.655229,0.29778 0.413995,0.66595 -0.124685,0.19029 -0.122817,0.19959 0.03197,0.15911 0.264874,-0.0693 0.317384,0.22126 0.07383,0.4085 -0.226034,0.17378 -0.467821,0.19871 -0.687145,0.0708 z m 2.76943,-0.18562 c -0.02036,-0.0582 -0.03221,-0.16298 -0.02634,-0.23283 0.02912,-0.34634 -0.01907,-0.42334 -0.265,-0.42334 -0.136951,0 -0.273581,-0.0398 -0.303622,-0.0884 -0.08362,-0.13529 0.125806,-0.33495 0.351325,-0.33495 0.164776,0 0.200088,-0.0422 0.194616,-0.23284 -0.0037,-0.12806 -0.0259,-0.18521 -0.04939,-0.127 -0.05974,0.14805 -0.362385,0.13239 -0.42156,-0.0218 -0.02694,-0.0702 0.01474,-0.22491 0.09262,-0.34378 0.104347,-0.15925 0.201486,-0.20921 0.369143,-0.18984 0.188778,0.0218 0.246671,0.0912 0.339903,0.40728 0.0618,0.20955 0.155293,0.4692 0.207754,0.577 0.07427,0.15262 0.07029,0.21152 -0.018,0.26608 -0.07525,0.0465 -0.09414,0.14674 -0.05617,0.29803 0.03147,0.12537 0.03406,0.30091 0.0058,0.39008 -0.05729,0.18052 -0.363287,0.22144 -0.421047,0.0563 z m 3.359875,-0.11942 c 0.03004,-0.25255 0.259066,-0.33495 0.413564,-0.14879 0.146012,0.17593 0.02927,0.37404 -0.220407,0.37404 -0.188418,0 -0.216107,-0.0323 -0.193157,-0.22525 z m 0.605549,0.0925 c -0.07407,-0.19304 0.06408,-0.31022 0.308163,-0.2614 0.127261,0.0255 0.275312,0.002 0.329003,-0.0513 0.129953,-0.12996 0.377306,0.10752 0.305877,0.29365 -0.06619,0.1725 -0.877871,0.18893 -0.943043,0.0191 z m 12.532857,-1.68762 c -0.0268,-0.0699 -0.0268,-0.18415 0,-0.254 0.0367,-0.0958 -0.0147,-0.127 -0.20912,-0.127 -0.17362,0 -0.34083,-0.083 -0.51186,-0.254 -0.1397,-0.1397 -0.27128,-0.254 -0.2924,-0.254 -0.0211,0 -0.15549,0.13335 -0.29859,0.29633 -0.14687,0.16728 -0.33934,0.29589 -0.44192,0.2953 -0.1,-5.8e-4 -0.47834,-0.13053 -0.84087,-0.2888 l -0.65915,-0.28778 -0.1299,0.19826 c -0.0715,0.10904 -0.22499,0.26056 -0.3412,0.3367 -0.19795,0.1297 -0.24698,0.12692 -0.77638,-0.0441 -0.3108,-0.10041 -0.7436,-0.3136 -0.96178,-0.47376 l -0.39669,-0.29119 -0.48874,0.47716 -0.488746,0.47717 -0.470136,-0.0355 c -0.335674,-0.0254 -0.700177,-0.14722 -1.274469,-0.426 -0.698073,-0.33887 -0.826703,-0.37628 -0.973666,-0.28316 -0.09313,0.059 -0.206943,0.18952 -0.252909,0.29003 -0.117031,0.25588 -0.467702,0.25001 -0.464082,-0.008 0.0046,-0.32858 0.543155,-0.8255 0.894633,-0.8255 0.08054,0 0.481996,0.17203 0.892118,0.38228 0.41012,0.21026 0.908701,0.40378 1.107956,0.43004 0.350798,0.0462 0.376955,0.0328 0.825061,-0.42462 0.56062,-0.57225 0.71486,-0.58924 1.35388,-0.1491 0.25814,0.1778 0.63627,0.37133 0.84028,0.43006 l 0.37094,0.10679 0.37074,-0.36384 0.37073,-0.36385 0.69766,0.34561 0.69766,0.3456 0.33867,-0.32715 c 0.50272,-0.48563 0.61342,-0.49507 0.96829,-0.0826 0.23948,0.27837 0.35846,0.35042 0.57687,0.34938 0.3523,-0.002 0.34686,-0.083 -0.0254,-0.37982 -0.20269,-0.1616 -0.29228,-0.29723 -0.27516,-0.41653 0.0366,-0.25512 0.25558,-0.26073 0.61651,-0.0158 0.1732,0.11754 0.45395,0.23581 0.62389,0.26283 0.42463,0.0675 0.55822,0.15214 0.59112,0.37445 0.0374,0.25246 -0.25127,0.54817 -0.65237,0.66834 -0.17703,0.053 -0.39112,0.17296 -0.47577,0.2665 -0.18235,0.20149 -0.36788,0.21983 -0.43571,0.0431 z m 0.68357,-0.55921 c -0.0739,-0.11954 -0.20619,-0.0884 -0.20619,0.0486 0,0.0755 0.0497,0.10529 0.12652,0.0758 0.0696,-0.0267 0.10543,-0.0827 0.0797,-0.12434 z m -4.58769,0.0375 c -0.0582,-0.0235 -0.15346,-0.0235 -0.21166,0 -0.0582,0.0235 -0.0106,0.0427 0.10583,0.0427 0.11642,0 0.16404,-0.0192 0.10583,-0.0427 z m 5.24965,-0.46279 c -0.0351,-0.0343 -0.17676,-0.0744 -0.31481,-0.0892 -0.19557,-0.021 -0.25814,0.0105 -0.28338,0.14242 -0.0262,0.13697 -0.0114,0.14911 0.0774,0.0635 0.0604,-0.0582 0.18284,-0.10583 0.27209,-0.10583 0.12607,0 0.15157,0.0425 0.11428,0.1905 -0.0464,0.18424 -0.044,0.18509 0.0751,0.0257 0.0677,-0.0906 0.0944,-0.19282 0.0593,-0.22709 z m -11.017346,-0.1373 c 0.105314,-0.13429 0.102319,-0.13729 -0.03197,-0.032 -0.141034,0.1106 -0.185883,0.18013 -0.1162,0.18013 0.0176,0 0.08426,-0.0667 0.148167,-0.14817 z m 10.126266,-0.15699 c -0.0281,-0.0281 -0.10116,-0.0311 -0.16228,-0.007 -0.0675,0.027 -0.0475,0.0471 0.0511,0.0512 0.0893,0.004 0.13927,-0.0163 0.11113,-0.0445 z M 72.002037,129.814 c -0.312367,-0.31237 -0.562262,-0.92019 -0.608721,-1.4806 -0.07252,-0.87474 0.517706,-1.61826 1.28462,-1.61826 0.372465,0 0.635602,0.18471 0.635602,0.44617 0,0.22458 -0.157272,0.25294 -0.389539,0.0702 -0.194318,-0.15285 -0.248246,-0.15986 -0.486016,-0.0631 -0.554318,0.22552 -0.767421,0.84941 -0.553698,1.62104 0.151302,0.54626 0.378852,0.80433 0.709206,0.80433 0.419142,0 0.645341,-0.31315 0.536352,-0.74254 -0.07855,-0.30947 -0.09121,-0.31827 -0.413607,-0.28753 -0.252322,0.0241 -0.345678,-0.002 -0.386878,-0.1098 -0.08526,-0.22219 0.04533,-0.2754 0.79368,-0.32335 0.637776,-0.0409 0.6985,-0.0312 0.6985,0.11086 0,0.0856 -0.07821,0.18044 -0.173791,0.21078 -0.146344,0.0464 -0.156554,0.0759 -0.06465,0.18666 0.06003,0.0723 0.117416,0.25011 0.127527,0.39505 0.01011,0.14495 0.02968,0.37784 0.04348,0.51754 0.02057,0.20821 -0.0092,0.25888 -0.165403,0.28105 -0.108572,0.0154 -0.1905,-0.0175 -0.1905,-0.0766 0,-0.0654 -0.06213,-0.0474 -0.168475,0.0488 -0.09456,0.0856 -0.351819,0.17009 -0.58635,0.19262 -0.367131,0.0353 -0.445011,0.013 -0.641343,-0.18331 z m 1.496666,-0.34307 c 0.08981,0.0509 0.09065,0.041 0.0044,-0.0519 -0.08906,-0.0959 -0.138233,-0.0809 -0.296333,0.0903 -0.185347,0.20067 -0.185445,0.20182 -0.0044,0.0519 0.106189,-0.0879 0.232579,-0.12643 0.296333,-0.0903 z m -0.07906,-0.65155 c -0.04697,-0.047 -0.0594,0.032 -0.0315,0.20026 0.03898,0.23511 0.0509,0.24704 0.07756,0.0776 0.01733,-0.11014 -0.0034,-0.23516 -0.04606,-0.27782 z m -1.828035,-0.77074 c -0.02349,-0.0582 -0.0427,-0.0106 -0.0427,0.10583 0,0.11642 0.01922,0.16404 0.0427,0.10583 0.02349,-0.0582 0.02349,-0.15346 0,-0.21166 z m 2.90726,1.73098 c -0.416868,-0.14194 -0.767397,-1.29007 -0.469375,-1.53741 0.174168,-0.14454 0.300042,-0.036 0.300042,0.25864 0,0.30687 0.212051,0.83895 0.334346,0.83895 0.05318,0 0.08899,-0.22385 0.08899,-0.55622 0,-0.52303 0.01099,-0.55461 0.184199,-0.52917 0.151393,0.0222 0.20196,0.11636 0.283928,0.52847 0.06449,0.32424 0.163946,0.55341 0.281468,0.64857 0.09996,0.0809 0.181738,0.20773 0.181738,0.28176 0,0.18085 -0.369082,0.17675 -0.551969,-0.006 -0.08472,-0.0847 -0.162948,-0.10753 -0.196547,-0.0573 -0.07929,0.11849 -0.288,0.18054 -0.436817,0.12987 z m 0.617448,-0.52353 c -0.02422,-0.0926 -0.07965,-0.14637 -0.123185,-0.11946 -0.04671,0.0289 -0.03851,0.0979 0.01999,0.16838 0.133556,0.16092 0.155364,0.15058 0.103192,-0.0489 z m -0.984708,-0.78412 c -0.02349,-0.0582 -0.04271,-0.0106 -0.04271,0.10583 0,0.11642 0.01922,0.16404 0.04271,0.10584 0.02349,-0.0582 0.02349,-0.15346 0,-0.21167 z m 2.90726,1.21684 c 0,-0.0874 0.0567,-0.29469 0.125998,-0.46055 l 0.125998,-0.30155 -0.295331,-0.1068 c -0.226741,-0.082 -0.295331,-0.15446 -0.295331,-0.31203 0,-0.17885 0.02994,-0.1992 0.232833,-0.15826 0.128058,0.0258 0.290868,0.0695 0.3618,0.0969 0.08889,0.0344 0.158932,-0.0294 0.225406,-0.20554 0.09488,-0.25136 0.320421,-0.41365 0.426898,-0.30717 0.02987,0.0299 0.005,0.24655 -0.05519,0.48152 l -0.109493,0.42722 0.263207,0.23499 c 0.460237,0.4109 0.254227,0.72124 -0.227326,0.34246 l -0.220907,-0.17377 -0.154303,0.30077 c -0.16469,0.32101 -0.404257,0.40503 -0.404257,0.14177 z m 0.48117,-0.87288 c -0.02703,-0.0675 -0.04709,-0.0475 -0.05115,0.0511 -0.0037,0.0893 0.01633,0.13926 0.04447,0.11112 0.02813,-0.0281 0.03114,-0.10116 0.0067,-0.16228 z m -1.366257,0.75671 c -0.265887,-0.85 -0.329082,-0.99484 -0.43405,-0.99484 -0.07176,0 -0.120196,-0.0853 -0.120196,-0.21166 0,-0.25609 0.232432,-0.28595 0.494402,-0.0635 0.148221,0.12585 0.436931,0.97311 0.436931,1.28222 0,0.12931 -0.336222,0.11841 -0.377087,-0.0122 z m 3.885776,-0.44397 c -0.544249,-0.57707 -0.582103,-1.62248 -0.07704,-2.12755 0.339428,-0.33943 0.971017,-0.22062 0.971017,0.18266 0,0.23251 -0.175695,0.27806 -0.33449,0.0867 -0.219371,-0.26432 -0.596963,0.19862 -0.596712,0.7316 1.69e-4,0.32962 0.232792,0.82167 0.449327,0.95036 0.121125,0.072 0.178631,0.0567 0.275167,-0.0733 0.203145,-0.27357 0.156058,-0.46253 -0.110706,-0.44426 -0.178903,0.0123 -0.238692,-0.0256 -0.258442,-0.16352 -0.02976,-0.20784 0.162475,-0.28325 0.726679,-0.28505 0.408891,-0.001 0.577727,0.19809 0.324511,0.38325 -0.119469,0.0874 -0.134517,0.18378 -0.08589,0.55035 l 0.05896,0.44445 -0.226222,-0.0433 c -0.124422,-0.0238 -0.246612,-0.0102 -0.271532,0.0301 -0.02492,0.0403 -0.162387,0.0733 -0.305482,0.0733 -0.187572,0 -0.33802,-0.0825 -0.539145,-0.2958 z m 1.063311,-0.25453 c 0,-0.0699 -0.01497,-0.127 -0.03327,-0.127 -0.0183,0 -0.05521,0.0572 -0.08201,0.127 -0.0268,0.0699 -0.01183,0.127 0.03328,0.127 0.04511,0 0.08201,-0.0571 0.08201,-0.127 z m 0.756647,0.30902 c -0.401971,-0.3255 -0.183516,-1.36736 0.286705,-1.36736 0.452033,0 0.560983,0.61997 0.163148,0.92838 l -0.232833,0.18049 0.270962,-0.1311 c 0.149029,-0.0721 0.320848,-0.1311 0.381819,-0.1311 0.06879,0 0.110545,-0.10441 0.110037,-0.27517 -6.87e-4,-0.21899 0.03375,-0.27516 0.168515,-0.27516 0.09313,0 0.21968,-0.0476 0.281215,-0.10584 0.160302,-0.15164 0.474825,-0.13048 0.629406,0.0423 0.156821,0.17532 0.434216,1.08541 0.364979,1.19744 -0.114888,0.1859 -0.372775,-0.0202 -0.47293,-0.37788 -0.151973,-0.54279 -0.312926,-0.64129 -0.380931,-0.23311 -0.07837,0.47042 -0.106233,0.53334 -0.262729,0.5934 -0.08719,0.0335 -0.184526,-0.005 -0.254573,-0.10093 -0.104077,-0.14234 -0.125715,-0.14401 -0.262924,-0.0204 -0.257178,0.23177 -0.561322,0.26102 -0.789866,0.076 z m 1.36002,-0.47836 c 0,-0.0644 -0.0381,-0.14055 -0.08467,-0.16933 -0.04821,-0.0298 -0.08467,0.0431 -0.08467,0.16933 0,0.12622 0.03646,0.19913 0.08467,0.16934 0.04657,-0.0288 0.08467,-0.10498 0.08467,-0.16934 z m 5.312833,0.54355 c -0.217461,-0.12666 -0.180652,-0.47525 0.110894,-1.05022 l 0.256915,-0.50667 -0.202837,-0.0676 c -0.18928,-0.0631 -0.31748,-0.23911 -0.428924,-0.58892 -0.05421,-0.17016 0.322632,-0.65846 0.50816,-0.65846 0.06783,0 0.221117,0.0978 0.340644,0.21732 0.19655,0.19655 0.214096,0.26797 0.183579,0.74723 -0.02223,0.34915 -0.110757,0.68553 -0.259514,0.98612 -0.124175,0.25091 -0.211342,0.47063 -0.193706,0.48826 0.01764,0.0176 0.244441,-0.0297 0.504011,-0.10513 0.296947,-0.0863 0.471945,-0.18341 0.471945,-0.26183 0,-0.20009 0.306812,-0.14353 0.455929,0.084 0.197697,0.30172 0.173695,0.46865 -0.06739,0.46865 -0.112267,0 -0.445642,0.0757 -0.740833,0.16824 -0.607719,0.1905 -0.729776,0.20076 -0.938877,0.079 z m 0.129488,-0.33524 c -0.02484,-0.095 -0.06408,-0.15377 -0.0872,-0.13065 -0.04581,0.0458 0.0351,0.30334 0.0953,0.30334 0.02039,0 0.01674,-0.0777 -0.0081,-0.17269 z m 1.098179,-0.0527 c -0.05821,-0.0235 -0.153459,-0.0235 -0.211667,0 -0.05821,0.0235 -0.01058,0.0427 0.105833,0.0427 0.116417,0 0.164042,-0.0192 0.105834,-0.0427 z m -0.784463,-1.70076 c -6.88e-4,-0.0349 -0.03674,-0.11955 -0.08006,-0.18805 -0.09755,-0.15424 -0.211989,-0.0578 -0.143424,0.1209 0.05064,0.13196 0.225885,0.18462 0.223487,0.0672 z m -0.32657,-0.42333 c 0.105314,-0.13429 0.102319,-0.13728 -0.03197,-0.032 -0.08149,0.0639 -0.148167,0.13058 -0.148167,0.14816 0,0.0697 0.06953,0.0248 0.180134,-0.1162 z m -3.551905,2.20804 c 0.01993,-0.17395 0.0738,-0.23954 0.196771,-0.23954 0.260575,0 0.235402,0.41397 -0.02744,0.45121 -0.171104,0.0242 -0.193192,-0.003 -0.169333,-0.21167 z m 2.424245,-0.0346 c -0.08809,-0.0497 -0.163174,-0.23502 -0.195122,-0.48156 -0.109843,-0.84765 -0.109556,-0.84724 -0.346851,-0.49803 -0.214025,0.31497 -0.487389,0.40536 -0.570542,0.18867 -0.02539,-0.0662 0.04535,-0.21902 0.157184,-0.33969 0.19096,-0.20605 0.280187,-0.43522 0.447238,-1.14869 0.04923,-0.21028 0.116075,-0.29634 0.230166,-0.29634 0.191694,0 0.22948,0.13217 0.430462,1.50561 0.149512,1.02171 0.120646,1.22421 -0.152535,1.07003 z m -0.229108,-2.11054 -0.063,-0.29576 -0.04255,0.2731 c -0.02427,0.15581 -0.0035,0.28719 0.04832,0.30591 0.127323,0.046 0.127343,0.0459 0.05723,-0.28325 z m -10.984748,0.72024 c -0.0746,-0.1944 0.03005,-0.381 0.213669,-0.381 0.18264,0 0.256288,0.13403 0.197725,0.35983 -0.04698,0.18114 -0.344141,0.19643 -0.411394,0.0212 z m 8.792707,-1.32821 c -0.05646,-0.0565 -0.102658,-0.19294 -0.102658,-0.30328 0,-0.15962 0.03893,-0.19509 0.1905,-0.17357 0.147829,0.021 0.1905,0.0824 0.1905,0.274 0,0.27304 -0.120408,0.36078 -0.278342,0.20285 z m -0.241373,-1.21179 c -0.0749,-0.19517 0.03652,-0.39674 0.201959,-0.36537 0.08963,0.017 0.159035,0.12009 0.175213,0.26026 0.02167,0.18779 -0.0071,0.23211 -0.150824,0.23211 -0.09769,0 -0.199545,-0.0572 -0.226348,-0.127 z m -0.336266,-0.92508 c -0.07703,-0.20073 0.03196,-0.40346 0.199559,-0.37119 0.201336,0.0388 0.201336,0.43709 0,0.47587 -0.08163,0.0157 -0.171435,-0.0314 -0.199559,-0.10468 z m -0.315241,-1.03637 c -0.115491,-0.11549 -0.05098,-0.34856 0.107986,-0.39013 0.205049,-0.0536 0.258902,-0.002 0.258902,0.24902 0,0.19168 -0.228452,0.27955 -0.366888,0.14111 z m -0.279827,-1.50988 c -0.07489,-0.19518 0.03652,-0.39675 0.20196,-0.36537 0.08963,0.017 0.159034,0.12009 0.175212,0.26026 0.02168,0.18778 -0.0071,0.23211 -0.150823,0.23211 -0.09769,0 -0.199545,-0.0572 -0.226349,-0.127 z m -0.169333,-1.43934 c -0.07489,-0.19517 0.03652,-0.39674 0.20196,-0.36536 0.08963,0.017 0.159034,0.12009 0.175212,0.26025 0.02168,0.18779 -0.0071,0.23211 -0.150823,0.23211 -0.09769,0 -0.199545,-0.0572 -0.226349,-0.127 z m -0.57045,-1.44249 c -0.07553,-0.19682 0.0081,-0.29317 0.254384,-0.29317 0.172003,0 0.207396,0.0363 0.185503,0.1905 -0.03297,0.23214 -0.360839,0.30866 -0.439887,0.10267 z m -0.165724,-1.11162 c -0.03104,-0.031 -0.05644,-0.14799 -0.05644,-0.25989 0,-0.16255 0.03829,-0.198 0.1905,-0.17639 0.254973,0.0362 0.332091,0.49273 0.08324,0.49273 -0.08847,0 -0.186246,-0.0254 -0.217291,-0.0564 z m -0.362092,-1.3343 c -0.07703,-0.20073 0.03196,-0.40346 0.199559,-0.37119 0.201336,0.0388 0.201336,0.43709 0,0.47587 -0.08163,0.0157 -0.171434,-0.0314 -0.199559,-0.10468 z M 82.42426,115.1512 c -0.09248,-0.241 -0.05421,-0.37407 0.107575,-0.37407 0.203136,0 0.38257,0.21381 0.318829,0.37992 -0.06474,0.1687 -0.360983,0.16464 -0.426404,-0.006 z m -5.861218,-1.34369 c -0.02595,-0.0676 -0.0225,-0.16287 0.0076,-0.21166 0.0338,-0.0547 -0.04771,-0.0887 -0.212536,-0.0887 -0.342207,0 -0.770836,-0.20321 -0.914764,-0.43367 -0.06172,-0.0988 -0.133727,-0.388 -0.160001,-0.64257 -0.04651,-0.45061 -0.04241,-0.46209 0.154827,-0.43414 0.168699,0.0239 0.214982,0.0968 0.276623,0.43548 0.09068,0.49828 0.25991,0.62418 0.969359,0.72121 0.506011,0.0692 0.519919,0.0662 0.384382,-0.0836 -0.07734,-0.0855 -0.187794,-0.15539 -0.245444,-0.15539 -0.121864,0 -0.230179,-0.23364 -0.160548,-0.34631 0.09337,-0.15108 0.375014,-0.073 0.669665,0.18575 0.485734,0.42648 0.366518,0.74428 -0.403204,1.07485 -0.29833,0.12813 -0.308929,0.12751 -0.366009,-0.0212 z m 3.128539,-0.2441 c -0.266165,-0.24392 -0.313323,-0.34495 -0.346228,-0.74175 -0.04812,-0.58027 0.122723,-0.82843 0.615849,-0.89457 0.270677,-0.0363 0.369834,-0.0105 0.496236,0.12918 0.08688,0.096 0.135492,0.23312 0.108023,0.3047 -0.05622,0.14649 -0.271921,0.1744 -0.351593,0.0455 -0.09009,-0.14577 -0.370863,-0.0925 -0.467886,0.0888 -0.213635,0.39918 0.277591,1.09244 0.696463,0.9829 0.10227,-0.0267 0.245077,-0.003 0.31735,0.0537 0.116835,0.0909 0.117865,0.0851 0.0093,-0.053 -0.06976,-0.0887 -0.122115,-0.33864 -0.122115,-0.58293 0,-0.34426 0.03802,-0.45844 0.194996,-0.58554 0.273802,-0.22172 0.488806,-0.19702 0.774813,0.089 0.135788,0.13578 0.270061,0.20939 0.298385,0.16356 0.02832,-0.0458 0.101641,-0.0641 0.162927,-0.0406 0.06129,0.0235 0.132436,-0.012 0.158112,-0.0789 0.06165,-0.16067 0.443792,-0.15663 0.505949,0.005 0.0268,0.0698 0.142458,0.127 0.257011,0.127 0.114551,0 0.266574,0.0583 0.337829,0.12955 0.116293,0.11629 0.143131,0.10329 0.262222,-0.127 0.154119,-0.29803 0.417221,-0.33841 0.552922,-0.0849 0.05054,0.0944 0.12778,0.14953 0.171642,0.12242 0.04386,-0.0271 0.134383,-0.0187 0.201158,0.0188 0.163963,0.0919 0.557264,0.68044 0.557264,0.83384 0,0.1782 -0.286997,0.15133 -0.463201,-0.0434 -0.118477,-0.13092 -0.185931,-0.1478 -0.314868,-0.0788 -0.117183,0.0627 -0.198844,0.059 -0.285676,-0.0131 -0.06687,-0.0555 -0.121587,-0.0643 -0.121587,-0.0195 0,0.0927 -0.369353,0.27796 -0.554317,0.27796 -0.06766,0 -0.123016,-0.0572 -0.123016,-0.127 0,-0.0699 -0.0381,-0.127 -0.08467,-0.127 -0.04657,0 -0.08467,0.0571 -0.08467,0.127 0,0.17198 -0.390227,0.16606 -0.456608,-0.007 -0.02827,-0.0737 -0.05139,-0.24736 -0.05139,-0.386 0,-0.13864 -0.03447,-0.23076 -0.07661,-0.20472 -0.04214,0.026 -0.05617,0.19974 -0.03119,0.38599 0.04083,0.30444 0.02698,0.33865 -0.137154,0.33865 -0.120764,0 -0.213254,-0.0788 -0.273189,-0.23283 l -0.09061,-0.23283 -0.09779,0.29451 c -0.117241,0.35312 -0.470908,0.52369 -0.738856,0.35635 -0.11858,-0.074 -0.214192,-0.0792 -0.32898,-0.0178 -0.333221,0.17833 -0.750919,0.10235 -1.076237,-0.19578 z m 1.83462,-0.42881 c 0,-0.19421 -0.217193,-0.55881 -0.332883,-0.55881 -0.03811,0 -0.09339,0.12054 -0.122855,0.26786 -0.06989,0.34946 0.150072,0.72709 0.334403,0.57411 0.06673,-0.0554 0.121335,-0.18281 0.121335,-0.28316 z m 1.326074,0.0127 c -0.02349,-0.0582 -0.0427,-0.0106 -0.0427,0.10584 0,0.11641 0.01922,0.16404 0.0427,0.10583 0.02349,-0.0582 0.02349,-0.15346 0,-0.21167 z m 1.478727,-0.127 c 0.105314,-0.13428 0.102319,-0.13728 -0.03197,-0.032 -0.141034,0.1106 -0.185884,0.18013 -0.1162,0.18013 0.01758,0 0.08426,-0.0667 0.148167,-0.14817 z m -0.38956,-0.42815 c -0.02607,-0.0261 -0.09439,-5e-5 -0.151818,0.0578 -0.083,0.0836 -0.07327,0.0934 0.0474,0.0474 0.0835,-0.0318 0.13049,-0.0791 0.104422,-0.10521 z m 4.75664,0.99833 c -0.323012,-0.25408 -0.441802,-0.68544 -0.276689,-1.00474 0.09869,-0.19084 0.110483,-0.30988 0.04719,-0.47636 -0.04641,-0.12206 -0.08438,-0.33303 -0.08438,-0.46881 0,-0.30826 0.283892,-0.40335 0.769671,-0.25781 0.283201,0.0848 0.330996,0.13365 0.330996,0.33796 0,0.13133 -0.0882,0.36876 -0.196007,0.52762 -0.174811,0.2576 -0.18438,0.3161 -0.08849,0.54098 0.20331,0.47678 0.108212,0.97182 -0.186689,0.97182 -0.05426,0 -0.196278,-0.0768 -0.315604,-0.17066 z m 0.190822,-0.51818 c -0.09094,-0.31709 -0.166036,-0.41148 -0.166036,-0.20871 0,0.14562 0.14464,0.47421 0.208736,0.47421 0.01839,0 -8.47e-4,-0.11947 -0.0427,-0.2655 z m 0.08585,-1.29448 c -0.113883,-0.11388 -0.19858,10e-4 -0.130791,0.17812 0.04864,0.12676 0.06898,0.13064 0.133934,0.0255 0.0462,-0.0747 0.04495,-0.15556 -0.0031,-0.20365 z m -0.31199,-0.13347 c 0.02437,-0.0932 0.0098,-0.1481 -0.03246,-0.122 -0.04223,0.0261 -0.07677,0.10235 -0.07677,0.16945 0,0.17524 0.05753,0.15025 0.109229,-0.0474 z m -2.187843,1.71462 c -0.02741,-0.12806 -0.185083,-0.69834 -0.350381,-1.26728 -0.29514,-1.01586 -0.31386,-1.29389 -0.08712,-1.29389 0.07017,0 0.189862,0.26804 0.311911,0.6985 0.251575,0.88731 0.239527,0.87039 0.439099,0.61667 0.181999,-0.23137 0.400531,-0.27521 0.562838,-0.1129 0.154872,0.15487 0.121288,0.32173 -0.06475,0.32173 -0.216308,0 -0.341646,0.24391 -0.341646,0.66484 0,0.44561 -0.06893,0.60516 -0.261445,0.60516 -0.104559,0 -0.175658,-0.0794 -0.208502,-0.23283 z m 0.187354,-0.46567 c -0.02349,-0.0582 -0.0427,-0.0106 -0.0427,0.10584 0,0.11641 0.01922,0.16404 0.0427,0.10583 0.02349,-0.0582 0.02349,-0.15346 0,-0.21167 z m 3.159548,0.52597 c -0.106453,-0.19891 -0.04265,-0.4605 0.182692,-0.74905 0.161268,-0.20651 0.22743,-0.94108 0.08476,-0.94108 -0.04011,0 -0.05472,0.0952 -0.03246,0.21166 0.03482,0.18216 0.0096,0.21167 -0.181074,0.21167 -0.197519,0 -0.221538,-0.0327 -0.221538,-0.3019 0,-0.44024 0.129436,-0.62943 0.430633,-0.62943 0.214847,0 0.276294,0.0501 0.387461,0.3162 0.15302,0.36623 0.10719,1.03287 -0.0919,1.33671 -0.124089,0.18939 -0.122343,0.19082 0.120643,0.0991 0.142927,-0.0539 0.25698,-0.16554 0.271357,-0.26551 0.02812,-0.19551 0.321137,-0.29525 0.321137,-0.1093 0,0.15637 0.39833,0.33548 0.602198,0.27077 0.08767,-0.0278 0.184165,-0.14923 0.214424,-0.26979 0.06594,-0.26272 -0.135186,-0.44685 -0.48809,-0.44685 -0.343448,0 -0.525088,-0.22277 -0.46808,-0.57408 0.05182,-0.31931 0.228305,-0.48882 0.583122,-0.56008 0.325784,-0.0654 0.501412,0.0221 0.471069,0.23477 -0.01851,0.12969 -0.09636,0.18743 -0.279643,0.2074 -0.388077,0.0423 -0.429949,0.15596 -0.08153,0.22132 0.452588,0.0849 0.716532,0.38304 0.716532,0.80934 0,0.57146 -0.583442,0.99378 -1.067945,0.77302 -0.174036,-0.0793 -0.278231,-0.0599 -0.625942,0.11626 -0.506199,0.25651 -0.725949,0.26658 -0.847825,0.0388 z m 0.567548,-1.36734 c -0.02703,-0.0675 -0.04709,-0.0475 -0.05115,0.0512 -0.0037,0.0892 0.01633,0.13926 0.04447,0.11113 0.02813,-0.0281 0.03114,-0.10116 0.0067,-0.16228 z m -5.093205,1.26471 c -0.257559,-1.13416 -0.25659,-1.09749 -0.02812,-1.06423 0.146371,0.0213 0.21813,0.13494 0.337889,0.53506 0.08363,0.2794 0.134546,0.55562 0.113152,0.61383 -0.06761,0.18394 -0.375935,0.12221 -0.422916,-0.0847 z m 8.001681,-0.0579 c -0.04821,-0.0901 -0.08765,-0.26409 -0.08765,-0.3867 0,-0.18619 -0.0286,-0.21386 -0.173478,-0.16788 -0.264784,0.084 -0.588522,-0.16829 -0.588522,-0.4587 0,-0.25719 0.375553,-1.15409 0.520844,-1.24389 0.135619,-0.0838 0.264291,0.0979 0.410618,0.57981 0.133765,0.44057 0.137357,0.44391 0.448359,0.41634 0.272153,-0.0241 0.313513,-0.004 0.313513,0.15257 0,0.12531 -0.07958,0.2081 -0.260727,0.27125 -0.23924,0.0834 -0.259235,0.11967 -0.242629,0.4401 0.01,0.19206 0.01298,0.39683 0.0067,0.45504 -0.01758,0.16365 -0.249157,0.12499 -0.347059,-0.0579 z m -0.20978,-1.16641 c -0.02596,-0.0677 -0.04778,-0.16751 -0.04849,-0.22191 -0.0021,-0.1569 -0.165286,0.13737 -0.166741,0.3006 -8.73e-4,0.0972 0.04251,0.1287 0.13057,0.0949 0.07253,-0.0278 0.110626,-0.10595 0.08467,-0.1736 z m 0.03747,-0.65449 c 0,-0.0205 -0.0381,-0.0609 -0.08467,-0.0897 -0.04657,-0.0288 -0.08467,-0.012 -0.08467,0.0373 0,0.0493 0.0381,0.0897 0.08467,0.0897 0.04657,0 0.08467,-0.0168 0.08467,-0.0373 z m 1.250962,1.85269 c -0.389806,-0.21154 -0.557319,-0.71469 -0.237943,-0.71469 0.09149,0 0.207136,0.0762 0.256979,0.16934 0.141491,0.26438 0.322048,0.20051 0.418881,-0.14817 0.130689,-0.47059 0.118509,-0.4986 -0.200647,-0.46134 -0.25285,0.0295 -0.306781,9.3e-4 -0.423333,-0.22446 -0.158681,-0.30685 -0.168212,-0.52136 -0.03605,-0.81142 0.121702,-0.26711 0.377691,-0.35571 0.564718,-0.19545 0.07815,0.067 0.203252,0.14329 0.277993,0.1696 0.162086,0.0571 0.242891,0.47919 0.244174,1.27558 8.47e-4,0.52658 -0.02109,0.60004 -0.246555,0.8255 -0.282076,0.28208 -0.303802,0.28614 -0.618217,0.11551 z m 0.634392,-1.70952 c -0.02421,-0.15891 -0.09181,-0.27517 -0.160016,-0.27517 -0.08621,0 -0.09672,0.04 -0.0389,0.14817 0.04356,0.0815 0.101932,0.22029 0.129711,0.30845 0.07559,0.23991 0.116892,0.13163 0.06921,-0.18145 z m -0.390515,-0.0625 c -0.06988,-0.15035 -0.105937,-0.17312 -0.126168,-0.0797 -0.03937,0.18185 0.05344,0.39559 0.146736,0.33793 0.04495,-0.0278 0.03634,-0.13582 -0.02057,-0.25827 z m 0.839439,1.67726 c -0.03083,-0.0803 0.0021,-0.19853 0.07561,-0.27214 0.117036,-0.11704 0.144034,-0.11619 0.268687,0.008 0.07622,0.0762 0.115514,0.19868 0.08732,0.27214 -0.0679,0.17696 -0.362686,0.17117 -0.43162,-0.008 z m 0.576559,-0.0656 c -0.06565,-0.17108 0.03199,-0.30039 0.226824,-0.30039 0.118846,0 0.164336,0.0586 0.164336,0.21167 0,0.15631 -0.04498,0.21167 -0.17199,0.21167 -0.0946,0 -0.193223,-0.0553 -0.21917,-0.12295 z m 0.64516,-0.0887 c 0,-0.18329 0.03423,-0.21858 0.1905,-0.19639 0.125037,0.0178 0.1905,0.0853 0.1905,0.19639 0,0.11114 -0.06546,0.17863 -0.1905,0.19639 -0.156268,0.0222 -0.1905,-0.0131 -0.1905,-0.19639 z m -11.484462,-1.18641 c -0.05697,-0.14845 0.108451,-0.37992 0.2715,-0.37992 0.157766,0 0.226334,0.14215 0.163722,0.33942 -0.06281,0.19789 -0.364069,0.22592 -0.435222,0.0405 z m 21.674668,-1.18534 c -0.0635,-0.16541 0.11471,-0.3768 0.43543,-0.51658 l 0.25403,-0.11071 -0.254,-0.003 c -0.1397,-0.002 -0.36313,0.0541 -0.49651,0.12369 -0.38881,0.20278 -0.67536,0.15283 -1.20945,-0.2108 l -0.49537,-0.33728 -0.21573,0.23145 c -0.44343,0.47573 -0.41483,0.47333 -1.21811,0.10221 l -0.73869,-0.34127 -0.39972,0.42575 c -0.55857,0.59495 -0.88964,0.57831 -1.81384,-0.0912 -0.43872,-0.31781 -0.57792,-0.30899 -0.899259,0.057 -0.15326,0.17455 -0.326324,0.2903 -0.409964,0.27419 -0.265846,-0.0512 -0.205732,-0.30624 0.154606,-0.65593 0.468207,-0.45437 0.728517,-0.45458 1.430127,-10e-4 0.81746,0.52835 0.91883,0.52561 1.40544,-0.038 0.43076,-0.49895 0.54378,-0.55374 0.71547,-0.34686 0.058,0.0698 0.16188,0.127 0.23091,0.127 0.069,0 0.31702,0.0962 0.55111,0.21377 l 0.42561,0.21377 0.33404,-0.34077 c 0.38218,-0.38989 0.47072,-0.40911 0.75255,-0.16335 0.1119,0.0976 0.3659,0.27296 0.56445,0.38973 0.35053,0.20615 0.37083,0.20837 0.70021,0.0766 0.18657,-0.0747 0.46227,-0.13873 0.61267,-0.14241 l 0.27345,-0.007 -0.23283,-0.085 c -0.16631,-0.0607 -0.23283,-0.14349 -0.23283,-0.28965 0,-0.26925 0.23271,-0.2696 0.75054,-10e-4 0.21585,0.11191 0.45913,0.22501 0.54062,0.25135 0.22154,0.0716 0.17885,0.35488 -0.0847,0.5619 -0.41796,0.32837 -1.13384,0.76129 -1.25888,0.76129 -0.0673,0 -0.14438,-0.0576 -0.17141,-0.12808 z m 1.2543,-0.77404 c 0.17246,-0.15608 0.20172,-0.28321 0.0652,-0.28321 -0.0493,0 -0.0688,0.0338 -0.0433,0.0751 0.0637,0.10312 -0.17738,0.29112 -0.2867,0.22355 -0.0486,-0.03 -0.0884,-0.0143 -0.0884,0.035 0,0.13375 0.17767,0.10837 0.35317,-0.0505 z m -30.902581,0.39125 c -0.283444,-0.34133 -0.438591,-0.37171 -0.438591,-0.0859 0,0.16249 -0.213916,0.29283 -0.346307,0.21101 -0.105916,-0.0655 -0.09652,-0.32551 0.02107,-0.58362 0.08052,-0.17671 0.07293,-0.24312 -0.04233,-0.37048 -0.07724,-0.0854 -0.140434,-0.22384 -0.140434,-0.30776 0,-0.12658 0.04962,-0.14452 0.291302,-0.1053 0.266952,0.0433 0.293492,0.0283 0.3175,-0.17943 0.01867,-0.16151 0.07488,-0.22669 0.195532,-0.22669 0.202168,0 0.274478,0.35944 0.127543,0.63399 -0.08101,0.15136 -0.04535,0.2385 0.24878,0.60791 0.188838,0.23717 0.343343,0.50244 0.343343,0.5895 0,0.26586 -0.277622,0.17775 -0.577409,-0.18327 z m -0.288604,-0.8067 c -0.02838,-0.0284 -0.09724,0.0374 -0.153017,0.14615 -0.09695,0.18905 -0.09468,0.19132 0.0516,0.0516 0.08416,-0.0804 0.129797,-0.16938 0.101416,-0.19776 z m -5.08544,0.72358 c -0.466937,-0.36729 -0.527222,-1.44208 -0.117309,-2.09143 0.271082,-0.42942 0.800562,-0.87058 1.044875,-0.87058 0.512256,0 0.871786,0.41776 0.620308,0.72077 -0.149783,0.18047 -0.245798,0.1561 -0.337754,-0.0858 -0.238358,-0.62693 -1.185333,0.31244 -1.185333,1.17581 0,0.45103 0.193605,0.89853 0.38874,0.89853 0.223438,0 0.450945,-0.16425 0.58405,-0.42164 0.169241,-0.32728 0.169944,-0.32558 -0.14729,-0.35617 -0.210901,-0.0203 -0.281486,-0.071 -0.302222,-0.21703 -0.02588,-0.18221 -9e-4,-0.1905 0.574157,-0.1905 0.479802,0 0.612003,0.0281 0.654645,0.13924 0.03165,0.0825 -0.0039,0.18121 -0.08732,0.24217 -0.151347,0.11067 -0.196149,0.54993 -0.05609,0.54993 0.04657,0 0.08467,0.0996 0.08467,0.22127 0,0.20092 -0.025,0.21761 -0.271776,0.18139 -0.175057,-0.0257 -0.363375,0.016 -0.529167,0.11707 -0.334315,0.20387 -0.647051,0.19942 -0.917177,-0.0131 z m 0.553953,-0.0547 c -0.05821,-0.0235 -0.153458,-0.0235 -0.211666,0 -0.05821,0.0235 -0.01058,0.0427 0.105833,0.0427 0.116417,0 0.164042,-0.0192 0.105833,-0.0427 z m 0.824204,-0.64242 c -0.0011,-0.15405 -0.017,-0.1662 -0.08337,-0.0635 -0.106081,0.16414 -0.106081,0.254 0,0.254 0.04657,0 0.08408,-0.0857 0.08337,-0.1905 z m 2.49541,0.77741 c -0.03073,-0.0497 -0.07637,-0.31643 -0.101423,-0.59266 -0.03241,-0.35741 -0.0804,-0.50225 -0.166407,-0.50225 -0.0819,0 -0.112228,-0.0751 -0.09407,-0.23284 0.02078,-0.18057 0.07726,-0.23867 0.251664,-0.25885 0.156583,-0.0181 0.240636,-0.0888 0.276779,-0.23284 0.05766,-0.22974 0.360942,-0.28947 0.438857,-0.0864 0.08084,0.21066 -0.125465,0.48709 -0.317933,0.426 -0.145276,-0.0461 -0.159188,-0.0306 -0.09115,0.10177 0.04416,0.0859 0.104096,0.45145 0.133187,0.81234 0.04916,0.60987 0.04137,0.65617 -0.110366,0.65617 -0.08979,0 -0.188402,-0.0407 -0.219136,-0.0904 z m 0.103723,-0.94146 c -0.02703,-0.0675 -0.04709,-0.0475 -0.05115,0.0512 -0.0037,0.0893 0.01633,0.13926 0.04447,0.11112 0.02813,-0.0281 0.03114,-0.10116 0.0067,-0.16228 z m -0.982725,0.74241 c -0.181352,-0.19304 -0.214696,-0.20088 -0.375572,-0.0882 -0.2696,0.18883 -0.460119,0.14894 -0.602365,-0.12614 -0.249991,-0.48342 -0.124493,-1.30125 0.187217,-1.22003 0.124809,0.0325 0.144428,0.11615 0.119701,0.51022 -0.03714,0.59197 0.133985,0.59104 0.333467,-0.002 0.248203,-0.73765 0.50044,-0.74436 0.50044,-0.0133 0,0.43906 0.137019,0.72072 0.350603,0.72072 0.04648,0 0.07233,0.0857 0.05745,0.1905 -0.03842,0.27054 -0.329682,0.28484 -0.570943,0.028 z m -0.06189,-0.60318 c -0.02757,-0.0719 -0.06829,-0.11249 -0.09049,-0.0903 -0.02219,0.0222 -0.01524,0.081 0.01546,0.13065 0.08349,0.13508 0.132281,0.10884 0.07503,-0.0404 z m 4.747269,0.43825 c -0.555184,-0.25154 -0.886715,-1.01523 -0.715981,-1.64929 0.187391,-0.69592 0.864319,-1.19837 1.443201,-1.07123 0.262649,0.0577 0.406602,0.33479 0.307749,0.5924 -0.0707,0.18422 -0.316412,0.1561 -0.368256,-0.0422 -0.02435,-0.0931 -0.08746,-0.16919 -0.14024,-0.16902 -0.212137,8e-4 -0.656533,0.35409 -0.785576,0.62469 -0.381205,0.7994 0.463121,1.74681 1.136445,1.2752 0.337669,-0.23651 0.238479,-0.37285 -0.256328,-0.35231 -0.395017,0.0164 -0.447345,-0.002 -0.470053,-0.1606 -0.02884,-0.20206 0.230138,-0.28662 0.877806,-0.28662 0.415185,0 0.420836,0.005 0.495406,0.46566 0.05119,0.316 0.03418,0.35503 -0.254144,0.58302 -0.363314,0.2873 -0.883748,0.36526 -1.270029,0.19025 z m 0.619251,-0.10475 c -0.02813,-0.0281 -0.10116,-0.0311 -0.162278,-0.007 -0.06754,0.027 -0.04748,0.0471 0.05115,0.0512 0.08925,0.004 0.139258,-0.0163 0.111125,-0.0445 z m 0.67427,-0.77274 c -0.02147,-0.0824 -0.04044,-0.0355 -0.04217,0.10422 -0.0017,0.1397 0.01584,0.2071 0.03903,0.14978 0.02319,-0.0573 0.0246,-0.17162 0.0031,-0.254 z m -0.250937,-0.1586 c -0.02813,-0.0281 -0.10116,-0.0311 -0.162278,-0.007 -0.06754,0.027 -0.04748,0.0471 0.05115,0.0512 0.08925,0.004 0.139259,-0.0163 0.111125,-0.0445 z m 3.053407,0.80571 c -0.07949,-0.0448 -0.210272,-0.29013 -0.29063,-0.54506 -0.08036,-0.25492 -0.173897,-0.46349 -0.207866,-0.46349 -0.03397,0 -0.08813,0.15608 -0.120364,0.34685 -0.05219,0.30894 -0.08076,0.34261 -0.261442,0.30807 -0.111562,-0.0213 -0.202842,-0.009 -0.202842,0.0281 0,0.15899 -0.288261,0.33298 -0.551659,0.33298 -0.408654,0 -0.717031,-0.29344 -0.776817,-0.73918 -0.0865,-0.64492 0.399968,-1.03337 0.775055,-0.6189 0.184224,0.20356 0.119535,0.55045 -0.127283,0.68255 -0.193259,0.10343 -0.147085,0.25219 0.07828,0.25219 0.219261,0 0.517762,-0.35703 0.517762,-0.61929 0,-0.16665 0.04281,-0.22737 0.160275,-0.22737 0.08815,0 0.182205,-0.0571 0.20901,-0.127 0.06304,-0.16429 0.261412,-0.16147 0.519097,0.007 0.138836,0.091 0.265162,0.32471 0.391044,0.72357 0.191531,0.60687 0.157066,0.81023 -0.111616,0.6586 z m -0.811119,-0.78278 c 0.02199,-0.11504 -0.0032,-0.19755 -0.06036,-0.19755 -0.05714,0 -0.08235,0.0825 -0.06036,0.19755 0.02077,0.10866 0.04794,0.19756 0.06036,0.19756 0.01243,0 0.03959,-0.0889 0.06036,-0.19756 z m 1.790594,0.66323 c -0.0743,-0.19364 0.02979,-0.381 0.211666,-0.381 0.200256,0 0.303072,0.23397 0.172143,0.39173 -0.127383,0.15348 -0.322891,0.14802 -0.383809,-0.0107 z m 4.335225,-1.09748 -0.157583,-1.05514 -0.239599,0.37781 c -0.156548,0.24685 -0.299862,0.37781 -0.413454,0.37781 -0.253744,0 -0.315133,-0.24821 -0.102149,-0.41301 0.17551,-0.1358 0.610941,-0.92131 0.610941,-1.10212 0,-0.0515 0.07158,-0.0935 0.159062,-0.0935 0.205517,0 0.316342,0.291 0.435298,1.143 0.05201,0.37253 0.132386,0.8234 0.178609,1.00192 0.107343,0.41458 0.02396,0.81841 -0.168982,0.81841 -0.120138,0 -0.171181,-0.17825 -0.302143,-1.05514 z m -1.821621,0.7639 c -0.05565,-0.067 -0.122962,-0.40995 -0.149587,-0.762 -0.02663,-0.35205 -0.08013,-0.64009 -0.118905,-0.64009 -0.03877,0 -0.13418,0.0972 -0.212019,0.21599 -0.07784,0.1188 -0.253605,0.27396 -0.390593,0.3448 -0.501361,0.25926 -0.687957,-0.10973 -0.20083,-0.39714 0.29031,-0.17129 0.654846,-0.64316 0.765013,-0.99026 0.07984,-0.25155 0.371719,-0.25078 0.422679,0.001 0.0212,0.10477 0.05886,0.4953 0.08371,0.86783 0.02484,0.37253 0.09162,0.7981 0.148406,0.94571 0.08288,0.21544 0.08134,0.29477 -0.0078,0.40217 -0.137403,0.16556 -0.210411,0.16811 -0.340077,0.0119 z m -0.08889,-1.97559 c 0,-0.0726 -0.01078,-0.11618 -0.02396,-0.0968 -0.01318,0.0194 -0.07572,0.10282 -0.138975,0.18538 -0.100135,0.13069 -0.09703,0.14321 0.02396,0.0968 0.07644,-0.0293 0.138975,-0.11276 0.138975,-0.18538 z"
       id="path817"
       inkscape:connector-curvature="0" />
  </g>
</svg>
