<?xml version="1.0" encoding="UTF-8" standalone="no"?>
<!-- Created with Inkscape (http://www.inkscape.org/) -->

<svg
   xmlns:dc="http://purl.org/dc/elements/1.1/"
   xmlns:cc="http://creativecommons.org/ns#"
   xmlns:rdf="http://www.w3.org/1999/02/22-rdf-syntax-ns#"
   xmlns:svg="http://www.w3.org/2000/svg"
   xmlns="http://www.w3.org/2000/svg"
   xmlns:xlink="http://www.w3.org/1999/xlink"
   xmlns:sodipodi="http://sodipodi.sourceforge.net/DTD/sodipodi-0.dtd"
   xmlns:inkscape="http://www.inkscape.org/namespaces/inkscape"
   width="300"
   height="300"
   id="svg2"
   version="1.1"
   inkscape:version="0.48.5 r10040"
   sodipodi:docname="GuixSD.svg">
  <title
     id="title3310">Guix System Distribution (Logo)</title>
  <defs
     id="defs4">
    <linearGradient
       id="linearGradient4708">
      <stop
         id="stop4710"
         offset="0"
         style="stop-color:#ff0000;stop-opacity:0.58282208;" />
      <stop
         id="stop4712"
         offset="1"
         style="stop-color:#ff0000;stop-opacity:0;" />
    </linearGradient>
    <linearGradient
       id="linearGradient4702">
      <stop
         id="stop4704"
         offset="0"
         style="stop-color:#ff0000;stop-opacity:0.74846625;" />
      <stop
         id="stop4706"
         offset="1"
         style="stop-color:#ffb000;stop-opacity:0;" />
    </linearGradient>
    <linearGradient
       id="linearGradient4696">
      <stop
         id="stop4698"
         offset="0"
         style="stop-color:#ffb638;stop-opacity:1;" />
      <stop
         id="stop4700"
         offset="1"
         style="stop-color:#ffc100;stop-opacity:1;" />
    </linearGradient>
    <linearGradient
       id="linearGradient4690">
      <stop
         id="stop4692"
         offset="0"
         style="stop-color:#a0a0a0;stop-opacity:1;" />
      <stop
         id="stop4694"
         offset="1"
         style="stop-color:#a0a0a0;stop-opacity:0;" />
    </linearGradient>
    <linearGradient
       id="linearGradient4684">
      <stop
         id="stop4686"
         offset="0"
         style="stop-color:#a2a2a2;stop-opacity:1;" />
      <stop
         id="stop4688"
         offset="1"
         style="stop-color:#333333;stop-opacity:0;" />
    </linearGradient>
    <linearGradient
       id="linearGradient4678">
      <stop
         id="stop4680"
         offset="0"
         style="stop-color:#e5e5e5;stop-opacity:1;" />
      <stop
         id="stop4682"
         offset="1"
         style="stop-color:#d3cdcd;stop-opacity:1;" />
    </linearGradient>
    <linearGradient
       id="linearGradient4478">
      <stop
         style="stop-color:#000000;stop-opacity:1;"
         offset="0"
         id="stop4480" />
      <stop
         style="stop-color:#333333;stop-opacity:0;"
         offset="1"
         id="stop4482" />
    </linearGradient>
    <linearGradient
       id="linearGradient4465">
      <stop
         style="stop-color:#000000;stop-opacity:1;"
         offset="0"
         id="stop4467" />
      <stop
         style="stop-color:#333333;stop-opacity:0;"
         offset="1"
         id="stop4469" />
    </linearGradient>
    <linearGradient
       id="linearGradient4341">
      <stop
         style="stop-color:#333333;stop-opacity:1;"
         offset="0"
         id="stop4343" />
      <stop
         style="stop-color:#484848;stop-opacity:1;"
         offset="1"
         id="stop4345" />
    </linearGradient>
    <linearGradient
       inkscape:collect="always"
       xlink:href="#linearGradient4702"
       id="linearGradient5036"
       gradientUnits="userSpaceOnUse"
       gradientTransform="matrix(0.88673584,0,0,0.88673584,315.31498,943.74222)"
       x1="142.96875"
       y1="63.65625"
       x2="189.3125"
       y2="63.65625" />
    <linearGradient
       inkscape:collect="always"
       xlink:href="#linearGradient4708"
       id="linearGradient5038"
       gradientUnits="userSpaceOnUse"
       gradientTransform="matrix(0.88673584,0,0,0.88673584,315.31498,187.92213)"
       x1="113.5146"
       y1="1004.8033"
       x2="78.000107"
       y2="922.07178" />
    <linearGradient
       inkscape:collect="always"
       xlink:href="#linearGradient4696"
       id="linearGradient5040"
       gradientUnits="userSpaceOnUse"
       gradientTransform="matrix(-0.49654141,0,0,0.49654141,455.19855,560.08355)"
       x1="108.08774"
       y1="1025.709"
       x2="80.655251"
       y2="1043.709" />
    <linearGradient
       inkscape:collect="always"
       xlink:href="#linearGradient4702"
       id="linearGradient5042"
       gradientUnits="userSpaceOnUse"
       gradientTransform="matrix(-0.88673584,0,0,0.88673584,494.68501,943.74222)"
       x1="142.96875"
       y1="63.65625"
       x2="189.3125"
       y2="63.65625" />
    <linearGradient
       inkscape:collect="always"
       xlink:href="#linearGradient4702"
       id="linearGradient5044"
       gradientUnits="userSpaceOnUse"
       gradientTransform="matrix(0.88673584,0,0,0.88673584,315.31498,943.74222)"
       x1="142.96875"
       y1="63.65625"
       x2="189.3125"
       y2="63.65625" />
    <linearGradient
       inkscape:collect="always"
       xlink:href="#linearGradient4708"
       id="linearGradient5046"
       gradientUnits="userSpaceOnUse"
       gradientTransform="matrix(0.88673584,0,0,0.88673584,315.31498,187.92213)"
       x1="113.5146"
       y1="1004.8033"
       x2="78.000107"
       y2="922.07178" />
    <linearGradient
       inkscape:collect="always"
       xlink:href="#linearGradient4696"
       id="linearGradient5048"
       gradientUnits="userSpaceOnUse"
       gradientTransform="matrix(-0.49654141,0,0,0.49654141,455.19855,560.08355)"
       x1="108.08774"
       y1="1025.709"
       x2="80.655251"
       y2="1043.709" />
    <linearGradient
       inkscape:collect="always"
       xlink:href="#linearGradient4702"
       id="linearGradient5050"
       gradientUnits="userSpaceOnUse"
       gradientTransform="matrix(-0.88673584,0,0,0.88673584,494.68501,943.74222)"
       x1="142.96875"
       y1="63.65625"
       x2="189.3125"
       y2="63.65625" />
    <linearGradient
       inkscape:collect="always"
       xlink:href="#linearGradient4478"
       id="linearGradient5067"
       gradientUnits="userSpaceOnUse"
       gradientTransform="matrix(-0.88673584,0,0,0.88673584,796.68501,683.74223)"
       x1="142.96875"
       y1="63.65625"
       x2="189.3125"
       y2="63.65625" />
    <linearGradient
       inkscape:collect="always"
       xlink:href="#linearGradient4341"
       id="linearGradient5070"
       gradientUnits="userSpaceOnUse"
       gradientTransform="matrix(-0.49654141,0,0,0.49654141,757.19855,300.08355)"
       x1="108.08774"
       y1="1025.709"
       x2="80.655251"
       y2="1043.709" />
    <linearGradient
       inkscape:collect="always"
       xlink:href="#linearGradient4465"
       id="linearGradient5073"
       gradientUnits="userSpaceOnUse"
       gradientTransform="matrix(0.88673584,0,0,0.88673584,617.31498,-72.077868)"
       x1="113.5146"
       y1="1004.8033"
       x2="78.000107"
       y2="922.07178" />
    <linearGradient
       inkscape:collect="always"
       xlink:href="#linearGradient4478"
       id="linearGradient5077"
       gradientUnits="userSpaceOnUse"
       gradientTransform="matrix(0.88673584,0,0,0.88673584,617.31498,683.74223)"
       x1="142.96875"
       y1="63.65625"
       x2="189.3125"
       y2="63.65625" />
    <linearGradient
       inkscape:collect="always"
       xlink:href="#linearGradient4684"
       id="linearGradient5081"
       gradientUnits="userSpaceOnUse"
       gradientTransform="matrix(-0.88673584,0,0,0.88673584,604.68501,683.74223)"
       x1="142.96875"
       y1="63.65625"
       x2="189.3125"
       y2="63.65625" />
    <linearGradient
       inkscape:collect="always"
       xlink:href="#linearGradient4678"
       id="linearGradient5084"
       gradientUnits="userSpaceOnUse"
       gradientTransform="matrix(-0.49654141,0,0,0.49654141,565.19855,300.08355)"
       x1="108.08774"
       y1="1025.709"
       x2="80.655251"
       y2="1043.709" />
    <linearGradient
       inkscape:collect="always"
       xlink:href="#linearGradient4690"
       id="linearGradient5087"
       gradientUnits="userSpaceOnUse"
       gradientTransform="matrix(0.88673584,0,0,0.88673584,425.31498,-72.077868)"
       x1="113.5146"
       y1="1004.8033"
       x2="78.000107"
       y2="922.07178" />
    <linearGradient
       inkscape:collect="always"
       xlink:href="#linearGradient4684"
       id="linearGradient5091"
       gradientUnits="userSpaceOnUse"
       gradientTransform="matrix(0.88673584,0,0,0.88673584,425.31498,683.74223)"
       x1="142.96875"
       y1="63.65625"
       x2="189.3125"
       y2="63.65625" />
    <linearGradient
       inkscape:collect="always"
       xlink:href="#linearGradient4702"
       id="linearGradient3165"
       gradientUnits="userSpaceOnUse"
       gradientTransform="matrix(0.88673584,0,0,0.88673584,315.31498,943.74222)"
       x1="142.96875"
       y1="63.65625"
       x2="189.3125"
       y2="63.65625" />
    <linearGradient
       inkscape:collect="always"
       xlink:href="#linearGradient4708"
       id="linearGradient3167"
       gradientUnits="userSpaceOnUse"
       gradientTransform="matrix(0.88673584,0,0,0.88673584,315.31498,187.92213)"
       x1="113.5146"
       y1="1004.8033"
       x2="78.000107"
       y2="922.07178" />
    <linearGradient
       inkscape:collect="always"
       xlink:href="#linearGradient4696"
       id="linearGradient3169"
       gradientUnits="userSpaceOnUse"
       gradientTransform="matrix(-0.49654141,0,0,0.49654141,455.19855,560.08355)"
       x1="108.08774"
       y1="1025.709"
       x2="80.655251"
       y2="1043.709" />
    <linearGradient
       inkscape:collect="always"
       xlink:href="#linearGradient4702"
       id="linearGradient3171"
       gradientUnits="userSpaceOnUse"
       gradientTransform="matrix(-0.88673584,0,0,0.88673584,494.68501,943.74222)"
       x1="142.96875"
       y1="63.65625"
       x2="189.3125"
       y2="63.65625" />
    <linearGradient
       inkscape:collect="always"
       xlink:href="#linearGradient4702"
       id="linearGradient3201"
       gradientUnits="userSpaceOnUse"
       gradientTransform="matrix(0.88673584,0,0,0.88673584,315.31498,943.74222)"
       x1="142.96875"
       y1="63.65625"
       x2="189.3125"
       y2="63.65625" />
    <linearGradient
       inkscape:collect="always"
       xlink:href="#linearGradient4708"
       id="linearGradient3203"
       gradientUnits="userSpaceOnUse"
       gradientTransform="matrix(0.88673584,0,0,0.88673584,315.31498,187.92213)"
       x1="113.5146"
       y1="1004.8033"
       x2="78.000107"
       y2="922.07178" />
    <linearGradient
       inkscape:collect="always"
       xlink:href="#linearGradient4696"
       id="linearGradient3205"
       gradientUnits="userSpaceOnUse"
       gradientTransform="matrix(-0.49654141,0,0,0.49654141,455.19855,560.08355)"
       x1="108.08774"
       y1="1025.709"
       x2="80.655251"
       y2="1043.709" />
    <linearGradient
       inkscape:collect="always"
       xlink:href="#linearGradient4702"
       id="linearGradient3207"
       gradientUnits="userSpaceOnUse"
       gradientTransform="matrix(-0.88673584,0,0,0.88673584,494.68501,943.74222)"
       x1="142.96875"
       y1="63.65625"
       x2="189.3125"
       y2="63.65625" />
    <linearGradient
       inkscape:collect="always"
       xlink:href="#linearGradient4702"
       id="linearGradient3221"
       gradientUnits="userSpaceOnUse"
       gradientTransform="matrix(0.88673584,0,0,0.88673584,315.31498,943.74222)"
       x1="142.96875"
       y1="63.65625"
       x2="189.3125"
       y2="63.65625" />
    <linearGradient
       inkscape:collect="always"
       xlink:href="#linearGradient4708"
       id="linearGradient3223"
       gradientUnits="userSpaceOnUse"
       gradientTransform="matrix(0.88673584,0,0,0.88673584,315.31498,187.92213)"
       x1="113.5146"
       y1="1004.8033"
       x2="78.000107"
       y2="922.07178" />
    <linearGradient
       inkscape:collect="always"
       xlink:href="#linearGradient4696"
       id="linearGradient3225"
       gradientUnits="userSpaceOnUse"
       gradientTransform="matrix(-0.49654141,0,0,0.49654141,455.19855,560.08355)"
       x1="108.08774"
       y1="1025.709"
       x2="80.655251"
       y2="1043.709" />
    <linearGradient
       inkscape:collect="always"
       xlink:href="#linearGradient4702"
       id="linearGradient3227"
       gradientUnits="userSpaceOnUse"
       gradientTransform="matrix(-0.88673584,0,0,0.88673584,494.68501,943.74222)"
       x1="142.96875"
       y1="63.65625"
       x2="189.3125"
       y2="63.65625" />
  </defs>
  <sodipodi:namedview
     id="base"
     pagecolor="#ffffff"
     bordercolor="#666666"
     borderopacity="1.0"
     inkscape:pageopacity="0.0"
     inkscape:pageshadow="2"
     inkscape:zoom="1"
     inkscape:cx="339.09601"
     inkscape:cy="84.942857"
     inkscape:document-units="px"
     inkscape:current-layer="layer1"
     showgrid="false"
     inkscape:window-width="1440"
     inkscape:window-height="834"
     inkscape:window-x="0"
     inkscape:window-y="27"
     inkscape:window-maximized="1"
     inkscape:showpageshadow="false"
     showborder="true"
     borderlayer="true">
    <inkscape:grid
       type="axonomgrid"
       id="grid3004"
       units="mm"
       empspacing="5"
       visible="true"
       enabled="true"
       snapvisiblegridlinesonly="true"
       spacingy="3.7mm"
       originx="-4mm"
       originy="-8.5mm" />
  </sodipodi:namedview>
  <metadata
     id="metadata7">
    <rdf:RDF>
      <cc:Work
         rdf:about="">
        <dc:format>image/svg+xml</dc:format>
        <dc:type
           rdf:resource="http://purl.org/dc/dcmitype/StillImage" />
        <dc:title>Guix System Distribution (Logo)</dc:title>
        <dc:date>2015-02-07</dc:date>
        <dc:creator>
          <cc:Agent>
            <dc:title>Luis Felipe López Acevedo</dc:title>
          </cc:Agent>
        </dc:creator>
        <dc:rights>
          <cc:Agent>
            <dc:title>Luis Felipe López Acevedo</dc:title>
          </cc:Agent>
        </dc:rights>
      </cc:Work>
    </rdf:RDF>
  </metadata>
  <g
     inkscape:label="layer"
     inkscape:groupmode="layer"
     id="layer1"
     transform="translate(0,-752.36218)">
    <text
       xml:space="preserve"
       style="font-size:12px;font-style:normal;font-weight:normal;line-height:125%;letter-spacing:0px;word-spacing:0px;fill:#000000;fill-opacity:1;stroke:none;font-family:Sans"
       x="1"
       y="1072.3622"
       id="text4172"
       sodipodi:linespacing="125%"><tspan
         sodipodi:role="line"
         x="1"
         y="1072.3622"
         id="tspan4176"><tspan
   id="tspan4860"
   style="font-size:12px;font-weight:bold;-inkscape-font-specification:Sans Bold">Font: </tspan>Sans</tspan></text>
    <g
       id="g3173"
       transform="translate(160,-40)">
      <path
         d="m 432.21321,1278.6218 c -3.13617,1.5245 -6.39207,2.6679 -9.76771,3.4302 -3.37572,0.7622 -6.86029,1.1433 -10.45373,1.1433 -8.12344,0 -14.55901,-2.265 -19.30673,-6.7949 -4.74775,-4.5517 -7.12161,-10.715 -7.12161,-18.49 0,-7.8621 2.41742,-14.0472 7.25228,-18.5554 4.83483,-4.5082 11.45552,-6.7622 19.86209,-6.7623 3.24498,10e-5 6.34842,0.305 9.31035,0.9147 2.98363,0.6099 5.79307,1.5137 8.42832,2.7115 l 0,10.0943 c -2.72237,-1.5462 -5.4338,-2.7005 -8.13431,-3.4627 -2.6788,-0.7622 -5.36846,-1.1434 -8.06897,-1.1434 -5.00911,0 -8.87481,1.4047 -11.59711,4.2142 -2.70056,2.7877 -4.05084,6.784 -4.05082,11.9891 -2e-5,5.1615 1.3067,9.147 3.92015,11.9564 2.61341,2.8095 6.32666,4.2142 11.13976,4.2142 1.30668,0 2.51539,-0.076 3.62614,-0.2287 1.13245,-0.1742 2.14515,-0.4355 3.03811,-0.784 l 0,-9.4737 -7.67696,0 0,-8.4283 19.60075,0 0,23.4555"
         style="font-size:144px;font-style:normal;font-weight:bold;line-height:125%;letter-spacing:0px;word-spacing:0px;fill:#333333;fill-opacity:1;stroke:none;font-family:Sans;-inkscape-font-specification:Sans Bold"
         id="path4181"
         inkscape:connector-curvature="0" />
      <path
         d="m 437.69416,1268.0047 0,-22.3448 11.76045,0 0,3.6588 c -2e-5,1.9819 -0.0109,4.4756 -0.0327,7.4809 -0.0218,2.9838 -0.0327,4.9765 -0.0327,5.9783 -10e-6,2.9401 0.0762,5.0635 0.22868,6.3702 0.15243,1.285 0.41378,2.2214 0.78403,2.8094 0.47911,0.7623 1.0998,1.3503 1.86207,1.7641 0.78401,0.4139 1.67693,0.6207 2.67877,0.6207 2.43918,0 4.35569,-0.9364 5.74955,-2.8094 1.3938,-1.8729 2.09072,-4.4755 2.09075,-7.8076 l 0,-18.0654 11.69511,0 0,36.5881 -11.69511,0 0,-5.2922 c -1.7641,2.1343 -3.63705,3.7132 -5.61888,4.7368 -1.9601,1.0018 -4.12707,1.5027 -6.50092,1.5027 -4.22506,0 -7.44829,-1.2958 -9.6697,-3.8874 -2.19965,-2.5917 -3.29946,-6.3594 -3.29946,-11.3032"
         style="font-size:144px;font-style:normal;font-weight:bold;line-height:125%;letter-spacing:0px;word-spacing:0px;fill:#333333;fill-opacity:1;stroke:none;font-family:Sans;-inkscape-font-specification:Sans Bold"
         id="path4183"
         inkscape:connector-curvature="0" />
      <path
         d="m 481.13522,1245.6599 11.69511,0 0,36.5881 -11.69511,0 0,-36.5881 m 0,-14.2432 11.69511,0 0,9.539 -11.69511,0 0,-9.539"
         style="font-size:144px;font-style:normal;font-weight:bold;line-height:125%;letter-spacing:0px;word-spacing:0px;fill:#333333;fill-opacity:1;stroke:none;font-family:Sans;-inkscape-font-specification:Sans Bold"
         id="path4185"
         inkscape:connector-curvature="0" />
      <path
         d="m 513.37845,1263.5292 -13.19784,-17.8693 12.38114,0 7.48095,10.8457 7.57896,-10.8457 12.38113,0 -13.19783,17.804 13.85119,18.7841 -12.38113,0 -8.23232,-11.5645 -8.13431,11.5645 -12.38113,0 13.85119,-18.7188"
         style="font-size:144px;font-style:normal;font-weight:bold;line-height:125%;letter-spacing:0px;word-spacing:0px;fill:#333333;fill-opacity:1;stroke:none;font-family:Sans;-inkscape-font-specification:Sans Bold"
         id="path4187"
         inkscape:connector-curvature="0" />
      <path
         d="m 580.28233,1235.0102 0,10.323 c -2.67881,-1.1978 -5.29224,-2.1016 -7.8403,-2.7114 -2.54813,-0.6098 -4.95466,-0.9147 -7.21961,-0.9147 -3.00547,0 -5.22689,0.4138 -6.66425,1.2413 -1.43741,0.8277 -2.1561,2.1126 -2.15609,3.8549 -10e-6,1.3067 0.47912,2.3303 1.43739,3.0708 0.98002,0.7187 2.74409,1.3394 5.29221,1.862 l 5.35753,1.0781 c 5.42284,1.0889 9.27765,2.7441 11.56444,4.9655 2.28672,2.2214 3.43009,5.3793 3.43013,9.4737 -4e-5,5.3793 -1.60077,9.3866 -4.80218,12.0218 -3.17971,2.6134 -8.04723,3.9201 -14.60256,3.9201 -3.09258,0 -6.19603,-0.294 -9.31035,-0.882 -3.11435,-0.588 -6.22869,-1.4592 -9.34302,-2.6134 l 0,-10.6171 c 3.11433,1.6552 6.11977,2.9075 9.01634,3.7568 2.91831,0.8276 5.72775,1.2414 8.42832,1.2414 2.74408,0 4.84571,-0.4574 6.30491,-1.3721 1.45913,-0.9147 2.18872,-2.2214 2.18875,-3.9201 -3e-5,-1.5245 -0.50094,-2.7005 -1.50273,-3.5281 -0.98006,-0.8276 -2.95103,-1.5681 -5.91289,-2.2215 l -4.86752,-1.078 c -4.87842,-1.0453 -8.45011,-2.7114 -10.71507,-4.9982 -2.2432,-2.2867 -3.3648,-5.3684 -3.3648,-9.245 0,-4.8566 1.56805,-8.5916 4.70418,-11.2051 3.13611,-2.6134 7.64428,-3.9201 13.52452,-3.9202 2.67874,10e-5 5.43373,0.207 8.26498,0.6207 2.83118,0.3921 5.7604,0.991 8.78767,1.7968"
         style="font-size:144px;font-style:normal;font-weight:bold;line-height:125%;letter-spacing:0px;word-spacing:0px;fill:#808080;fill-opacity:1;stroke:none;font-family:Sans;-inkscape-font-specification:Sans Bold"
         id="path4194"
         inkscape:connector-curvature="0" />
      <path
         d="m 600.6308,1242.9812 0,29.7604 4.50818,0 c 5.13972,0 9.05987,-1.274 11.76045,-3.8221 2.72228,-2.5481 4.08345,-6.2505 4.08348,-11.1072 -3e-5,-4.8348 -1.35031,-8.5153 -4.05082,-11.0417 -2.70058,-2.5263 -6.63161,-3.7894 -11.79311,-3.7894 l -4.50818,0 m -12.57714,-9.5064 13.26317,0 c 7.4047,0 12.91468,0.5336 16.52996,1.6007 3.63699,1.0454 6.75133,2.8313 9.34303,5.3575 2.2867,2.1997 3.98544,4.7369 5.09619,7.6117 1.11066,2.8748 1.66601,6.1307 1.66606,9.7676 -5e-5,3.6807 -0.5554,6.9693 -1.66606,9.8658 -1.11075,2.8747 -2.80949,5.412 -5.09619,7.6116 -2.61348,2.5263 -5.7496,4.323 -9.40836,5.3902 -3.65884,1.0454 -9.14704,1.5681 -16.46463,1.5681 l -13.26317,0 0,-48.7732"
         style="font-size:144px;font-style:normal;font-weight:bold;line-height:125%;letter-spacing:0px;word-spacing:0px;fill:#808080;fill-opacity:1;stroke:none;font-family:Sans;-inkscape-font-specification:Sans Bold"
         id="path4196"
         inkscape:connector-curvature="0" />
    </g>
    <path
       style="fill:#1a1a1a;fill-opacity:1;stroke:none"
       d="m 618,683.36218 0,207 178,0 0,-207 -178,0 z m 1,1 176,0 0,205 -176,0 0,-205 z"
       id="rect4365"
       inkscape:connector-curvature="0" />
    <rect
       style="fill:#1a1a1a;fill-opacity:1;stroke:none"
       id="rect4120"
       width="178"
       height="207"
       x="426"
       y="683.36218" />
    <g
       style="font-size:40px;font-style:normal;font-weight:bold;line-height:125%;letter-spacing:0px;word-spacing:0px;fill:#ffffff;fill-opacity:1;stroke:none;font-family:Sans;-inkscape-font-specification:Sans Bold"
       id="text4152">
      <path
         d="m 463.48633,864.19421 c -1.87503,0.91146 -3.82164,1.59506 -5.83985,2.05079 -2.01825,0.45572 -4.10158,0.68359 -6.25,0.68359 -4.85678,0 -8.70443,-1.35417 -11.54296,-4.0625 -2.83855,-2.72135 -4.25782,-6.40624 -4.25782,-11.05469 0,-4.7005 1.44531,-8.39841 4.33594,-11.09375 2.89062,-2.69528 6.84895,-4.04294 11.875,-4.04297 1.94008,3e-5 3.79555,0.18232 5.56641,0.54688 1.78383,0.36461 3.46351,0.90497 5.03906,1.62109 l 0,6.03516 c -1.62763,-0.92446 -3.24872,-1.61456 -4.86328,-2.07031 -1.60159,-0.45571 -3.20966,-0.68357 -4.82422,-0.6836 -2.99481,3e-5 -5.306,0.83987 -6.93359,2.51953 -1.6146,1.66669 -2.42189,4.05601 -2.42188,7.16797 -1e-5,3.08595 0.78124,5.46876 2.34375,7.14844 1.56249,1.67969 3.78254,2.51954 6.66016,2.51953 0.78123,10e-6 1.50388,-0.0456 2.16797,-0.13672 0.67706,-0.10416 1.28253,-0.26041 1.8164,-0.46875 l 0,-5.66406 -4.58984,0 0,-5.03906 11.71875,0 0,14.02343"
         style=""
         id="path3266" />
      <path
         d="m 469.54102,857.84656 0,-13.35938 7.03125,0 0,2.1875 c -10e-6,1.18492 -0.007,2.6758 -0.0195,4.47266 -0.013,1.78387 -0.0195,2.97527 -0.0195,3.57422 -1e-5,1.75782 0.0456,3.02735 0.13672,3.80859 0.0911,0.76824 0.24739,1.32813 0.46875,1.67969 0.28645,0.45573 0.65754,0.8073 1.11328,1.05469 0.46874,0.2474 1.00259,0.37109 1.60157,0.37109 1.45831,0 2.60415,-0.55989 3.4375,-1.67969 0.83331,-1.11978 1.24998,-2.67577 1.25,-4.66797 l 0,-10.80078 6.99218,0 0,21.875 -6.99218,0 0,-3.16406 c -1.05471,1.27604 -2.1745,2.22005 -3.35938,2.83203 -1.17189,0.59896 -2.46746,0.89844 -3.88672,0.89844 -2.52605,0 -4.45313,-0.77474 -5.78125,-2.32422 -1.31511,-1.54948 -1.97266,-3.80208 -1.97265,-6.75781"
         style=""
         id="path3268" />
      <path
         d="m 498.29102,844.48718 6.99218,0 0,21.875 -6.99218,0 0,-21.875 m 0,-8.51562 6.99218,0 0,5.70312 -6.99218,0 0,-5.70312"
         style=""
         id="path3270" />
      <path
         d="m 517.56836,855.17078 -7.89063,-10.6836 7.40235,0 4.47265,6.48438 4.53125,-6.48438 7.40235,0 -7.89063,10.64453 8.28125,11.23047 -7.40234,0 -4.92188,-6.91406 -4.86328,6.91406 -7.40234,0 8.28125,-11.1914"
         style=""
         id="path3272" />
      <path
         d="m 558.42773,838.12 0,6.17187 c -1.60158,-0.71612 -3.16408,-1.25649 -4.6875,-1.62109 -1.52345,-0.36456 -2.96225,-0.54685 -4.3164,-0.54688 -1.79689,3e-5 -3.12501,0.24742 -3.98438,0.74219 -0.85938,0.49481 -1.28907,1.26304 -1.28906,2.30469 -10e-6,0.78127 0.28645,1.39325 0.85938,1.83593 0.58592,0.42971 1.64061,0.8008 3.16406,1.11329 l 3.20312,0.64453 c 3.24217,0.65105 5.54686,1.64064 6.91407,2.96875 1.36716,1.32813 2.05075,3.21615 2.05078,5.66406 -3e-5,3.21615 -0.95706,5.61198 -2.8711,7.1875 -1.90106,1.5625 -4.81121,2.34375 -8.73047,2.34375 -1.84897,0 -3.70443,-0.17578 -5.5664,-0.52734 -1.86199,-0.35157 -3.72397,-0.8724 -5.58594,-1.5625 l 0,-6.34766 c 1.86197,0.98959 3.65885,1.73829 5.39063,2.24609 1.74478,0.4948 3.42446,0.7422 5.03906,0.74219 1.64061,10e-6 2.89712,-0.27343 3.76953,-0.82031 0.87238,-0.54687 1.30857,-1.32812 1.30859,-2.34375 -2e-5,-0.91145 -0.29949,-1.61458 -0.89843,-2.10938 -0.58596,-0.49478 -1.76434,-0.93749 -3.53516,-1.32812 l -2.91016,-0.64453 c -2.91667,-0.62499 -5.05209,-1.62108 -6.40625,-2.98828 -1.34115,-1.36718 -2.01172,-3.20962 -2.01172,-5.52735 0,-2.90362 0.9375,-5.13669 2.8125,-6.69922 1.875,-1.56247 4.57031,-2.34372 8.08594,-2.34375 1.60155,3e-5 3.24868,0.12373 4.94141,0.3711 1.69269,0.2344 3.44399,0.59247 5.2539,1.07422"
         style="fill:#cccccc"
         id="path3274" />
      <path
         d="m 574.48242,842.88562 0,17.79297 2.69531,0 c 3.0729,0 5.41665,-0.76171 7.03125,-2.28516 1.62759,-1.52343 2.44139,-3.73696 2.44141,-6.64062 -2e-5,-2.89061 -0.80731,-5.09113 -2.42187,-6.60156 -1.61461,-1.5104 -3.96487,-2.26561 -7.05079,-2.26563 l -2.69531,0 m -7.51953,-5.68359 7.92969,0 c 4.42707,3e-5 7.72133,0.31904 9.88281,0.95703 2.17446,0.62503 4.03643,1.69273 5.58594,3.20312 1.36716,1.31513 2.38278,2.83206 3.04687,4.55078 0.66403,1.71877 0.99607,3.66539 0.9961,5.83985 -3e-5,2.20053 -0.33207,4.16667 -0.9961,5.89844 -0.66409,1.71875 -1.67971,3.23568 -3.04687,4.55078 -1.56253,1.51042 -3.43753,2.58463 -5.625,3.22265 -2.18752,0.625 -5.46877,0.9375 -9.84375,0.9375 l -7.92969,0 0,-29.16015"
         style="fill:#cccccc"
         id="path3276" />
    </g>
    <g
       style="font-size:40px;font-style:normal;font-weight:bold;line-height:125%;letter-spacing:0px;word-spacing:0px;fill:#333333;fill-opacity:1;stroke:none;font-family:Sans;-inkscape-font-specification:Sans Bold"
       id="text4164">
      <path
         d="m 655.48633,864.19421 c -1.87503,0.91146 -3.82164,1.59506 -5.83985,2.05079 -2.01825,0.45572 -4.10158,0.68359 -6.25,0.68359 -4.85678,0 -8.70443,-1.35417 -11.54296,-4.0625 -2.83855,-2.72135 -4.25782,-6.40624 -4.25782,-11.05469 0,-4.7005 1.44531,-8.39841 4.33594,-11.09375 2.89062,-2.69528 6.84895,-4.04294 11.875,-4.04297 1.94008,3e-5 3.79555,0.18232 5.56641,0.54688 1.78383,0.36461 3.46351,0.90497 5.03906,1.62109 l 0,6.03516 c -1.62763,-0.92446 -3.24872,-1.61456 -4.86328,-2.07031 -1.60159,-0.45571 -3.20966,-0.68357 -4.82422,-0.6836 -2.99481,3e-5 -5.306,0.83987 -6.93359,2.51953 -1.6146,1.66669 -2.42189,4.05601 -2.42188,7.16797 -10e-6,3.08595 0.78124,5.46876 2.34375,7.14844 1.56249,1.67969 3.78254,2.51954 6.66016,2.51953 0.78123,10e-6 1.50388,-0.0456 2.16797,-0.13672 0.67706,-0.10416 1.28253,-0.26041 1.8164,-0.46875 l 0,-5.66406 -4.58984,0 0,-5.03906 11.71875,0 0,14.02343"
         style=""
         id="path3279" />
      <path
         d="m 661.54102,857.84656 0,-13.35938 7.03125,0 0,2.1875 c -10e-6,1.18492 -0.007,2.6758 -0.0195,4.47266 -0.013,1.78387 -0.0195,2.97527 -0.0195,3.57422 -10e-6,1.75782 0.0456,3.02735 0.13672,3.80859 0.0911,0.76824 0.24739,1.32813 0.46875,1.67969 0.28645,0.45573 0.65754,0.8073 1.11328,1.05469 0.46874,0.2474 1.00259,0.37109 1.60157,0.37109 1.45831,0 2.60415,-0.55989 3.4375,-1.67969 0.83331,-1.11978 1.24998,-2.67577 1.25,-4.66797 l 0,-10.80078 6.99218,0 0,21.875 -6.99218,0 0,-3.16406 c -1.05471,1.27604 -2.1745,2.22005 -3.35938,2.83203 -1.17189,0.59896 -2.46746,0.89844 -3.88672,0.89844 -2.52605,0 -4.45313,-0.77474 -5.78125,-2.32422 -1.31511,-1.54948 -1.97266,-3.80208 -1.97265,-6.75781"
         style=""
         id="path3281" />
      <path
         d="m 690.29102,844.48718 6.99218,0 0,21.875 -6.99218,0 0,-21.875 m 0,-8.51562 6.99218,0 0,5.70312 -6.99218,0 0,-5.70312"
         style=""
         id="path3283" />
      <path
         d="m 709.56836,855.17078 -7.89063,-10.6836 7.40235,0 4.47265,6.48438 4.53125,-6.48438 7.40235,0 -7.89063,10.64453 8.28125,11.23047 -7.40234,0 -4.92188,-6.91406 -4.86328,6.91406 -7.40234,0 8.28125,-11.1914"
         style=""
         id="path3285" />
      <path
         d="m 750.42773,838.12 0,6.17187 c -1.60158,-0.71612 -3.16408,-1.25649 -4.6875,-1.62109 -1.52345,-0.36456 -2.96225,-0.54685 -4.3164,-0.54688 -1.79689,3e-5 -3.12501,0.24742 -3.98438,0.74219 -0.85938,0.49481 -1.28907,1.26304 -1.28906,2.30469 -10e-6,0.78127 0.28645,1.39325 0.85938,1.83593 0.58592,0.42971 1.64061,0.8008 3.16406,1.11329 l 3.20312,0.64453 c 3.24217,0.65105 5.54686,1.64064 6.91407,2.96875 1.36716,1.32813 2.05075,3.21615 2.05078,5.66406 -3e-5,3.21615 -0.95706,5.61198 -2.8711,7.1875 -1.90106,1.5625 -4.81121,2.34375 -8.73047,2.34375 -1.84897,0 -3.70443,-0.17578 -5.5664,-0.52734 -1.86199,-0.35157 -3.72397,-0.8724 -5.58594,-1.5625 l 0,-6.34766 c 1.86197,0.98959 3.65885,1.73829 5.39063,2.24609 1.74478,0.4948 3.42446,0.7422 5.03906,0.74219 1.64061,10e-6 2.89712,-0.27343 3.76953,-0.82031 0.87238,-0.54687 1.30857,-1.32812 1.30859,-2.34375 -2e-5,-0.91145 -0.29949,-1.61458 -0.89843,-2.10938 -0.58596,-0.49478 -1.76434,-0.93749 -3.53516,-1.32812 l -2.91016,-0.64453 c -2.91667,-0.62499 -5.05209,-1.62108 -6.40625,-2.98828 -1.34115,-1.36718 -2.01172,-3.20962 -2.01172,-5.52735 0,-2.90362 0.9375,-5.13669 2.8125,-6.69922 1.875,-1.56247 4.57031,-2.34372 8.08594,-2.34375 1.60155,3e-5 3.24868,0.12373 4.94141,0.3711 1.69269,0.2344 3.44399,0.59247 5.2539,1.07422"
         style="fill:#808080"
         id="path3287" />
      <path
         d="m 766.48242,842.88562 0,17.79297 2.69531,0 c 3.0729,0 5.41665,-0.76171 7.03125,-2.28516 1.62759,-1.52343 2.44139,-3.73696 2.44141,-6.64062 -2e-5,-2.89061 -0.80731,-5.09113 -2.42187,-6.60156 -1.61461,-1.5104 -3.96487,-2.26561 -7.05079,-2.26563 l -2.69531,0 m -7.51953,-5.68359 7.92969,0 c 4.42707,3e-5 7.72133,0.31904 9.88281,0.95703 2.17446,0.62503 4.03643,1.69273 5.58594,3.20312 1.36716,1.31513 2.38278,2.83206 3.04687,4.55078 0.66403,1.71877 0.99607,3.66539 0.9961,5.83985 -3e-5,2.20053 -0.33207,4.16667 -0.9961,5.89844 -0.66409,1.71875 -1.67971,3.23568 -3.04687,4.55078 -1.56253,1.51042 -3.43753,2.58463 -5.625,3.22265 -2.18752,0.625 -5.46877,0.9375 -9.84375,0.9375 l -7.92969,0 0,-29.16015"
         style="fill:#808080"
         id="path3289" />
    </g>
    <rect
       y="903.36218"
       x="426"
       height="207"
       width="178"
       id="rect4237"
       style="fill:#1a1a1a;fill-opacity:1;stroke:none" />
    <g
       style="font-size:40px;font-style:normal;font-weight:bold;line-height:125%;letter-spacing:0px;word-spacing:0px;fill:#ffffff;fill-opacity:1;stroke:none;font-family:Sans;-inkscape-font-specification:Sans Bold"
       id="text4259">
      <path
         d="m 463.48633,1084.1942 c -1.87503,0.9115 -3.82164,1.5951 -5.83985,2.0508 -2.01825,0.4557 -4.10158,0.6836 -6.25,0.6836 -4.85678,0 -8.70443,-1.3542 -11.54296,-4.0625 -2.83855,-2.7214 -4.25782,-6.4063 -4.25782,-11.0547 0,-4.7005 1.44531,-8.3984 4.33594,-11.0937 2.89062,-2.6953 6.84895,-4.043 11.875,-4.043 1.94008,0 3.79555,0.1823 5.56641,0.5469 1.78383,0.3646 3.46351,0.9049 5.03906,1.6211 l 0,6.0351 c -1.62763,-0.9244 -3.24872,-1.6146 -4.86328,-2.0703 -1.60159,-0.4557 -3.20966,-0.6836 -4.82422,-0.6836 -2.99481,0 -5.306,0.8399 -6.93359,2.5195 -1.6146,1.6667 -2.42189,4.056 -2.42188,7.168 -1e-5,3.086 0.78124,5.4688 2.34375,7.1484 1.56249,1.6797 3.78254,2.5196 6.66016,2.5196 0.78123,0 1.50388,-0.046 2.16797,-0.1367 0.67706,-0.1042 1.28253,-0.2605 1.8164,-0.4688 l 0,-5.6641 -4.58984,0 0,-5.039 11.71875,0 0,14.0234"
         style=""
         id="path3253" />
      <path
         d="m 469.54102,1077.8466 0,-13.3594 7.03125,0 0,2.1875 c -10e-6,1.1849 -0.007,2.6758 -0.0195,4.4726 -0.013,1.7839 -0.0195,2.9753 -0.0195,3.5743 -1e-5,1.7578 0.0456,3.0273 0.13672,3.8086 0.0911,0.7682 0.24739,1.3281 0.46875,1.6796 0.28645,0.4558 0.65754,0.8073 1.11328,1.0547 0.46874,0.2474 1.00259,0.3711 1.60157,0.3711 1.45831,0 2.60415,-0.5599 3.4375,-1.6797 0.83331,-1.1198 1.24998,-2.6757 1.25,-4.6679 l 0,-10.8008 6.99218,0 0,21.875 -6.99218,0 0,-3.1641 c -1.05471,1.2761 -2.1745,2.2201 -3.35938,2.8321 -1.17189,0.5989 -2.46746,0.8984 -3.88672,0.8984 -2.52605,0 -4.45313,-0.7748 -5.78125,-2.3242 -1.31511,-1.5495 -1.97266,-3.8021 -1.97265,-6.7578"
         style=""
         id="path3255" />
      <path
         d="m 498.29102,1064.4872 6.99218,0 0,21.875 -6.99218,0 0,-21.875 m 0,-8.5156 6.99218,0 0,5.7031 -6.99218,0 0,-5.7031"
         style=""
         id="path3257" />
      <path
         d="m 517.56836,1075.1708 -7.89063,-10.6836 7.40235,0 4.47265,6.4844 4.53125,-6.4844 7.40235,0 -7.89063,10.6445 8.28125,11.2305 -7.40234,0 -4.92188,-6.9141 -4.86328,6.9141 -7.40234,0 8.28125,-11.1914"
         style=""
         id="path3259" />
      <path
         d="m 558.42773,1058.12 0,6.1719 c -1.60158,-0.7162 -3.16408,-1.2565 -4.6875,-1.6211 -1.52345,-0.3646 -2.96225,-0.5469 -4.3164,-0.5469 -1.79689,0 -3.12501,0.2474 -3.98438,0.7422 -0.85938,0.4948 -1.28907,1.263 -1.28906,2.3047 -10e-6,0.7812 0.28645,1.3932 0.85938,1.8359 0.58592,0.4297 1.64061,0.8008 3.16406,1.1133 l 3.20312,0.6445 c 3.24217,0.6511 5.54686,1.6407 6.91407,2.9688 1.36716,1.3281 2.05075,3.2161 2.05078,5.664 -3e-5,3.2162 -0.95706,5.612 -2.8711,7.1875 -1.90106,1.5625 -4.81121,2.3438 -8.73047,2.3438 -1.84897,0 -3.70443,-0.1758 -5.5664,-0.5274 -1.86199,-0.3515 -3.72397,-0.8723 -5.58594,-1.5625 l 0,-6.3476 c 1.86197,0.9896 3.65885,1.7383 5.39063,2.2461 1.74478,0.4948 3.42446,0.7422 5.03906,0.7422 1.64061,0 2.89712,-0.2735 3.76953,-0.8203 0.87238,-0.5469 1.30857,-1.3282 1.30859,-2.3438 -2e-5,-0.9114 -0.29949,-1.6146 -0.89843,-2.1094 -0.58596,-0.4947 -1.76434,-0.9375 -3.53516,-1.3281 l -2.91016,-0.6445 c -2.91667,-0.625 -5.05209,-1.6211 -6.40625,-2.9883 -1.34115,-1.3672 -2.01172,-3.2096 -2.01172,-5.5273 0,-2.9037 0.9375,-5.1367 2.8125,-6.6993 1.875,-1.5624 4.57031,-2.3437 8.08594,-2.3437 1.60155,0 3.24868,0.1237 4.94141,0.3711 1.69269,0.2344 3.44399,0.5925 5.2539,1.0742"
         style="fill:#cccccc"
         id="path3261" />
      <path
         d="m 574.48242,1062.8856 0,17.793 2.69531,0 c 3.0729,0 5.41665,-0.7617 7.03125,-2.2852 1.62759,-1.5234 2.44139,-3.7369 2.44141,-6.6406 -2e-5,-2.8906 -0.80731,-5.0911 -2.42187,-6.6016 -1.61461,-1.5103 -3.96487,-2.2656 -7.05079,-2.2656 l -2.69531,0 m -7.51953,-5.6836 7.92969,0 c 4.42707,10e-5 7.72133,0.3191 9.88281,0.9571 2.17446,0.625 4.03643,1.6927 5.58594,3.2031 1.36716,1.3151 2.38278,2.832 3.04687,4.5508 0.66403,1.7187 0.99607,3.6653 0.9961,5.8398 -3e-5,2.2005 -0.33207,4.1667 -0.9961,5.8984 -0.66409,1.7188 -1.67971,3.2357 -3.04687,4.5508 -1.56253,1.5104 -3.43753,2.5847 -5.625,3.2227 -2.18752,0.625 -5.46877,0.9375 -9.84375,0.9375 l -7.92969,0 0,-29.1602"
         style="fill:#cccccc"
         id="path3263" />
    </g>
    <g
       style="font-size:40px;font-style:normal;font-weight:bold;line-height:125%;letter-spacing:0px;word-spacing:0px;fill:#333333;fill-opacity:1;stroke:none;font-family:Sans;-inkscape-font-specification:Sans Bold"
       id="text4265"
       inkscape:export-filename="GuixSD.png"
       inkscape:export-xdpi="90"
       inkscape:export-ydpi="90">
      <path
         d="m 655.48633,1084.1942 c -1.87503,0.9115 -3.82164,1.5951 -5.83985,2.0508 -2.01825,0.4557 -4.10158,0.6836 -6.25,0.6836 -4.85678,0 -8.70443,-1.3542 -11.54296,-4.0625 -2.83855,-2.7214 -4.25782,-6.4063 -4.25782,-11.0547 0,-4.7005 1.44531,-8.3984 4.33594,-11.0937 2.89062,-2.6953 6.84895,-4.043 11.875,-4.043 1.94008,0 3.79555,0.1823 5.56641,0.5469 1.78383,0.3646 3.46351,0.9049 5.03906,1.6211 l 0,6.0351 c -1.62763,-0.9244 -3.24872,-1.6146 -4.86328,-2.0703 -1.60159,-0.4557 -3.20966,-0.6836 -4.82422,-0.6836 -2.99481,0 -5.306,0.8399 -6.93359,2.5195 -1.6146,1.6667 -2.42189,4.056 -2.42188,7.168 -10e-6,3.086 0.78124,5.4688 2.34375,7.1484 1.56249,1.6797 3.78254,2.5196 6.66016,2.5196 0.78123,0 1.50388,-0.046 2.16797,-0.1367 0.67706,-0.1042 1.28253,-0.2605 1.8164,-0.4688 l 0,-5.6641 -4.58984,0 0,-5.039 11.71875,0 0,14.0234"
         style=""
         id="path3292" />
      <path
         d="m 661.54102,1077.8466 0,-13.3594 7.03125,0 0,2.1875 c -10e-6,1.1849 -0.007,2.6758 -0.0195,4.4726 -0.013,1.7839 -0.0195,2.9753 -0.0195,3.5743 -10e-6,1.7578 0.0456,3.0273 0.13672,3.8086 0.0911,0.7682 0.24739,1.3281 0.46875,1.6796 0.28645,0.4558 0.65754,0.8073 1.11328,1.0547 0.46874,0.2474 1.00259,0.3711 1.60157,0.3711 1.45831,0 2.60415,-0.5599 3.4375,-1.6797 0.83331,-1.1198 1.24998,-2.6757 1.25,-4.6679 l 0,-10.8008 6.99218,0 0,21.875 -6.99218,0 0,-3.1641 c -1.05471,1.2761 -2.1745,2.2201 -3.35938,2.8321 -1.17189,0.5989 -2.46746,0.8984 -3.88672,0.8984 -2.52605,0 -4.45313,-0.7748 -5.78125,-2.3242 -1.31511,-1.5495 -1.97266,-3.8021 -1.97265,-6.7578"
         style=""
         id="path3294" />
      <path
         d="m 690.29102,1064.4872 6.99218,0 0,21.875 -6.99218,0 0,-21.875 m 0,-8.5156 6.99218,0 0,5.7031 -6.99218,0 0,-5.7031"
         style=""
         id="path3296" />
      <path
         d="m 709.56836,1075.1708 -7.89063,-10.6836 7.40235,0 4.47265,6.4844 4.53125,-6.4844 7.40235,0 -7.89063,10.6445 8.28125,11.2305 -7.40234,0 -4.92188,-6.9141 -4.86328,6.9141 -7.40234,0 8.28125,-11.1914"
         style=""
         id="path3298" />
      <path
         d="m 750.42773,1058.12 0,6.1719 c -1.60158,-0.7162 -3.16408,-1.2565 -4.6875,-1.6211 -1.52345,-0.3646 -2.96225,-0.5469 -4.3164,-0.5469 -1.79689,0 -3.12501,0.2474 -3.98438,0.7422 -0.85938,0.4948 -1.28907,1.263 -1.28906,2.3047 -10e-6,0.7812 0.28645,1.3932 0.85938,1.8359 0.58592,0.4297 1.64061,0.8008 3.16406,1.1133 l 3.20312,0.6445 c 3.24217,0.6511 5.54686,1.6407 6.91407,2.9688 1.36716,1.3281 2.05075,3.2161 2.05078,5.664 -3e-5,3.2162 -0.95706,5.612 -2.8711,7.1875 -1.90106,1.5625 -4.81121,2.3438 -8.73047,2.3438 -1.84897,0 -3.70443,-0.1758 -5.5664,-0.5274 -1.86199,-0.3515 -3.72397,-0.8723 -5.58594,-1.5625 l 0,-6.3476 c 1.86197,0.9896 3.65885,1.7383 5.39063,2.2461 1.74478,0.4948 3.42446,0.7422 5.03906,0.7422 1.64061,0 2.89712,-0.2735 3.76953,-0.8203 0.87238,-0.5469 1.30857,-1.3282 1.30859,-2.3438 -2e-5,-0.9114 -0.29949,-1.6146 -0.89843,-2.1094 -0.58596,-0.4947 -1.76434,-0.9375 -3.53516,-1.3281 l -2.91016,-0.6445 c -2.91667,-0.625 -5.05209,-1.6211 -6.40625,-2.9883 -1.34115,-1.3672 -2.01172,-3.2096 -2.01172,-5.5273 0,-2.9037 0.9375,-5.1367 2.8125,-6.6993 1.875,-1.5624 4.57031,-2.3437 8.08594,-2.3437 1.60155,0 3.24868,0.1237 4.94141,0.3711 1.69269,0.2344 3.44399,0.5925 5.2539,1.0742"
         style="fill:#808080"
         id="path3300" />
      <path
         d="m 766.48242,1062.8856 0,17.793 2.69531,0 c 3.0729,0 5.41665,-0.7617 7.03125,-2.2852 1.62759,-1.5234 2.44139,-3.7369 2.44141,-6.6406 -2e-5,-2.8906 -0.80731,-5.0911 -2.42187,-6.6016 -1.61461,-1.5103 -3.96487,-2.2656 -7.05079,-2.2656 l -2.69531,0 m -7.51953,-5.6836 7.92969,0 c 4.42707,10e-5 7.72133,0.3191 9.88281,0.9571 2.17446,0.625 4.03643,1.6927 5.58594,3.2031 1.36716,1.3151 2.38278,2.832 3.04687,4.5508 0.66403,1.7187 0.99607,3.6653 0.9961,5.8398 -3e-5,2.2005 -0.33207,4.1667 -0.9961,5.8984 -0.66409,1.7188 -1.67971,3.2357 -3.04687,4.5508 -1.56253,1.5104 -3.43753,2.5847 -5.625,3.2227 -2.18752,0.625 -5.46877,0.9375 -9.84375,0.9375 l -7.92969,0 0,-29.1602"
         style="fill:#808080"
         id="path3302" />
    </g>
    <path
       id="path4390"
       d="m 618,903.36218 0,207.00002 178,0 0,-207.00002 -178,0 z m 1,1 176,0 0,205.00002 -176,0 0,-205.00002 z"
       style="fill:#1a1a1a;fill-opacity:1;stroke:none"
       inkscape:connector-curvature="0" />
    <path
       inkscape:connector-curvature="0"
       style="font-size:144px;font-style:normal;font-weight:bold;line-height:125%;letter-spacing:0px;word-spacing:0px;fill:#ffffff;fill-opacity:1;stroke:none;font-family:Sans;-inkscape-font-specification:Sans Bold"
       d="m 588.14185,725.86218 c -1.59921,2.9227 -3.22274,5.30216 -4.87705,7.17702 -1.59919,1.8198 -3.36267,3.27542 -5.2927,4.37826 -1.87492,1.04778 -4.00222,1.80343 -6.37342,2.24455 -2.31606,0.38605 -4.97539,0.58195 -8.00833,0.58192 -2.23727,3e-5 -4.2479,-0.11467 -6.01318,-0.33253 -0.007,-4.5e-4 -0.0206,5.1e-4 -0.0278,0 -0.2238,-0.0162 -0.68603,-0.0914 -1.16384,-0.16626 -0.50327,-0.0788 -1.01771,-0.15473 -1.8289,-0.30482 -14.86919,-2.75115 -19.80057,7.57125 -20.866,10.41915 -0.16677,0.44578 -0.24939,0.72047 -0.24939,0.72047 l -18.06725,50.37768 -11.08419,18.84314 22.14068,0 c 9.09339,-20.24671 17.83579,-62.52147 27.184,-66.25579 2.0262,0.28342 4.53775,0.41568 7.56496,0.41565 3.9704,3e-5 7.52531,-0.47602 10.66854,-1.46865 3.14322,-0.99257 5.97048,-2.53214 8.50713,-4.62765 2.53662,-2.1506 4.83185,-4.89362 6.8722,-8.20231 2.09547,-3.30862 4.08282,-7.28335 5.95775,-11.91551 l -5.04326,-1.88432 z"
       id="path4514" />
    <path
       inkscape:connector-curvature="0"
       id="path4516"
       d="m 588.14185,725.86218 c -1.59921,2.9227 -3.22274,5.30216 -4.87705,7.17702 -1.59919,1.8198 -3.36267,3.27542 -5.2927,4.37826 -0.45791,0.2559 -0.92534,0.47204 -1.41324,0.69276 -0.0115,0.005 -0.0161,0.0225 -0.0277,0.0277 -0.62505,0.44207 -1.42795,0.8203 -2.52166,1.08071 -12.72116,3.02885 -21.34414,14.51431 -21.919,15.29619 0.50631,-0.42301 1.01432,-0.76623 1.52408,-0.96986 2.0262,0.28342 4.53775,0.41568 7.56496,0.41565 3.9704,3e-5 7.52531,-0.47602 10.66854,-1.46865 3.14322,-0.99257 5.97048,-2.53214 8.50713,-4.62765 2.53662,-2.1506 4.83185,-4.89362 6.8722,-8.20231 2.09547,-3.30862 4.08282,-7.28335 5.95775,-11.91551 l -5.04326,-1.88432 z"
       style="font-size:144px;font-style:normal;font-weight:bold;line-height:125%;letter-spacing:0px;word-spacing:0px;fill:url(#linearGradient5091);fill-opacity:1;stroke:none;font-family:Sans;-inkscape-font-specification:Sans Bold" />
    <path
       inkscape:connector-curvature="0"
       style="font-size:144px;font-style:normal;font-weight:bold;line-height:125%;letter-spacing:0px;word-spacing:0px;fill:#ffffff;fill-opacity:1;stroke:none;font-family:Sans;-inkscape-font-specification:Sans Bold"
       d="m 442.60633,725.86218 c 1.59921,2.9227 3.22273,5.30216 4.87705,7.17702 1.59919,1.8198 3.36267,3.27541 5.2927,4.37825 1.87491,1.04779 4.00222,1.80344 6.37341,2.24455 2.31607,0.38605 4.9754,0.58196 8.00834,0.58192 2.23727,3e-5 4.2479,-0.11466 6.01317,-0.33252 0.007,-4.5e-4 0.0206,5e-4 0.0278,0 0.22379,-0.0161 0.68602,-0.0914 1.16384,-0.16626 0.50327,-0.0788 1.01771,-0.15473 1.82889,-0.30482 14.8692,-2.75116 19.80058,7.57124 20.86601,10.41915 0.16676,0.44578 0.24939,0.72047 0.24939,0.72047 l 18.06724,50.37768 11.0842,18.84315 -22.14068,0 c -9.09339,-20.24673 -17.83579,-62.52149 -27.184,-66.25581 -2.0262,0.28343 -4.53776,0.41569 -7.56497,0.41566 -3.97039,3e-5 -7.52531,-0.47603 -10.66854,-1.46866 -3.14321,-0.99256 -5.97048,-2.53213 -8.50712,-4.62765 -2.53662,-2.15059 -4.83185,-4.89361 -6.8722,-8.20231 -2.09547,-3.30861 -4.08282,-7.28334 -5.95776,-11.91551 l 5.04331,-1.88431 z"
       id="path4518" />
    <path
       sodipodi:nodetypes="ccccccccsscccccccccccc"
       id="path4520"
       d="m 442.60633,725.86218 c 1.59921,2.9227 3.22273,5.30216 4.87705,7.17702 1.59919,1.8198 3.36267,3.27541 5.2927,4.37825 1.87491,1.04779 4.00222,1.80344 6.37341,2.24455 2.31607,0.38605 4.9754,0.58196 8.00834,0.58192 2.23727,3e-5 4.2479,-0.11466 6.01317,-0.33252 0.007,-4.5e-4 0.0206,5e-4 0.0278,0 0.22379,-0.0161 0.68602,-0.0914 1.16384,-0.16626 0.50327,-0.0788 1.01771,-0.15473 1.82889,-0.30482 14.8692,-2.75116 19.80058,7.57124 20.86601,10.41915 0.16676,0.44578 0.24939,0.72047 0.24939,0.72047 l 18.06724,50.37768 9.31073,18.84315 -20.36721,0 c -9.09339,-20.24673 -17.83579,-62.52149 -27.184,-66.25581 -2.0262,0.28343 -4.53776,0.41569 -7.56497,0.41566 -3.97039,3e-5 -7.52531,-0.47603 -10.66854,-1.46866 -3.14321,-0.99256 -5.97048,-2.53213 -8.50712,-4.62765 -2.53662,-2.15059 -4.83185,-4.89361 -6.8722,-8.20231 -2.09547,-3.30861 -4.08282,-7.28334 -5.95776,-11.91551 l 5.04331,-1.88431 z"
       style="font-size:144px;font-style:normal;font-weight:bold;line-height:125%;letter-spacing:0px;word-spacing:0px;fill:url(#linearGradient5087);fill-opacity:1;stroke:none;font-family:Sans;-inkscape-font-specification:Sans Bold"
       inkscape:connector-curvature="0" />
    <path
       inkscape:connector-curvature="0"
       id="path4522"
       style="font-size:144px;font-style:normal;font-weight:bold;line-height:125%;letter-spacing:0px;word-spacing:0px;fill:url(#linearGradient5084);fill-opacity:1;stroke:none;font-family:Sans;-inkscape-font-specification:Sans Bold"
       d="m 515.33584,800.95808 -11.0407,18.85112 22.12962,0"
       sodipodi:nodetypes="ccc" />
    <path
       inkscape:connector-curvature="0"
       style="font-size:144px;font-style:normal;font-weight:bold;line-height:125%;letter-spacing:0px;word-spacing:0px;fill:url(#linearGradient5081);fill-opacity:1;stroke:none;font-family:Sans;-inkscape-font-specification:Sans Bold"
       d="m 441.85815,725.86218 c 1.59921,2.9227 3.22273,5.30216 4.87704,7.17702 1.5992,1.8198 3.36267,3.27541 5.29271,4.37825 0.45791,0.25591 0.92533,0.47204 1.41323,0.69277 0.0115,0.005 0.0161,0.0225 0.0278,0.0277 0.62504,0.44207 1.42794,0.8203 2.52165,1.08071 12.72117,3.02885 21.34414,14.51431 21.919,15.29619 -0.5063,-0.423 -1.01432,-0.76623 -1.52407,-0.96986 -2.0262,0.28342 -4.53776,0.41568 -7.56497,0.41565 -3.97039,3e-5 -7.52531,-0.47602 -10.66854,-1.46865 -3.14321,-0.99257 -5.97048,-2.53214 -8.50712,-4.62765 -2.53662,-2.1506 -4.83185,-4.89362 -6.8722,-8.20231 -2.09548,-3.30862 -4.08283,-7.28335 -5.95776,-11.91551 l 5.04331,-1.88432 z"
       id="path4524" />
    <path
       id="path4536"
       d="m 780.14185,725.86218 c -1.59921,2.9227 -3.22274,5.30216 -4.87705,7.17702 -1.59919,1.8198 -3.36267,3.27542 -5.2927,4.37826 -1.87492,1.04778 -4.00222,1.80343 -6.37342,2.24455 -2.31606,0.38605 -4.97539,0.58195 -8.00833,0.58192 -2.23727,3e-5 -4.2479,-0.11467 -6.01318,-0.33253 -0.007,-4.5e-4 -0.0206,5.1e-4 -0.0277,0 -0.2238,-0.0162 -0.68603,-0.0914 -1.16384,-0.16626 -0.50327,-0.0788 -1.01771,-0.15473 -1.8289,-0.30482 -14.86919,-2.75115 -19.80057,7.57125 -20.866,10.41915 -0.16677,0.44578 -0.24939,0.72047 -0.24939,0.72047 l -18.06725,50.37768 -11.08419,18.84314 22.14068,0 c 9.09339,-20.24671 17.83579,-62.52147 27.184,-66.25579 2.0262,0.28342 4.53775,0.41568 7.56496,0.41565 3.9704,3e-5 7.52531,-0.47602 10.66854,-1.46865 3.14322,-0.99257 5.97048,-2.53214 8.50713,-4.62765 2.53662,-2.1506 4.83185,-4.89362 6.8722,-8.20231 2.09547,-3.30862 4.08282,-7.28335 5.95775,-11.91551 l -5.04326,-1.88432 z"
       style="font-size:144px;font-style:normal;font-weight:bold;line-height:125%;letter-spacing:0px;word-spacing:0px;fill:#4d4d4d;fill-opacity:1;stroke:none;font-family:Sans;-inkscape-font-specification:Sans Bold"
       inkscape:connector-curvature="0" />
    <path
       style="font-size:144px;font-style:normal;font-weight:bold;line-height:125%;letter-spacing:0px;word-spacing:0px;fill:url(#linearGradient5077);fill-opacity:1;stroke:none;font-family:Sans;-inkscape-font-specification:Sans Bold"
       d="m 780.14185,725.86218 c -1.59921,2.9227 -3.22274,5.30216 -4.87705,7.17702 -1.59919,1.8198 -3.36267,3.27542 -5.2927,4.37826 -0.45791,0.2559 -0.92534,0.47204 -1.41324,0.69276 -0.0115,0.005 -0.0161,0.0225 -0.0277,0.0277 -0.62505,0.44207 -1.42795,0.8203 -2.52166,1.08071 -12.72116,3.02885 -21.34414,14.51431 -21.919,15.29619 0.50631,-0.42301 1.01432,-0.76623 1.52408,-0.96986 2.0262,0.28342 4.53775,0.41568 7.56496,0.41565 3.9704,3e-5 7.52531,-0.47602 10.66854,-1.46865 3.14322,-0.99257 5.97048,-2.53214 8.50713,-4.62765 2.53662,-2.1506 4.83185,-4.89362 6.8722,-8.20231 2.09547,-3.30862 4.08282,-7.28335 5.95775,-11.91551 l -5.04326,-1.88432 z"
       id="path4538"
       inkscape:connector-curvature="0" />
    <path
       id="path4540"
       d="m 634.60633,725.86218 c 1.59921,2.9227 3.22273,5.30216 4.87705,7.17702 1.59919,1.8198 3.36267,3.27541 5.2927,4.37825 1.87491,1.04779 4.00222,1.80344 6.37341,2.24455 2.31607,0.38605 4.9754,0.58196 8.00834,0.58192 2.23727,3e-5 4.2479,-0.11466 6.01317,-0.33252 0.007,-4.5e-4 0.0206,5e-4 0.0278,0 0.22379,-0.0161 0.68602,-0.0914 1.16384,-0.16626 0.50327,-0.0788 1.01771,-0.15473 1.82889,-0.30482 14.8692,-2.75116 19.80058,7.57124 20.86601,10.41915 0.16676,0.44578 0.24939,0.72047 0.24939,0.72047 l 18.06724,50.37768 11.0842,18.84315 -22.14068,0 c -9.09339,-20.24673 -17.83579,-62.52149 -27.184,-66.25581 -2.0262,0.28343 -4.53776,0.41569 -7.56497,0.41566 -3.97039,3e-5 -7.52531,-0.47603 -10.66854,-1.46866 -3.14321,-0.99256 -5.97048,-2.53213 -8.50712,-4.62765 -2.53662,-2.15059 -4.83185,-4.89361 -6.8722,-8.20231 -2.09547,-3.30861 -4.08282,-7.28334 -5.95776,-11.91551 l 5.04331,-1.88431 z"
       style="font-size:144px;font-style:normal;font-weight:bold;line-height:125%;letter-spacing:0px;word-spacing:0px;fill:#4d4d4d;fill-opacity:1;stroke:none;font-family:Sans;-inkscape-font-specification:Sans Bold"
       inkscape:connector-curvature="0" />
    <path
       inkscape:connector-curvature="0"
       style="font-size:144px;font-style:normal;font-weight:bold;line-height:125%;letter-spacing:0px;word-spacing:0px;fill:url(#linearGradient5073);fill-opacity:1;stroke:none;font-family:Sans;-inkscape-font-specification:Sans Bold"
       d="m 634.60633,725.86218 c 1.59921,2.9227 3.22273,5.30216 4.87705,7.17702 1.59919,1.8198 3.36267,3.27541 5.2927,4.37825 1.87491,1.04779 4.00222,1.80344 6.37341,2.24455 2.31607,0.38605 4.9754,0.58196 8.00834,0.58192 2.23727,3e-5 4.2479,-0.11466 6.01317,-0.33252 0.007,-4.5e-4 0.0206,5e-4 0.0278,0 0.22379,-0.0161 0.68602,-0.0914 1.16384,-0.16626 0.50327,-0.0788 1.01771,-0.15473 1.82889,-0.30482 14.8692,-2.75116 19.80058,7.57124 20.86601,10.41915 0.16676,0.44578 0.24939,0.72047 0.24939,0.72047 l 18.06724,50.37768 9.31073,18.84315 -20.36721,0 c -9.09339,-20.24673 -17.83579,-62.52149 -27.184,-66.25581 -2.0262,0.28343 -4.53776,0.41569 -7.56497,0.41566 -3.97039,3e-5 -7.52531,-0.47603 -10.66854,-1.46866 -3.14321,-0.99256 -5.97048,-2.53213 -8.50712,-4.62765 -2.53662,-2.15059 -4.83185,-4.89361 -6.8722,-8.20231 -2.09547,-3.30861 -4.08282,-7.28334 -5.95776,-11.91551 l 5.04331,-1.88431 z"
       id="path4542"
       sodipodi:nodetypes="ccccccccsscccccccccccc" />
    <path
       sodipodi:nodetypes="ccc"
       d="m 707.33584,800.95808 -11.0407,18.85112 22.12962,0"
       style="font-size:144px;font-style:normal;font-weight:bold;line-height:125%;letter-spacing:0px;word-spacing:0px;fill:url(#linearGradient5070);fill-opacity:1;stroke:none;font-family:Sans;-inkscape-font-specification:Sans Bold"
       id="path4544"
       inkscape:connector-curvature="0" />
    <path
       id="path4546"
       d="m 633.85815,725.86218 c 1.59921,2.9227 3.22273,5.30216 4.87704,7.17702 1.5992,1.8198 3.36267,3.27541 5.29271,4.37825 0.45791,0.25591 0.92533,0.47204 1.41323,0.69277 0.0115,0.005 0.0161,0.0225 0.0278,0.0277 0.62504,0.44207 1.42794,0.8203 2.52165,1.08071 12.72117,3.02885 21.34414,14.51431 21.919,15.29619 -0.5063,-0.423 -1.01432,-0.76623 -1.52407,-0.96986 -2.0262,0.28342 -4.53776,0.41568 -7.56497,0.41565 -3.97039,3e-5 -7.52531,-0.47602 -10.66854,-1.46865 -3.14321,-0.99257 -5.97048,-2.53214 -8.50712,-4.62765 -2.53662,-2.1506 -4.83185,-4.89362 -6.8722,-8.20231 -2.09548,-3.30862 -4.08283,-7.28335 -5.95776,-11.91551 l 5.04331,-1.88432 z"
       style="font-size:144px;font-style:normal;font-weight:bold;line-height:125%;letter-spacing:0px;word-spacing:0px;fill:url(#linearGradient5067);fill-opacity:1;stroke:none;font-family:Sans;-inkscape-font-specification:Sans Bold"
       inkscape:connector-curvature="0" />
    <g
       id="g4714"
       transform="translate(110,-40)">
      <path
         inkscape:connector-curvature="0"
         style="font-size:144px;font-style:normal;font-weight:bold;line-height:125%;letter-spacing:0px;word-spacing:0px;fill:#ffcc00;fill-opacity:1;stroke:none;font-family:Sans;-inkscape-font-specification:Sans Bold"
         d="m 478.14185,985.86217 c -1.59921,2.9227 -3.22274,5.30216 -4.87705,7.17702 -1.59919,1.8198 -3.36267,3.27542 -5.2927,4.37826 -1.87492,1.04778 -4.00222,1.80343 -6.37342,2.24455 -2.31606,0.386 -4.97539,0.582 -8.00833,0.5819 -2.23727,0 -4.2479,-0.1146 -6.01318,-0.33251 -0.007,-4.5e-4 -0.0206,5.1e-4 -0.0278,0 -0.2238,-0.0162 -0.68603,-0.0914 -1.16384,-0.16626 -0.50327,-0.0788 -1.01771,-0.15473 -1.8289,-0.30482 -14.86919,-2.75115 -19.80057,7.57129 -20.866,10.41919 -0.16677,0.4457 -0.24939,0.7204 -0.24939,0.7204 l -18.06725,50.3777 -11.08419,18.8432 22.14068,0 c 9.09339,-20.2468 17.83579,-62.5215 27.184,-66.2558 2.0262,0.2834 4.53775,0.4156 7.56496,0.4156 3.9704,0 7.52531,-0.476 10.66854,-1.4686 3.14322,-0.9926 5.97048,-2.5322 8.50713,-4.6277 2.53662,-2.1506 4.83185,-4.8936 6.8722,-8.2023 2.09547,-3.30862 4.08282,-7.28335 5.95775,-11.91551 l -5.04326,-1.88432 z"
         id="path4558" />
      <path
         inkscape:connector-curvature="0"
         id="path4560"
         d="m 478.14185,985.86217 c -1.59921,2.9227 -3.22274,5.30216 -4.87705,7.17702 -1.59919,1.8198 -3.36267,3.27542 -5.2927,4.37826 -0.45791,0.2559 -0.92534,0.47204 -1.41324,0.69276 -0.0115,0.005 -0.0161,0.0225 -0.0277,0.0277 -0.62505,0.44207 -1.42795,0.8203 -2.52166,1.08071 -12.72116,3.02888 -21.34414,14.51428 -21.919,15.29618 0.50631,-0.423 1.01432,-0.7662 1.52408,-0.9698 2.0262,0.2834 4.53775,0.4156 7.56496,0.4156 3.9704,0 7.52531,-0.476 10.66854,-1.4686 3.14322,-0.9926 5.97048,-2.5322 8.50713,-4.6277 2.53662,-2.1506 4.83185,-4.8936 6.8722,-8.20231 2.09547,-3.30862 4.08282,-7.28335 5.95775,-11.91551 l -5.04326,-1.88432 z"
         style="font-size:144px;font-style:normal;font-weight:bold;line-height:125%;letter-spacing:0px;word-spacing:0px;fill:url(#linearGradient5036);fill-opacity:1;stroke:none;font-family:Sans;-inkscape-font-specification:Sans Bold" />
      <path
         inkscape:connector-curvature="0"
         style="font-size:144px;font-style:normal;font-weight:bold;line-height:125%;letter-spacing:0px;word-spacing:0px;fill:#ffcc00;fill-opacity:1;stroke:none;font-family:Sans;-inkscape-font-specification:Sans Bold"
         d="m 332.60633,985.86218 c 1.59921,2.9227 3.22273,5.30215 4.87705,7.17701 1.59919,1.81981 3.36267,3.27542 5.2927,4.37826 1.87491,1.04779 4.00222,1.80344 6.37341,2.24455 2.31607,0.3861 4.9754,0.582 8.00834,0.5819 2.23727,0 4.2479,-0.1146 6.01317,-0.3325 0.007,-4.6e-4 0.0206,5e-4 0.0278,0 0.22379,-0.0161 0.68602,-0.0914 1.16384,-0.16627 0.50327,-0.0788 1.01771,-0.15472 1.82889,-0.30481 14.8692,-2.75116 19.80058,7.57128 20.86601,10.41918 0.16676,0.4457 0.24939,0.7204 0.24939,0.7204 l 18.06724,50.3777 11.0842,18.8432 -22.14068,0 c -9.09339,-20.2468 -17.83579,-62.5215 -27.184,-66.2558 -2.0262,0.2834 -4.53776,0.4156 -7.56497,0.4156 -3.97039,0 -7.52531,-0.476 -10.66854,-1.4686 -3.14321,-0.9926 -5.97048,-2.5322 -8.50712,-4.6277 -2.53662,-2.1506 -4.83185,-4.8936 -6.8722,-8.2023 -2.09547,-3.30861 -4.08282,-7.28334 -5.95776,-11.91551 l 5.04331,-1.88431 z"
         id="path4562" />
      <path
         sodipodi:nodetypes="ccccccccsscccccccccccc"
         id="path4564"
         d="m 332.60633,985.86218 c 1.59921,2.9227 3.22273,5.30215 4.87705,7.17701 1.59919,1.81981 3.36267,3.27542 5.2927,4.37826 1.87491,1.04779 4.00222,1.80344 6.37341,2.24455 2.31607,0.3861 4.9754,0.582 8.00834,0.5819 2.23727,0 4.2479,-0.1146 6.01317,-0.3325 0.007,-4.6e-4 0.0206,5e-4 0.0278,0 0.22379,-0.0161 0.68602,-0.0914 1.16384,-0.16627 0.50327,-0.0788 1.01771,-0.15472 1.82889,-0.30481 14.8692,-2.75116 19.80058,7.57128 20.86601,10.41918 0.16676,0.4457 0.24939,0.7204 0.24939,0.7204 l 18.06724,50.3777 9.31073,18.8432 -20.36721,0 c -9.09339,-20.2468 -17.83579,-62.5215 -27.184,-66.2558 -2.0262,0.2834 -4.53776,0.4156 -7.56497,0.4156 -3.97039,0 -7.52531,-0.476 -10.66854,-1.4686 -3.14321,-0.9926 -5.97048,-2.5322 -8.50712,-4.6277 -2.53662,-2.1506 -4.83185,-4.8936 -6.8722,-8.2023 -2.09547,-3.30861 -4.08282,-7.28334 -5.95776,-11.91551 l 5.04331,-1.88431 z"
         style="font-size:144px;font-style:normal;font-weight:bold;line-height:125%;letter-spacing:0px;word-spacing:0px;fill:url(#linearGradient5038);fill-opacity:1;stroke:none;font-family:Sans;-inkscape-font-specification:Sans Bold"
         inkscape:connector-curvature="0" />
      <path
         inkscape:connector-curvature="0"
         id="path4566"
         style="font-size:144px;font-style:normal;font-weight:bold;line-height:125%;letter-spacing:0px;word-spacing:0px;fill:url(#linearGradient5040);fill-opacity:1;stroke:none;font-family:Sans;-inkscape-font-specification:Sans Bold"
         d="m 405.33584,1060.9581 -11.0407,18.8511 22.12962,0"
         sodipodi:nodetypes="ccc" />
      <path
         inkscape:connector-curvature="0"
         style="font-size:144px;font-style:normal;font-weight:bold;line-height:125%;letter-spacing:0px;word-spacing:0px;fill:url(#linearGradient5042);fill-opacity:1;stroke:none;font-family:Sans;-inkscape-font-specification:Sans Bold"
         d="m 331.85815,985.86218 c 1.59921,2.9227 3.22273,5.30215 4.87704,7.17701 1.5992,1.81981 3.36267,3.27542 5.29271,4.37826 0.45791,0.25591 0.92533,0.47204 1.41323,0.69276 0.0115,0.005 0.0161,0.0225 0.0278,0.0278 0.62504,0.44207 1.42794,0.8203 2.52165,1.08071 12.72117,3.02878 21.34414,14.51428 21.919,15.29618 -0.5063,-0.423 -1.01432,-0.7663 -1.52407,-0.9699 -2.0262,0.2834 -4.53776,0.4157 -7.56497,0.4157 -3.97039,0 -7.52531,-0.4761 -10.66854,-1.4687 -3.14321,-0.9926 -5.97048,-2.5321 -8.50712,-4.6276 -2.53662,-2.1506 -4.83185,-4.8937 -6.8722,-8.20231 -2.09548,-3.30862 -4.08283,-7.28335 -5.95776,-11.91552 l 5.04331,-1.88431 z"
         id="path4568" />
    </g>
    <g
       id="g4722"
       transform="translate(301.99996,-40)"
       inkscape:export-filename="GuixSD.png"
       inkscape:export-xdpi="90"
       inkscape:export-ydpi="90">
      <path
         id="path4724"
         d="m 478.14185,985.86217 c -1.59921,2.9227 -3.22274,5.30216 -4.87705,7.17702 -1.59919,1.8198 -3.36267,3.27542 -5.2927,4.37826 -1.87492,1.04778 -4.00222,1.80343 -6.37342,2.24455 -2.31606,0.386 -4.97539,0.582 -8.00833,0.5819 -2.23727,0 -4.2479,-0.1146 -6.01318,-0.33251 -0.007,-4.5e-4 -0.0206,5.1e-4 -0.0278,0 -0.2238,-0.0162 -0.68603,-0.0914 -1.16384,-0.16626 -0.50327,-0.0788 -1.01771,-0.15473 -1.8289,-0.30482 -14.86919,-2.75115 -19.80057,7.57129 -20.866,10.41919 -0.16677,0.4457 -0.24939,0.7204 -0.24939,0.7204 l -18.06725,50.3777 -11.08419,18.8432 22.14068,0 c 9.09339,-20.2468 17.83579,-62.5215 27.184,-66.2558 2.0262,0.2834 4.53775,0.4156 7.56496,0.4156 3.9704,0 7.52531,-0.476 10.66854,-1.4686 3.14322,-0.9926 5.97048,-2.5322 8.50713,-4.6277 2.53662,-2.1506 4.83185,-4.8936 6.8722,-8.2023 2.09547,-3.30862 4.08282,-7.28335 5.95775,-11.91551 l -5.04326,-1.88432 z"
         style="font-size:144px;font-style:normal;font-weight:bold;line-height:125%;letter-spacing:0px;word-spacing:0px;fill:#ffcc00;fill-opacity:1;stroke:none;font-family:Sans;-inkscape-font-specification:Sans Bold"
         inkscape:connector-curvature="0" />
      <path
         style="font-size:144px;font-style:normal;font-weight:bold;line-height:125%;letter-spacing:0px;word-spacing:0px;fill:url(#linearGradient5044);fill-opacity:1;stroke:none;font-family:Sans;-inkscape-font-specification:Sans Bold"
         d="m 478.14185,985.86217 c -1.59921,2.9227 -3.22274,5.30216 -4.87705,7.17702 -1.59919,1.8198 -3.36267,3.27542 -5.2927,4.37826 -0.45791,0.2559 -0.92534,0.47204 -1.41324,0.69276 -0.0115,0.005 -0.0161,0.0225 -0.0277,0.0277 -0.62505,0.44207 -1.42795,0.8203 -2.52166,1.08071 -12.72116,3.02888 -21.34414,14.51428 -21.919,15.29618 0.50631,-0.423 1.01432,-0.7662 1.52408,-0.9698 2.0262,0.2834 4.53775,0.4156 7.56496,0.4156 3.9704,0 7.52531,-0.476 10.66854,-1.4686 3.14322,-0.9926 5.97048,-2.5322 8.50713,-4.6277 2.53662,-2.1506 4.83185,-4.8936 6.8722,-8.20231 2.09547,-3.30862 4.08282,-7.28335 5.95775,-11.91551 l -5.04326,-1.88432 z"
         id="path4726"
         inkscape:connector-curvature="0" />
      <path
         id="path4728"
         d="m 332.60633,985.86218 c 1.59921,2.9227 3.22273,5.30215 4.87705,7.17701 1.59919,1.81981 3.36267,3.27542 5.2927,4.37826 1.87491,1.04779 4.00222,1.80344 6.37341,2.24455 2.31607,0.3861 4.9754,0.582 8.00834,0.5819 2.23727,0 4.2479,-0.1146 6.01317,-0.3325 0.007,-4.6e-4 0.0206,5e-4 0.0278,0 0.22379,-0.0161 0.68602,-0.0914 1.16384,-0.16627 0.50327,-0.0788 1.01771,-0.15472 1.82889,-0.30481 14.8692,-2.75116 19.80058,7.57128 20.86601,10.41918 0.16676,0.4457 0.24939,0.7204 0.24939,0.7204 l 18.06724,50.3777 11.0842,18.8432 -22.14068,0 c -9.09339,-20.2468 -17.83579,-62.5215 -27.184,-66.2558 -2.0262,0.2834 -4.53776,0.4156 -7.56497,0.4156 -3.97039,0 -7.52531,-0.476 -10.66854,-1.4686 -3.14321,-0.9926 -5.97048,-2.5322 -8.50712,-4.6277 -2.53662,-2.1506 -4.83185,-4.8936 -6.8722,-8.2023 -2.09547,-3.30861 -4.08282,-7.28334 -5.95776,-11.91551 l 5.04331,-1.88431 z"
         style="font-size:144px;font-style:normal;font-weight:bold;line-height:125%;letter-spacing:0px;word-spacing:0px;fill:#ffcc00;fill-opacity:1;stroke:none;font-family:Sans;-inkscape-font-specification:Sans Bold"
         inkscape:connector-curvature="0" />
      <path
         inkscape:connector-curvature="0"
         style="font-size:144px;font-style:normal;font-weight:bold;line-height:125%;letter-spacing:0px;word-spacing:0px;fill:url(#linearGradient5046);fill-opacity:1;stroke:none;font-family:Sans;-inkscape-font-specification:Sans Bold"
         d="m 332.60633,985.86218 c 1.59921,2.9227 3.22273,5.30215 4.87705,7.17701 1.59919,1.81981 3.36267,3.27542 5.2927,4.37826 1.87491,1.04779 4.00222,1.80344 6.37341,2.24455 2.31607,0.3861 4.9754,0.582 8.00834,0.5819 2.23727,0 4.2479,-0.1146 6.01317,-0.3325 0.007,-4.6e-4 0.0206,5e-4 0.0278,0 0.22379,-0.0161 0.68602,-0.0914 1.16384,-0.16627 0.50327,-0.0788 1.01771,-0.15472 1.82889,-0.30481 14.8692,-2.75116 19.80058,7.57128 20.86601,10.41918 0.16676,0.4457 0.24939,0.7204 0.24939,0.7204 l 18.06724,50.3777 9.31073,18.8432 -20.36721,0 c -9.09339,-20.2468 -17.83579,-62.5215 -27.184,-66.2558 -2.0262,0.2834 -4.53776,0.4156 -7.56497,0.4156 -3.97039,0 -7.52531,-0.476 -10.66854,-1.4686 -3.14321,-0.9926 -5.97048,-2.5322 -8.50712,-4.6277 -2.53662,-2.1506 -4.83185,-4.8936 -6.8722,-8.2023 -2.09547,-3.30861 -4.08282,-7.28334 -5.95776,-11.91551 l 5.04331,-1.88431 z"
         id="path4730"
         sodipodi:nodetypes="ccccccccsscccccccccccc" />
      <path
         sodipodi:nodetypes="ccc"
         d="m 405.33584,1060.9581 -11.0407,18.8511 22.12962,0"
         style="font-size:144px;font-style:normal;font-weight:bold;line-height:125%;letter-spacing:0px;word-spacing:0px;fill:url(#linearGradient5048);fill-opacity:1;stroke:none;font-family:Sans;-inkscape-font-specification:Sans Bold"
         id="path4732"
         inkscape:connector-curvature="0" />
      <path
         id="path4734"
         d="m 331.85815,985.86218 c 1.59921,2.9227 3.22273,5.30215 4.87704,7.17701 1.5992,1.81981 3.36267,3.27542 5.29271,4.37826 0.45791,0.25591 0.92533,0.47204 1.41323,0.69276 0.0115,0.005 0.0161,0.0225 0.0278,0.0278 0.62504,0.44207 1.42794,0.8203 2.52165,1.08071 12.72117,3.02878 21.34414,14.51428 21.919,15.29618 -0.5063,-0.423 -1.01432,-0.7663 -1.52407,-0.9699 -2.0262,0.2834 -4.53776,0.4157 -7.56497,0.4157 -3.97039,0 -7.52531,-0.4761 -10.66854,-1.4687 -3.14321,-0.9926 -5.97048,-2.5321 -8.50712,-4.6276 -2.53662,-2.1506 -4.83185,-4.8937 -6.8722,-8.20231 -2.09548,-3.30862 -4.08283,-7.28335 -5.95776,-11.91552 l 5.04331,-1.88431 z"
         style="font-size:144px;font-style:normal;font-weight:bold;line-height:125%;letter-spacing:0px;word-spacing:0px;fill:url(#linearGradient5050);fill-opacity:1;stroke:none;font-family:Sans;-inkscape-font-specification:Sans Bold"
         inkscape:connector-curvature="0" />
    </g>
    <g
       transform="translate(99.99996,163.3861)"
       id="g3151">
      <path
         inkscape:connector-curvature="0"
         style="font-size:144px;font-style:normal;font-weight:bold;line-height:125%;letter-spacing:0px;word-spacing:0px;fill:#ffcc00;fill-opacity:1;stroke:none;font-family:Sans;-inkscape-font-specification:Sans Bold"
         d="m 478.14185,985.86217 c -1.59921,2.9227 -3.22274,5.30216 -4.87705,7.17702 -1.59919,1.8198 -3.36267,3.27542 -5.2927,4.37826 -1.87492,1.04778 -4.00222,1.80343 -6.37342,2.24455 -2.31606,0.386 -4.97539,0.582 -8.00833,0.5819 -2.23727,0 -4.2479,-0.1146 -6.01318,-0.33251 -0.007,-4.5e-4 -0.0206,5.1e-4 -0.0278,0 -0.2238,-0.0162 -0.68603,-0.0914 -1.16384,-0.16626 -0.50327,-0.0788 -1.01771,-0.15473 -1.8289,-0.30482 -14.86919,-2.75115 -19.80057,7.57129 -20.866,10.41919 -0.16677,0.4457 -0.24939,0.7204 -0.24939,0.7204 l -18.06725,50.3777 -11.08419,18.8432 22.14068,0 c 9.09339,-20.2468 17.83579,-62.5215 27.184,-66.2558 2.0262,0.2834 4.53775,0.4156 7.56496,0.4156 3.9704,0 7.52531,-0.476 10.66854,-1.4686 3.14322,-0.9926 5.97048,-2.5322 8.50713,-4.6277 2.53662,-2.1506 4.83185,-4.8936 6.8722,-8.2023 2.09547,-3.30862 4.08282,-7.28335 5.95775,-11.91551 l -5.04326,-1.88432 z"
         id="path3153" />
      <path
         inkscape:connector-curvature="0"
         id="path3155"
         d="m 478.14185,985.86217 c -1.59921,2.9227 -3.22274,5.30216 -4.87705,7.17702 -1.59919,1.8198 -3.36267,3.27542 -5.2927,4.37826 -0.45791,0.2559 -0.92534,0.47204 -1.41324,0.69276 -0.0115,0.005 -0.0161,0.0225 -0.0277,0.0277 -0.62505,0.44207 -1.42795,0.8203 -2.52166,1.08071 -12.72116,3.02888 -21.34414,14.51428 -21.919,15.29618 0.50631,-0.423 1.01432,-0.7662 1.52408,-0.9698 2.0262,0.2834 4.53775,0.4156 7.56496,0.4156 3.9704,0 7.52531,-0.476 10.66854,-1.4686 3.14322,-0.9926 5.97048,-2.5322 8.50713,-4.6277 2.53662,-2.1506 4.83185,-4.8936 6.8722,-8.20231 2.09547,-3.30862 4.08282,-7.28335 5.95775,-11.91551 l -5.04326,-1.88432 z"
         style="font-size:144px;font-style:normal;font-weight:bold;line-height:125%;letter-spacing:0px;word-spacing:0px;fill:url(#linearGradient3165);fill-opacity:1;stroke:none;font-family:Sans;-inkscape-font-specification:Sans Bold" />
      <path
         inkscape:connector-curvature="0"
         style="font-size:144px;font-style:normal;font-weight:bold;line-height:125%;letter-spacing:0px;word-spacing:0px;fill:#ffcc00;fill-opacity:1;stroke:none;font-family:Sans;-inkscape-font-specification:Sans Bold"
         d="m 332.60633,985.86218 c 1.59921,2.9227 3.22273,5.30215 4.87705,7.17701 1.59919,1.81981 3.36267,3.27542 5.2927,4.37826 1.87491,1.04779 4.00222,1.80344 6.37341,2.24455 2.31607,0.3861 4.9754,0.582 8.00834,0.5819 2.23727,0 4.2479,-0.1146 6.01317,-0.3325 0.007,-4.6e-4 0.0206,5e-4 0.0278,0 0.22379,-0.0161 0.68602,-0.0914 1.16384,-0.16627 0.50327,-0.0788 1.01771,-0.15472 1.82889,-0.30481 14.8692,-2.75116 19.80058,7.57128 20.86601,10.41918 0.16676,0.4457 0.24939,0.7204 0.24939,0.7204 l 18.06724,50.3777 11.0842,18.8432 -22.14068,0 c -9.09339,-20.2468 -17.83579,-62.5215 -27.184,-66.2558 -2.0262,0.2834 -4.53776,0.4156 -7.56497,0.4156 -3.97039,0 -7.52531,-0.476 -10.66854,-1.4686 -3.14321,-0.9926 -5.97048,-2.5322 -8.50712,-4.6277 -2.53662,-2.1506 -4.83185,-4.8936 -6.8722,-8.2023 -2.09547,-3.30861 -4.08282,-7.28334 -5.95776,-11.91551 l 5.04331,-1.88431 z"
         id="path3157" />
      <path
         sodipodi:nodetypes="ccccccccsscccccccccccc"
         id="path3159"
         d="m 332.60633,985.86218 c 1.59921,2.9227 3.22273,5.30215 4.87705,7.17701 1.59919,1.81981 3.36267,3.27542 5.2927,4.37826 1.87491,1.04779 4.00222,1.80344 6.37341,2.24455 2.31607,0.3861 4.9754,0.582 8.00834,0.5819 2.23727,0 4.2479,-0.1146 6.01317,-0.3325 0.007,-4.6e-4 0.0206,5e-4 0.0278,0 0.22379,-0.0161 0.68602,-0.0914 1.16384,-0.16627 0.50327,-0.0788 1.01771,-0.15472 1.82889,-0.30481 14.8692,-2.75116 19.80058,7.57128 20.86601,10.41918 0.16676,0.4457 0.24939,0.7204 0.24939,0.7204 l 18.06724,50.3777 9.31073,18.8432 -20.36721,0 c -9.09339,-20.2468 -17.83579,-62.5215 -27.184,-66.2558 -2.0262,0.2834 -4.53776,0.4156 -7.56497,0.4156 -3.97039,0 -7.52531,-0.476 -10.66854,-1.4686 -3.14321,-0.9926 -5.97048,-2.5322 -8.50712,-4.6277 -2.53662,-2.1506 -4.83185,-4.8936 -6.8722,-8.2023 -2.09547,-3.30861 -4.08282,-7.28334 -5.95776,-11.91551 l 5.04331,-1.88431 z"
         style="font-size:144px;font-style:normal;font-weight:bold;line-height:125%;letter-spacing:0px;word-spacing:0px;fill:url(#linearGradient3167);fill-opacity:1;stroke:none;font-family:Sans;-inkscape-font-specification:Sans Bold"
         inkscape:connector-curvature="0" />
      <path
         inkscape:connector-curvature="0"
         id="path3161"
         style="font-size:144px;font-style:normal;font-weight:bold;line-height:125%;letter-spacing:0px;word-spacing:0px;fill:url(#linearGradient3169);fill-opacity:1;stroke:none;font-family:Sans;-inkscape-font-specification:Sans Bold"
         d="m 405.33584,1060.9581 -11.0407,18.8511 22.12962,0"
         sodipodi:nodetypes="ccc" />
      <path
         inkscape:connector-curvature="0"
         style="font-size:144px;font-style:normal;font-weight:bold;line-height:125%;letter-spacing:0px;word-spacing:0px;fill:url(#linearGradient3171);fill-opacity:1;stroke:none;font-family:Sans;-inkscape-font-specification:Sans Bold"
         d="m 331.85815,985.86218 c 1.59921,2.9227 3.22273,5.30215 4.87704,7.17701 1.5992,1.81981 3.36267,3.27542 5.29271,4.37826 0.45791,0.25591 0.92533,0.47204 1.41323,0.69276 0.0115,0.005 0.0161,0.0225 0.0278,0.0278 0.62504,0.44207 1.42794,0.8203 2.52165,1.08071 12.72117,3.02878 21.34414,14.51428 21.919,15.29618 -0.5063,-0.423 -1.01432,-0.7663 -1.52407,-0.9699 -2.0262,0.2834 -4.53776,0.4157 -7.56497,0.4157 -3.97039,0 -7.52531,-0.4761 -10.66854,-1.4687 -3.14321,-0.9926 -5.97048,-2.5321 -8.50712,-4.6276 -2.53662,-2.1506 -4.83185,-4.8937 -6.8722,-8.20231 -2.09548,-3.30862 -4.08283,-7.28335 -5.95776,-11.91552 l 5.04331,-1.88431 z"
         id="path3163" />
    </g>
    <path
       inkscape:connector-curvature="0"
       id="path3240"
       style="font-size:67.20256042px;font-style:normal;font-weight:bold;line-height:125%;letter-spacing:0px;word-spacing:0px;fill:#333333;fill-opacity:1;stroke:none;font-family:Sans;-inkscape-font-specification:Sans Bold"
       d="m 63.453738,1016.2686 c -3.150167,1.5313 -6.420601,2.6798 -9.811311,3.4454 -3.390792,0.7657 -6.890921,1.1485 -10.5004,1.1485 -8.159708,0 -14.62401,-2.2751 -19.392927,-6.8253 -4.768937,-4.572 -7.153401,-10.7629 -7.153397,-18.57256 -4e-6,-7.89714 2.428211,-14.10987 7.284652,-18.63821 4.85642,-4.52825 11.506666,-6.79239 19.95076,-6.79244 3.259466,5e-5 6.376769,0.30631 9.351919,0.91878 2.996946,0.61258 5.818926,1.52042 8.465948,2.72354 l 0,10.13945 c -2.734525,-1.55314 -5.458064,-2.71256 -8.170624,-3.47825 -2.690765,-0.76562 -5.392428,-1.14844 -8.104996,-1.14849 -5.031469,5e-5 -8.914426,1.41104 -11.648882,4.23298 -2.712621,2.80014 -4.068921,6.81435 -4.068905,12.04264 -1.6e-5,5.18456 1.312533,9.18786 3.93765,12.00986 2.625077,2.822 6.354903,4.233 11.189489,4.233 1.312517,0 2.526625,-0.077 3.642326,-0.2297 1.137507,-0.175 2.154733,-0.4376 3.051679,-0.7876 l 0,-9.516 -7.711231,0 0,-8.46591 19.68825,0 0,23.56031" />
    <path
       inkscape:connector-curvature="0"
       id="path3242"
       style="font-size:67.20256042px;font-style:normal;font-weight:bold;line-height:125%;letter-spacing:0px;word-spacing:0px;fill:#333333;fill-opacity:1;stroke:none;font-family:Sans;-inkscape-font-specification:Sans Bold"
       d="m 73.626002,1005.6041 0,-22.44461 11.81295,0 0,3.67514 c -1.7e-5,1.99073 -0.01095,4.49551 -0.03281,7.51435 -0.02189,2.99701 -0.03283,4.99865 -0.03281,6.00492 -1.7e-5,2.9532 0.07655,5.0861 0.229696,6.3987 0.153113,1.2907 0.415623,2.2313 0.78753,2.822 0.48125,0.7656 1.10471,1.3563 1.870384,1.7719 0.787509,0.4156 1.684417,0.6235 2.690727,0.6235 2.450069,0 4.37514,-0.9407 5.77522,-2.822 1.400024,-1.8813 2.10005,-4.4955 2.10008,-7.8425 l 0,-18.14601 11.747321,0 0,36.75141 -11.747321,0 0,-5.3158 c -1.771971,2.1438 -3.653291,3.7298 -5.643965,4.758 -1.968848,1.0062 -4.145491,1.5094 -6.529936,1.5094 -4.243926,0 -7.481546,-1.3016 -9.71287,-3.9048 -2.209466,-2.6033 -3.314194,-6.3878 -3.314189,-11.3536" />
    <path
       inkscape:connector-curvature="0"
       id="path3244"
       style="font-size:67.20256042px;font-style:normal;font-weight:bold;line-height:125%;letter-spacing:0px;word-spacing:0px;fill:#333333;fill-opacity:1;stroke:none;font-family:Sans;-inkscape-font-specification:Sans Bold"
       d="m 121.92784,983.15949 11.74732,0 0,36.75141 -11.74732,0 0,-36.75141 m 0,-14.3068 11.74732,0 0,9.58162 -11.74732,0 0,-9.58162" />
    <path
       inkscape:connector-curvature="0"
       id="path3246"
       style="font-size:67.20256042px;font-style:normal;font-weight:bold;line-height:125%;letter-spacing:0px;word-spacing:0px;fill:#333333;fill-opacity:1;stroke:none;font-family:Sans;-inkscape-font-specification:Sans Bold"
       d="m 154.31501,1001.1086 -13.25675,-17.94911 12.43641,0 7.51435,10.89416 7.61279,-10.89416 12.43641,0 -13.25676,17.88351 13.91303,18.8679 -12.43641,0 -8.26906,-11.6161 -8.17063,11.6161 -12.43641,0 13.91303,-18.8023" />
    <path
       inkscape:connector-curvature="0"
       id="path3248"
       style="font-size:67.20256042px;font-style:normal;font-weight:bold;line-height:125%;letter-spacing:0px;word-spacing:0px;fill:#808080;fill-opacity:1;stroke:none;font-family:Sans;-inkscape-font-specification:Sans Bold"
       d="m 222.96138,972.46221 0,10.36914 c -2.69076,-1.20313 -5.31586,-2.11098 -7.8753,-2.72354 -2.5595,-0.61248 -4.97678,-0.91874 -7.25184,-0.91879 -3.01888,5e-5 -5.25022,0.41569 -6.694,1.24693 -1.44382,0.83132 -2.16573,2.12199 -2.16571,3.87202 -2e-5,1.31258 0.48125,2.34075 1.44381,3.08449 0.98439,0.72194 2.75633,1.3454 5.31582,1.87039 l 5.38146,1.08285 c 5.44705,1.09382 9.31907,2.75638 11.61607,4.98769 2.29692,2.23136 3.4454,5.40331 3.44544,9.51601 -4e-5,5.4033 -1.60792,9.4285 -4.82362,12.0754 -3.19391,2.6251 -8.08315,3.9377 -14.66775,3.9377 -3.10639,0 -6.22369,-0.2953 -9.35192,-0.886 -3.12825,-0.5906 -6.25649,-1.4657 -9.38473,-2.6251 l 0,-10.6645 c 3.12824,1.6626 6.1471,2.9205 9.0566,3.7736 2.93134,0.8313 5.75332,1.247 8.46594,1.247 2.75633,0 4.86735,-0.4594 6.33306,-1.3782 1.46565,-0.9188 2.19849,-2.2313 2.19852,-3.9377 -3e-5,-1.5313 -0.50318,-2.7126 -1.50943,-3.5439 -0.98445,-0.8312 -2.96421,-1.575 -5.93929,-2.2313 l -4.88925,-1.08285 c -4.9002,-1.05002 -8.48784,-2.72352 -10.76291,-5.0205 -2.25322,-2.29694 -3.37982,-5.39237 -3.37982,-9.2863 0,-4.87827 1.57506,-8.62997 4.72518,-11.25511 3.15011,-2.62505 7.6784,-3.9376 13.58489,-3.93765 2.69071,5e-5 5.458,0.20787 8.30188,0.62346 2.84383,0.39381 5.78612,0.9954 8.8269,1.80476" />
    <path
       inkscape:connector-curvature="0"
       id="path3250"
       style="font-size:67.20256042px;font-style:normal;font-weight:bold;line-height:125%;letter-spacing:0px;word-spacing:0px;fill:#808080;fill-opacity:1;stroke:none;font-family:Sans;-inkscape-font-specification:Sans Bold"
       d="m 249.93428,980.46876 0,29.89334 4.5283,0 c 5.16267,0 9.10031,-1.2797 11.81295,-3.8392 2.73444,-2.5595 4.10168,-6.2784 4.10172,-11.1567 -4e-5,-4.8564 -1.35634,-8.55341 -4.06891,-11.09104 -2.71263,-2.53756 -6.66122,-3.80636 -11.84576,-3.8064 l -4.5283,0 m -12.63329,-9.5488 13.32238,0 c 7.43775,5e-5 12.97234,0.53601 16.60376,1.60787 3.65322,1.05009 6.78146,2.84391 9.38473,5.38146 2.29691,2.2095 4.00323,4.75803 5.11894,7.6456 1.11562,2.88764 1.67345,6.15808 1.67351,9.81131 -6e-5,3.69704 -0.55789,7.0003 -1.67351,9.9098 -1.11571,2.8876 -2.82203,5.4361 -5.11894,7.6456 -2.62514,2.5376 -5.77526,4.3423 -9.45036,5.4142 -3.67517,1.0501 -9.18788,1.5751 -16.53813,1.5751 l -13.32238,0 0,-48.99094" />
    <g
       transform="matrix(1.680064,0,0,1.680064,-530.42598,-872.44963)"
       id="g3187">
      <path
         inkscape:connector-curvature="0"
         style="font-size:144px;font-style:normal;font-weight:bold;line-height:125%;letter-spacing:0px;word-spacing:0px;fill:#ffcc00;fill-opacity:1;stroke:none;font-family:Sans;-inkscape-font-specification:Sans Bold"
         d="m 478.14185,985.86217 c -1.59921,2.9227 -3.22274,5.30216 -4.87705,7.17702 -1.59919,1.8198 -3.36267,3.27542 -5.2927,4.37826 -1.87492,1.04778 -4.00222,1.80343 -6.37342,2.24455 -2.31606,0.386 -4.97539,0.582 -8.00833,0.5819 -2.23727,0 -4.2479,-0.1146 -6.01318,-0.33251 -0.007,-4.5e-4 -0.0206,5.1e-4 -0.0278,0 -0.2238,-0.0162 -0.68603,-0.0914 -1.16384,-0.16626 -0.50327,-0.0788 -1.01771,-0.15473 -1.8289,-0.30482 -14.86919,-2.75115 -19.80057,7.57129 -20.866,10.41919 -0.16677,0.4457 -0.24939,0.7204 -0.24939,0.7204 l -18.06725,50.3777 -11.08419,18.8432 22.14068,0 c 9.09339,-20.2468 17.83579,-62.5215 27.184,-66.2558 2.0262,0.2834 4.53775,0.4156 7.56496,0.4156 3.9704,0 7.52531,-0.476 10.66854,-1.4686 3.14322,-0.9926 5.97048,-2.5322 8.50713,-4.6277 2.53662,-2.1506 4.83185,-4.8936 6.8722,-8.2023 2.09547,-3.30862 4.08282,-7.28335 5.95775,-11.91551 l -5.04326,-1.88432 z"
         id="path3189" />
      <path
         inkscape:connector-curvature="0"
         id="path3191"
         d="m 478.14185,985.86217 c -1.59921,2.9227 -3.22274,5.30216 -4.87705,7.17702 -1.59919,1.8198 -3.36267,3.27542 -5.2927,4.37826 -0.45791,0.2559 -0.92534,0.47204 -1.41324,0.69276 -0.0115,0.005 -0.0161,0.0225 -0.0277,0.0277 -0.62505,0.44207 -1.42795,0.8203 -2.52166,1.08071 -12.72116,3.02888 -21.34414,14.51428 -21.919,15.29618 0.50631,-0.423 1.01432,-0.7662 1.52408,-0.9698 2.0262,0.2834 4.53775,0.4156 7.56496,0.4156 3.9704,0 7.52531,-0.476 10.66854,-1.4686 3.14322,-0.9926 5.97048,-2.5322 8.50713,-4.6277 2.53662,-2.1506 4.83185,-4.8936 6.8722,-8.20231 2.09547,-3.30862 4.08282,-7.28335 5.95775,-11.91551 l -5.04326,-1.88432 z"
         style="font-size:144px;font-style:normal;font-weight:bold;line-height:125%;letter-spacing:0px;word-spacing:0px;fill:url(#linearGradient3221);fill-opacity:1;stroke:none;font-family:Sans;-inkscape-font-specification:Sans Bold" />
      <path
         inkscape:connector-curvature="0"
         style="font-size:144px;font-style:normal;font-weight:bold;line-height:125%;letter-spacing:0px;word-spacing:0px;fill:#ffcc00;fill-opacity:1;stroke:none;font-family:Sans;-inkscape-font-specification:Sans Bold"
         d="m 332.60633,985.86218 c 1.59921,2.9227 3.22273,5.30215 4.87705,7.17701 1.59919,1.81981 3.36267,3.27542 5.2927,4.37826 1.87491,1.04779 4.00222,1.80344 6.37341,2.24455 2.31607,0.3861 4.9754,0.582 8.00834,0.5819 2.23727,0 4.2479,-0.1146 6.01317,-0.3325 0.007,-4.6e-4 0.0206,5e-4 0.0278,0 0.22379,-0.0161 0.68602,-0.0914 1.16384,-0.16627 0.50327,-0.0788 1.01771,-0.15472 1.82889,-0.30481 14.8692,-2.75116 19.80058,7.57128 20.86601,10.41918 0.16676,0.4457 0.24939,0.7204 0.24939,0.7204 l 18.06724,50.3777 11.0842,18.8432 -22.14068,0 c -9.09339,-20.2468 -17.83579,-62.5215 -27.184,-66.2558 -2.0262,0.2834 -4.53776,0.4156 -7.56497,0.4156 -3.97039,0 -7.52531,-0.476 -10.66854,-1.4686 -3.14321,-0.9926 -5.97048,-2.5322 -8.50712,-4.6277 -2.53662,-2.1506 -4.83185,-4.8936 -6.8722,-8.2023 -2.09547,-3.30861 -4.08282,-7.28334 -5.95776,-11.91551 l 5.04331,-1.88431 z"
         id="path3193" />
      <path
         sodipodi:nodetypes="ccccccccsscccccccccccc"
         id="path3195"
         d="m 332.60633,985.86218 c 1.59921,2.9227 3.22273,5.30215 4.87705,7.17701 1.59919,1.81981 3.36267,3.27542 5.2927,4.37826 1.87491,1.04779 4.00222,1.80344 6.37341,2.24455 2.31607,0.3861 4.9754,0.582 8.00834,0.5819 2.23727,0 4.2479,-0.1146 6.01317,-0.3325 0.007,-4.6e-4 0.0206,5e-4 0.0278,0 0.22379,-0.0161 0.68602,-0.0914 1.16384,-0.16627 0.50327,-0.0788 1.01771,-0.15472 1.82889,-0.30481 14.8692,-2.75116 19.80058,7.57128 20.86601,10.41918 0.16676,0.4457 0.24939,0.7204 0.24939,0.7204 l 18.06724,50.3777 9.31073,18.8432 -20.36721,0 c -9.09339,-20.2468 -17.83579,-62.5215 -27.184,-66.2558 -2.0262,0.2834 -4.53776,0.4156 -7.56497,0.4156 -3.97039,0 -7.52531,-0.476 -10.66854,-1.4686 -3.14321,-0.9926 -5.97048,-2.5322 -8.50712,-4.6277 -2.53662,-2.1506 -4.83185,-4.8936 -6.8722,-8.2023 -2.09547,-3.30861 -4.08282,-7.28334 -5.95776,-11.91551 l 5.04331,-1.88431 z"
         style="font-size:144px;font-style:normal;font-weight:bold;line-height:125%;letter-spacing:0px;word-spacing:0px;fill:url(#linearGradient3223);fill-opacity:1;stroke:none;font-family:Sans;-inkscape-font-specification:Sans Bold"
         inkscape:connector-curvature="0" />
      <path
         inkscape:connector-curvature="0"
         id="path3197"
         style="font-size:144px;font-style:normal;font-weight:bold;line-height:125%;letter-spacing:0px;word-spacing:0px;fill:url(#linearGradient3225);fill-opacity:1;stroke:none;font-family:Sans;-inkscape-font-specification:Sans Bold"
         d="m 405.33584,1060.9581 -11.0407,18.8511 22.12962,0"
         sodipodi:nodetypes="ccc" />
      <path
         inkscape:connector-curvature="0"
         style="font-size:144px;font-style:normal;font-weight:bold;line-height:125%;letter-spacing:0px;word-spacing:0px;fill:url(#linearGradient3227);fill-opacity:1;stroke:none;font-family:Sans;-inkscape-font-specification:Sans Bold"
         d="m 331.85815,985.86218 c 1.59921,2.9227 3.22273,5.30215 4.87704,7.17701 1.5992,1.81981 3.36267,3.27542 5.29271,4.37826 0.45791,0.25591 0.92533,0.47204 1.41323,0.69276 0.0115,0.005 0.0161,0.0225 0.0278,0.0278 0.62504,0.44207 1.42794,0.8203 2.52165,1.08071 12.72117,3.02878 21.34414,14.51428 21.919,15.29618 -0.5063,-0.423 -1.01432,-0.7663 -1.52407,-0.9699 -2.0262,0.2834 -4.53776,0.4157 -7.56497,0.4157 -3.97039,0 -7.52531,-0.4761 -10.66854,-1.4687 -3.14321,-0.9926 -5.97048,-2.5321 -8.50712,-4.6276 -2.53662,-2.1506 -4.83185,-4.8937 -6.8722,-8.20231 -2.09548,-3.30862 -4.08283,-7.28335 -5.95776,-11.91552 l 5.04331,-1.88431 z"
         id="path3199" />
    </g>
  </g>
</svg>
