<?xml version="1.0" encoding="UTF-8" standalone="no"?>
<!-- Created with Inkscape (http://www.inkscape.org/) -->

<svg
   xmlns:dc="http://purl.org/dc/elements/1.1/"
   xmlns:cc="http://creativecommons.org/ns#"
   xmlns:rdf="http://www.w3.org/1999/02/22-rdf-syntax-ns#"
   xmlns:svg="http://www.w3.org/2000/svg"
   xmlns="http://www.w3.org/2000/svg"
   xmlns:sodipodi="http://sodipodi.sourceforge.net/DTD/sodipodi-0.dtd"
   xmlns:inkscape="http://www.inkscape.org/namespaces/inkscape"
   width="534.67584"
   height="165.64482"
   id="svg2972"
   version="1.1"
   inkscape:version="0.91 r13725"
   sodipodi:docname="guix-logo-white.svg">
  <defs
     id="defs2974" />
  <sodipodi:namedview
     id="base"
     pagecolor="#ffffff"
     bordercolor="#666666"
     borderopacity="1.0"
     inkscape:pageopacity="0.0"
     inkscape:pageshadow="2"
     inkscape:zoom="0.70710678"
     inkscape:cx="87.942462"
     inkscape:cy="-6.1493169"
     inkscape:current-layer="svg2972"
     inkscape:document-units="px"
     showgrid="false"
     inkscape:window-width="1364"
     inkscape:window-height="766"
     inkscape:window-x="0"
     inkscape:window-y="0"
     inkscape:window-maximized="0"
     showguides="false"
     inkscape:guide-bbox="true"
     inkscape:snap-to-guides="false"
     inkscape:snap-grids="false"
     fit-margin-top="0"
     fit-margin-left="0"
     fit-margin-right="0"
     fit-margin-bottom="0">
    <sodipodi:guide
       orientation="1,0"
       position="244.47958,76.574063"
       id="guide3027" />
    <sodipodi:guide
       orientation="1,0"
       position="370.36339,35.253133"
       id="guide3030" />
    <sodipodi:guide
       orientation="0,1"
       position="370.36339,41.440313"
       id="guide3032" />
    <sodipodi:guide
       orientation="0,1"
       position="315.70862,42.688933"
       id="guide3854" />
    <sodipodi:guide
       orientation="0,1"
       position="324.52112,21.438933"
       id="guide3856" />
    <inkscape:grid
       type="xygrid"
       id="grid3868"
       empspacing="5"
       visible="true"
       enabled="true"
       snapvisiblegridlinesonly="true"
       originx="-52.353877"
       originy="-158.93607" />
    <sodipodi:guide
       orientation="1,0"
       position="176.77112,87.563933"
       id="guide3634" />
    <sodipodi:guide
       orientation="1,0"
       position="530.65566,33.220203"
       id="guide3636" />
    <sodipodi:guide
       orientation="0,1"
       position="312.64612,157.06393"
       id="guide3659" />
    <sodipodi:guide
       orientation="0,1"
       position="308.27058,-8.6758769"
       id="guide3661" />
    <sodipodi:guide
       orientation="0,1"
       position="-144.98487,80.066023"
       id="guide3720" />
  </sodipodi:namedview>
  <metadata
     id="metadata2977">
    <rdf:RDF>
      <cc:Work
         rdf:about="">
        <dc:format>image/svg+xml</dc:format>
        <dc:type
           rdf:resource="http://purl.org/dc/dcmitype/StillImage" />
        <dc:title></dc:title>
        <cc:license
           rdf:resource="" />
        <dc:creator>
          <cc:Agent>
            <dc:title>Nikita Karetnikov</dc:title>
          </cc:Agent>
        </dc:creator>
      </cc:Work>
    </rdf:RDF>
  </metadata>
  <g
     id="layer1"
     inkscape:label="Layer 1"
     inkscape:groupmode="layer"
     style="display:inline"
     sodipodi:insensitive="true"
     transform="translate(-52.353877,-155.41911)">
    <g
       id="g3654"
       transform="matrix(1.0719671,0,0,1.0719671,-10.67799,-15.461777)">
      <path
         inkscape:connector-curvature="0"
         sodipodi:nodetypes="csssccc"
         id="path2911-9-1"
         style="color:#000000;display:inline;overflow:visible;visibility:visible;fill:#43ad77;fill-opacity:1;fill-rule:nonzero;stroke:none;stroke-width:2.20000005;marker:none;enable-background:accumulate"
         d="M 111.7542,312.41889 C 76.973768,290.83268 58.800198,264.4135 58.800188,235.73916 c 0,-29.74389 19.65691,-38.98421 31.64708,-38.98422 21.227742,-2e-5 30.080402,13.85396 30.080402,31.57395 -1e-5,15.78704 -8.54348,21.81326 -11.65743,36.52754 -3.08334,17.52975 8.48604,30.83838 11.34409,34.35291 7.64347,9.16923 -0.11959,18.43746 -8.46013,13.20955" />
      <path
         inkscape:connector-curvature="0"
         sodipodi:nodetypes="csssccc"
         id="path2911-9-1-2"
         style="fill:#ff4141;fill-opacity:1;fill-rule:nonzero;stroke:none"
         d="m 70.810318,176.07399 c 36.084462,-19.32761 68.050912,-21.85681 92.883632,-7.51962 25.75897,14.87195 23.93288,36.51548 17.93779,46.89929 -10.61388,18.38376 -27.03807,19.12336 -42.38406,10.26339 -13.67194,-7.89354 -14.61909,-18.30549 -25.80508,-28.3594 -13.639543,-11.43513 -30.949842,-8.07005 -35.422522,-7.35217 -11.76251,2.0348 -15.90752,-9.32233 -7.20976,-13.93149" />
      <path
         inkscape:connector-curvature="0"
         sodipodi:nodetypes="csssccc"
         id="path2911-9-1-2-5"
         style="fill:#41c0ff;fill-opacity:1;fill-rule:nonzero;stroke:none"
         d="m 209.34349,208.66892 c -1.30401,40.91386 -15.09689,69.86218 -39.92963,84.19937 -25.75897,14.87197 -43.58976,2.46873 -49.58485,-7.91505 -10.61387,-18.38376 -3.0423,-32.97735 12.30368,-41.83733 13.67195,-7.89351 23.16254,-3.50778 37.46249,-8.16818 16.72284,-6.09464 22.46378,-22.76832 24.07842,-27.0007 4.11907,-11.20408 16.02712,-9.11517 15.66989,0.72189" />
    </g>
    <g
       style="font-style:normal;font-variant:normal;font-weight:bold;font-stretch:normal;font-size:52px;line-height:100%;font-family:'DejaVu Sans';-inkscape-font-specification:'DejaVu Sans Bold';text-align:start;writing-mode:lr-tb;text-anchor:start;display:inline;fill:#ffffff;fill-opacity:1;stroke:#ffffff;stroke-width:2.20000005;stroke-linecap:square;stroke-linejoin:round;stroke-miterlimit:4;stroke-dasharray:none;stroke-opacity:1"
       id="text5624"
       transform="matrix(3.0473347,0,0,3.0473347,-309.74076,-398.10123)">
      <path
         inkscape:connector-curvature="0"
         style="font-weight:normal;line-height:100%;font-family:'DejaVu Sans';-inkscape-font-specification:'DejaVu Sans';fill:#ffffff;fill-opacity:1;stroke:#ffffff;stroke-width:2.20000005;stroke-linecap:square;stroke-linejoin:round;stroke-miterlimit:4;stroke-dasharray:none;stroke-opacity:1"
         d="m 207.30928,222.77393 c 0,-3.39388 0,-6.78776 0,-10.18164 -2.79297,0 -5.58594,0 -8.37891,0 0.002,-4.21545 0.002,-0.0148 0.002,-4.2187 4.40327,0 9.05203,0.004 13.4553,0.004 0,5.42513 0,10.85026 0,16.27539 -7.26136,5.01625 -17.65791,5.90016 -25.35255,1.35206 -7.55215,-4.8581 -8.86346,-15.00204 -7.05343,-23.13005 1.45372,-7.51883 8.51362,-12.98789 16.05124,-13.20512 5.3124,-0.40697 10.82822,0.65231 15.3645,3.52413 0,1.81966 0,3.63932 0,5.45898 -5.90218,-5.24221 -15.79242,-6.89341 -22.30249,-1.87532 -5.11424,4.81675 -5.05795,12.84856 -3.53882,19.21078 1.34399,5.81431 7.39742,9.08909 13.06983,8.71532 2.98367,0.003 6.06967,-0.38917 8.68359,-1.92968 z"
         id="path5629"
         sodipodi:nodetypes="ccccccccccccccc" />
      <path
         inkscape:connector-curvature="0"
         style="font-weight:normal;line-height:100%;font-family:'DejaVu Sans';-inkscape-font-specification:'DejaVu Sans';fill:#ffffff;fill-opacity:1;stroke:#ffffff;stroke-width:2.19995522;stroke-linecap:square;stroke-linejoin:round;stroke-miterlimit:4;stroke-dasharray:none;stroke-opacity:1"
         d="m 221.09639,216.95947 c 0,-5.73828 0,-11.47656 0,-17.21484 1.55729,0 3.11458,0 4.67187,0 0.10672,6.59237 -0.23761,13.20981 0.22137,19.78287 0.3041,5.32211 7.09944,6.77653 10.85053,3.97165 4.47618,-3.20546 3.20449,-9.07184 3.40076,-13.81234 0,-3.31406 0,-6.62812 0,-9.94218 1.55729,0 3.11459,0 4.67188,0 0,9.47917 0,18.95833 0,28.4375 -1.55729,0 -3.11459,0 -4.67188,0 0,-2.53431 6.7e-4,-4.12904 6.7e-4,-4.48502 -3.51182,6.97331 -15.01439,7.07483 -17.9451,-0.005 -0.8858,-2.18217 -1.17967,-4.02679 -1.2001,-6.73259 l 0,-5e-5 z"
         id="path5631"
         sodipodi:nodetypes="cccccccccccccc" />
      <path
         inkscape:connector-curvature="0"
         style="font-weight:normal;line-height:100%;font-family:'DejaVu Sans';-inkscape-font-specification:'DejaVu Sans';fill:#ffffff;fill-opacity:1;stroke:#ffffff;stroke-width:2.20000005;stroke-linecap:square;stroke-linejoin:round;stroke-miterlimit:4;stroke-dasharray:none;stroke-opacity:1"
         d="m 254.58662,199.74463 c 1.55729,0 3.11459,0 4.67188,0 0,9.47917 0,18.95833 0,28.4375 -1.55729,0 -3.11459,0 -4.67188,0 0,-9.47917 0,-18.95833 0,-28.4375 z m 0,-11.07031 c 1.55729,0 3.11459,0 4.67188,0 0,1.972 0,3.94401 0,5.91601 -1.55729,0 -3.11459,0 -4.67188,0 0,-1.972 0,-3.94401 0,-5.91601 z"
         id="path5633" />
      <path
         inkscape:connector-curvature="0"
         style="font-weight:normal;line-height:100%;font-family:'DejaVu Sans';-inkscape-font-specification:'DejaVu Sans';fill:#ffffff;fill-opacity:1;stroke:#ffffff;stroke-width:2.20000005;stroke-linecap:square;stroke-linejoin:round;stroke-miterlimit:4;stroke-dasharray:none;stroke-opacity:1"
         d="m 292.64717,199.74463 c -3.42773,4.61263 -6.85547,9.22526 -10.2832,13.83789 3.60547,4.86654 7.21093,9.73307 10.8164,14.59961 -1.83659,0 -3.67317,0 -5.50976,0 -2.75912,-3.72396 -5.51823,-7.44792 -8.27735,-11.17188 -2.75911,3.72396 -5.51823,7.44792 -8.27734,11.17188 -1.83659,0 -3.67317,0 -5.50976,0 3.68164,-4.95964 7.36328,-9.91927 11.04492,-14.87891 -3.36849,-4.51953 -6.73698,-9.03906 -10.10547,-13.55859 1.83659,0 3.67317,0 5.50976,0 2.51367,3.37695 5.02735,6.75391 7.54102,10.13086 2.51367,-3.37695 5.02735,-6.75391 7.54102,-10.13086 1.83659,0 3.67317,0 5.50976,0 z"
         id="path5635" />
    </g>
    <text
       xml:space="preserve"
       style="font-style:normal;font-weight:normal;font-size:40px;font-family:'Bitstream Vera Sans';fill:#000000;fill-opacity:1;stroke:none"
       x="381.5"
       y="323"
       id="text3665"><tspan
         sodipodi:role="line"
         id="tspan3667"
         x="381.5"
         y="323" /></text>
  </g>
</svg>
