<?xml version="1.0" encoding="UTF-8" standalone="no"?>
<svg
   xmlns:dc="http://purl.org/dc/elements/1.1/"
   xmlns:cc="http://creativecommons.org/ns#"
   xmlns:rdf="http://www.w3.org/1999/02/22-rdf-syntax-ns#"
   xmlns:svg="http://www.w3.org/2000/svg"
   xmlns="http://www.w3.org/2000/svg"
   xmlns:xlink="http://www.w3.org/1999/xlink"
   xmlns:sodipodi="http://sodipodi.sourceforge.net/DTD/sodipodi-0.dtd"
   xmlns:inkscape="http://www.inkscape.org/namespaces/inkscape"
   version="1.1"
   width="128px"
   height="128px"
   id="RSSicon"
   viewBox="0 0 256 256"
   inkscape:version="0.48.5 r10040"
   sodipodi:docname="feed.svg"
   inkscape:export-filename="feed-bg-whitepng.png"
   inkscape:export-xdpi="90"
   inkscape:export-ydpi="90">
  <metadata
     id="metadata34">
    <rdf:RDF>
      <cc:Work
         rdf:about="">
        <dc:format>image/svg+xml</dc:format>
        <dc:type
           rdf:resource="http://purl.org/dc/dcmitype/StillImage" />
        <dc:title></dc:title>
      </cc:Work>
    </rdf:RDF>
  </metadata>
  <sodipodi:namedview
     pagecolor="#ffffff"
     bordercolor="#666666"
     borderopacity="1"
     objecttolerance="10"
     gridtolerance="10"
     guidetolerance="10"
     inkscape:pageopacity="0"
     inkscape:pageshadow="2"
     inkscape:window-width="1920"
     inkscape:window-height="1028"
     id="namedview32"
     showgrid="false"
     inkscape:showpageshadow="false"
     inkscape:zoom="1.84375"
     inkscape:cx="-116.06779"
     inkscape:cy="64"
     inkscape:window-x="0"
     inkscape:window-y="24"
     inkscape:window-maximized="1"
     inkscape:current-layer="RSSicon"
     inkscape:snap-page="false" />
  <defs
     id="defs3">
    <linearGradient
       x1="0.085"
       y1="0.085"
       x2="0.915"
       y2="0.915"
       id="RSSg">
      <stop
         offset="0.0"
         stop-color="#E3702D"
         id="stop6" />
      <stop
         offset="0.1071"
         stop-color="#EA7D31"
         id="stop8" />
      <stop
         offset="0.3503"
         stop-color="#F69537"
         id="stop10" />
      <stop
         offset="0.5"
         stop-color="#FB9E3A"
         id="stop12" />
      <stop
         offset="0.7016"
         stop-color="#EA7C31"
         id="stop14" />
      <stop
         offset="0.8866"
         stop-color="#DE642B"
         id="stop16" />
      <stop
         offset="1.0"
         stop-color="#D95B29"
         id="stop18" />
    </linearGradient>
    <linearGradient
       inkscape:collect="always"
       xlink:href="#RSSg"
       id="linearGradient3023"
       x1="30.06"
       y1="30.06"
       x2="225.94001"
       y2="225.94001"
       gradientUnits="userSpaceOnUse"
       gradientTransform="translate(-320,0)" />
  </defs>
  <path
     style="fill:#ffffff;fill-opacity:1"
     d="M 0,0.11864 0,51.294911 A 204.70508,204.70508 0 0 1 204.70508,256 l 51.17628,0 A 255.88135,255.88135 0 0 0 0,0.11864 z M 0,86.387211 0,136.10131 A 119.89869,119.89869 0 0 1 119.89869,256 l 49.71409,0 A 169.61278,169.61278 0 0 0 0,86.387211 z M 35.0923,185.81539 C 15.711358,185.81539 0,201.52674 0,220.9077 0,240.28865 15.711358,256 35.0923,256 c 19.380943,0 35.092301,-15.71135 35.092301,-35.0923 0,-19.38096 -15.711358,-35.09231 -35.092301,-35.09231 z"
     id="circle26"
     inkscape:connector-curvature="0" />
  <rect
     id="rect3011"
     y="0"
     x="-320"
     ry="55"
     rx="55"
     height="256"
     width="256"
     style="fill:#cc5d15" />
  <rect
     id="rect3013"
     y="5"
     x="-315"
     ry="50"
     rx="50"
     height="246"
     width="246"
     style="fill:#f49c52" />
  <rect
     id="rect3015"
     y="10"
     x="-310"
     ry="47"
     rx="47"
     height="236"
     width="236"
     style="fill:url(#linearGradient3023)" />
  <circle
     id="circle3017"
     r="24"
     cy="189"
     cx="68"
     sodipodi:cx="68"
     sodipodi:cy="189"
     sodipodi:rx="24"
     sodipodi:ry="24"
     transform="translate(-320,0)"
     style="fill:#ffffff" />
  <path
     id="path3019"
     d="m -160,213 h -34 a 82,82 0 0 0 -82,-82 V 97 a 116,116 0 0 1 116,116 z"
     inkscape:connector-curvature="0"
     style="fill:#ffffff" />
  <path
     id="path3021"
     d="M -136,213 A 140,140 0 0 0 -276,73 V 38 a 175,175 0 0 1 175,175 z"
     inkscape:connector-curvature="0"
     style="fill:#ffffff" />
</svg>
