<?xml version="1.0" encoding="UTF-8" standalone="no"?>
<!-- Created with Inkscape (http://www.inkscape.org/) -->

<svg
   xmlns:dc="http://purl.org/dc/elements/1.1/"
   xmlns:cc="http://creativecommons.org/ns#"
   xmlns:rdf="http://www.w3.org/1999/02/22-rdf-syntax-ns#"
   xmlns:svg="http://www.w3.org/2000/svg"
   xmlns="http://www.w3.org/2000/svg"
   xmlns:xlink="http://www.w3.org/1999/xlink"
   xmlns:sodipodi="http://sodipodi.sourceforge.net/DTD/sodipodi-0.dtd"
   xmlns:inkscape="http://www.inkscape.org/namespaces/inkscape"
   width="180"
   height="180"
   id="svg2"
   version="1.1"
   inkscape:version="0.48.5 r10040"
   sodipodi:docname="installer.svg"
   inkscape:export-filename="GuixSD-package.png"
   inkscape:export-xdpi="90"
   inkscape:export-ydpi="90">
  <defs
     id="defs4">
    <color-profile
       id="color-profile3838"
       xlink:href="/usr/share/color/icc/ghostscript/ps_cmyk.icc"
       name="Artifex-PS-CMYK-Profile" />
  </defs>
  <sodipodi:namedview
     id="base"
     pagecolor="#ffffff"
     bordercolor="#666666"
     borderopacity="1.0"
     inkscape:pageopacity="0.0"
     inkscape:pageshadow="2"
     inkscape:zoom="1"
     inkscape:cx="20.72426"
     inkscape:cy="57.858552"
     inkscape:document-units="px"
     inkscape:current-layer="layer1"
     showgrid="false"
     inkscape:window-width="1440"
     inkscape:window-height="834"
     inkscape:window-x="0"
     inkscape:window-y="27"
     inkscape:window-maximized="1"
     inkscape:showpageshadow="false"
     showborder="true"
     borderlayer="true"
     inkscape:object-nodes="true"
     inkscape:snap-global="false">
    <inkscape:grid
       type="axonomgrid"
       id="grid3004"
       units="mm"
       empspacing="5"
       visible="true"
       enabled="true"
       snapvisiblegridlinesonly="true"
       spacingy="3.7mm"
       originx="-4mm"
       originy="-8.5mm" />
  </sodipodi:namedview>
  <metadata
     id="metadata7">
    <rdf:RDF>
      <cc:Work
         rdf:about="">
        <dc:format>image/svg+xml</dc:format>
        <dc:type
           rdf:resource="http://purl.org/dc/dcmitype/StillImage" />
        <dc:title></dc:title>
        <dc:date />
        <dc:creator>
          <cc:Agent>
            <dc:title />
          </cc:Agent>
        </dc:creator>
        <dc:rights>
          <cc:Agent>
            <dc:title />
          </cc:Agent>
        </dc:rights>
        <cc:license
           rdf:resource="http://creativecommons.org/licenses/by-sa/4.0/" />
        <dc:description />
      </cc:Work>
      <cc:License
         rdf:about="http://creativecommons.org/licenses/by-sa/3.0/">
        <cc:permits
           rdf:resource="http://creativecommons.org/ns#Reproduction" />
        <cc:permits
           rdf:resource="http://creativecommons.org/ns#Distribution" />
        <cc:requires
           rdf:resource="http://creativecommons.org/ns#Notice" />
        <cc:requires
           rdf:resource="http://creativecommons.org/ns#Attribution" />
        <cc:permits
           rdf:resource="http://creativecommons.org/ns#DerivativeWorks" />
        <cc:requires
           rdf:resource="http://creativecommons.org/ns#ShareAlike" />
      </cc:License>
    </rdf:RDF>
  </metadata>
  <g
     inkscape:label="layer"
     inkscape:groupmode="layer"
     id="layer1"
     transform="translate(0,-872.36218)">
    <text
       xml:space="preserve"
       style="font-size:40px;font-style:normal;font-weight:normal;fill:#000000;fill-opacity:1;stroke:none;font-family:Bitstream Vera Sans"
       x="38.808048"
       y="1244.2922"
       id="text3665"><tspan
         sodipodi:role="line"
         id="tspan3667"
         x="38.808048"
         y="1244.2922" /></text>
    <g
       id="g3053">
      <rect
         style="fill:#333333;fill-opacity:1"
         id="rect4123"
         width="117.81"
         height="104.81"
         x="-228.905"
         y="917.54926" />
      <path
         sodipodi:nodetypes="cccccccccc"
         inkscape:connector-curvature="0"
         id="path4125"
         d="m -216.90625,902.36511 -12,11.1875 56.90625,0 0,-11.1875 z m 48.90625,0 0,11.1875 56.90625,0 -12,-11.1875 z"
         style="fill:#333333;fill-opacity:1" />
      <g
         transform="translate(-70,-1.3303361)"
         id="g4380">
        <g
           id="g3654"
           transform="matrix(0.31714039,0,0,0.31714039,-142.52084,885.30434)"
           style="fill:#ffffff;fill-opacity:1">
          <path
             sodipodi:nodetypes="csssccc"
             id="path2911-9-1"
             style="color:#000000;fill:#ffffff;fill-opacity:1;fill-rule:nonzero;stroke:none;stroke-width:2.20000005;marker:none;visibility:visible;display:inline;overflow:visible;enable-background:accumulate"
             d="M 111.7542,312.41889 C 76.973768,290.83268 58.800198,264.4135 58.800188,235.73916 c 0,-29.74389 19.65691,-38.98421 31.64708,-38.98422 21.227742,-2e-5 30.080402,13.85396 30.080402,31.57395 -1e-5,15.78704 -8.54348,21.81326 -11.65743,36.52754 -3.08334,17.52975 8.48604,30.83838 11.34409,34.35291 7.64347,9.16923 -0.11959,18.43746 -8.46013,13.20955"
             inkscape:connector-curvature="0" />
          <path
             sodipodi:nodetypes="csssccc"
             id="path2911-9-1-2"
             style="fill:#ffffff;fill-opacity:1;fill-rule:nonzero;stroke:none"
             d="m 70.810318,176.07399 c 36.084462,-19.32761 68.050912,-21.85681 92.883632,-7.51962 25.75897,14.87195 23.93288,36.51548 17.93779,46.89929 -10.61388,18.38376 -27.03807,19.12336 -42.38406,10.26339 -13.67194,-7.89354 -14.61909,-18.30549 -25.80508,-28.3594 -13.639543,-11.43513 -30.949842,-8.07005 -35.422522,-7.35217 -11.76251,2.0348 -15.90752,-9.32233 -7.20976,-13.93149"
             inkscape:connector-curvature="0" />
          <path
             sodipodi:nodetypes="csssccc"
             id="path2911-9-1-2-5"
             style="fill:#ffffff;fill-opacity:1;fill-rule:nonzero;stroke:none"
             d="m 209.34349,208.66892 c -1.30401,40.91386 -15.09689,69.86218 -39.92963,84.19937 -25.75897,14.87197 -43.58976,2.46873 -49.58485,-7.91505 -10.61387,-18.38376 -3.0423,-32.97735 12.30368,-41.83733 13.67195,-7.89351 23.16254,-3.50778 37.46249,-8.16818 16.72284,-6.09464 22.46378,-22.76832 24.07842,-27.0007 4.11907,-11.20408 16.02712,-9.11517 15.66989,0.72189"
             inkscape:connector-curvature="0" />
        </g>
        <g
           id="g4304"
           transform="translate(-183.45313,0)"
           style="fill:#ffffff;fill-opacity:1">
          <path
             style="font-size:40px;font-style:normal;font-weight:bold;line-height:125%;letter-spacing:0px;word-spacing:0px;fill:#ffffff;fill-opacity:1;stroke:none;font-family:Sans;-inkscape-font-specification:Sans Bold"
             d="m 71.834548,1005.2148 c -1.025186,0.4984 -2.089509,0.8721 -3.192979,1.1213 -1.103492,0.2492 -2.242567,0.3738 -3.417231,0.3738 -2.655478,0 -4.759207,-0.7404 -6.311193,-2.2212 -1.551997,-1.4879 -2.327993,-3.5027 -2.327993,-6.04426 0,-2.57003 0.790233,-4.59188 2.370705,-6.06558 1.580467,-1.47366 3.744711,-2.21051 6.492739,-2.21052 1.060752,1e-5 2.075243,0.0997 3.043473,0.29901 0.975322,0.19935 1.893698,0.4948 2.755141,0.88634 l 0,3.29977 c -0.889918,-0.50546 -1.77626,-0.88278 -2.659032,-1.13196 -0.87568,-0.24916 -1.754904,-0.37375 -2.637676,-0.37376 -1.637433,10e-6 -2.901092,0.4592 -3.790988,1.37757 -0.882794,0.91127 -1.324185,2.21765 -1.32418,3.91913 -5e-6,1.68726 0.427149,2.99006 1.281462,3.90846 0.854302,0.9184 2.06813,1.3776 3.641489,1.3776 0.427142,0 0.822256,-0.025 1.185352,-0.075 0.370187,-0.057 0.701232,-0.1424 0.99313,-0.2563 l 0,-3.0968 -2.509527,0 0,-2.75518 6.407308,0 0,7.66738"
             id="path4296"
             inkscape:connector-curvature="0" />
          <path
             style="font-size:40px;font-style:normal;font-weight:bold;line-height:125%;letter-spacing:0px;word-spacing:0px;fill:#ffffff;fill-opacity:1;stroke:none;font-family:Sans;-inkscape-font-specification:Sans Bold"
             d="m 75.144991,1001.7442 0,-7.30432 3.844385,0 0,1.19603 c -5e-6,0.64786 -0.0038,1.46301 -0.01066,2.44546 -0.0071,0.97534 -0.01066,1.62674 -0.01066,1.95423 -6e-6,0.9611 0.02493,1.6552 0.07475,2.0824 0.04981,0.42 0.135262,0.7261 0.256292,0.9183 0.156619,0.2492 0.359515,0.4414 0.608694,0.5767 0.256287,0.1353 0.548173,0.2029 0.87567,0.2029 0.797341,0 1.423837,-0.3061 1.879476,-0.9184 0.455619,-0.6122 0.683436,-1.463 0.683447,-2.5522 l 0,-5.90542 3.823023,0 0,11.96032 -3.823023,0 0,-1.73 c -0.57667,0.6977 -1.188923,1.2138 -1.836765,1.5484 -0.640739,0.3275 -1.349101,0.4913 -2.125091,0.4913 -1.381135,0 -2.43478,-0.4236 -3.160938,-1.2708 -0.719046,-0.8472 -1.078566,-2.0788 -1.07856,-3.6949"
             id="path4298"
             inkscape:connector-curvature="0" />
          <path
             style="font-size:40px;font-style:normal;font-weight:bold;line-height:125%;letter-spacing:0px;word-spacing:0px;fill:#ffffff;fill-opacity:1;stroke:none;font-family:Sans;-inkscape-font-specification:Sans Bold"
             d="m 90.864253,994.43988 3.823023,0 0,11.96032 -3.823023,0 0,-11.96032 m 0,-4.65598 3.823023,0 0,3.11822 -3.823023,0 0,-3.11822"
             id="path4300"
             inkscape:connector-curvature="0" />
          <path
             style="font-size:40px;font-style:normal;font-weight:bold;line-height:125%;letter-spacing:0px;word-spacing:0px;fill:#ffffff;fill-opacity:1;stroke:none;font-family:Sans;-inkscape-font-specification:Sans Bold"
             d="m 101.40427,1000.2812 -4.314254,-5.84132 4.047284,0 2.44545,3.54538 2.4775,-3.54538 4.04728,0 -4.31425,5.81992 4.52783,6.1404 -4.04728,0 -2.69108,-3.7803 -2.65903,3.7803 -4.047278,0 4.527828,-6.119"
             id="path4302"
             inkscape:connector-curvature="0" />
        </g>
      </g>
    </g>
    <rect
       style="fill:#333333;fill-opacity:1"
       id="rect3187"
       width="117.81"
       height="104.81"
       x="31.095001"
       y="917.54926" />
    <path
       sodipodi:nodetypes="cccccccccc"
       inkscape:connector-curvature="0"
       id="path3189"
       d="m 43.09375,902.36511 -12,11.1875 56.90625,0 0,-11.1875 z m 48.90625,0 0,11.1875 56.90625,0 -12,-11.1875 z"
       style="fill:#333333;fill-opacity:1" />
    <g
       id="g3171"
       transform="translate(-11,-199.36973)">
      <g
         style="font-size:40px;font-style:normal;font-weight:bold;line-height:125%;letter-spacing:0px;word-spacing:0px;fill:#ffffff;fill-opacity:1;stroke:none;font-family:Sans;-inkscape-font-specification:Sans Bold"
         id="g4391"
         transform="matrix(0.51198286,0,0,0.51198286,-162.67117,761.62088)">
        <path
           style="fill:#ffffff"
           d="m 463.48633,864.19421 c -1.87503,0.91146 -3.82164,1.59506 -5.83985,2.05079 -2.01825,0.45572 -4.10158,0.68359 -6.25,0.68359 -4.85678,0 -8.70443,-1.35417 -11.54296,-4.0625 -2.83855,-2.72135 -4.25782,-6.40624 -4.25782,-11.05469 0,-4.7005 1.44531,-8.39841 4.33594,-11.09375 2.89062,-2.69528 6.84895,-4.04294 11.875,-4.04297 1.94008,3e-5 3.79555,0.18232 5.56641,0.54688 1.78383,0.36461 3.46351,0.90497 5.03906,1.62109 l 0,6.03516 c -1.62763,-0.92446 -3.24872,-1.61456 -4.86328,-2.07031 -1.60159,-0.45571 -3.20966,-0.68357 -4.82422,-0.6836 -2.99481,3e-5 -5.306,0.83987 -6.93359,2.51953 -1.6146,1.66669 -2.42189,4.05601 -2.42188,7.16797 -1e-5,3.08595 0.78124,5.46876 2.34375,7.14844 1.56249,1.67969 3.78254,2.51954 6.66016,2.51953 0.78123,10e-6 1.50388,-0.0456 2.16797,-0.13672 0.67706,-0.10416 1.28253,-0.26041 1.8164,-0.46875 l 0,-5.66406 -4.58984,0 0,-5.03906 11.71875,0 0,14.02343"
           id="path4393"
           inkscape:connector-curvature="0" />
        <path
           style="fill:#ffffff"
           d="m 469.54102,857.84656 0,-13.35938 7.03125,0 0,2.1875 c -10e-6,1.18492 -0.007,2.6758 -0.0195,4.47266 -0.013,1.78387 -0.0195,2.97527 -0.0195,3.57422 -1e-5,1.75782 0.0456,3.02735 0.13672,3.80859 0.0911,0.76824 0.24739,1.32813 0.46875,1.67969 0.28645,0.45573 0.65754,0.8073 1.11328,1.05469 0.46874,0.2474 1.00259,0.37109 1.60157,0.37109 1.45831,0 2.60415,-0.55989 3.4375,-1.67969 0.83331,-1.11978 1.24998,-2.67577 1.25,-4.66797 l 0,-10.80078 6.99218,0 0,21.875 -6.99218,0 0,-3.16406 c -1.05471,1.27604 -2.1745,2.22005 -3.35938,2.83203 -1.17189,0.59896 -2.46746,0.89844 -3.88672,0.89844 -2.52605,0 -4.45313,-0.77474 -5.78125,-2.32422 -1.31511,-1.54948 -1.97266,-3.80208 -1.97265,-6.75781"
           id="path4395"
           inkscape:connector-curvature="0" />
        <path
           style="fill:#ffffff"
           d="m 498.29102,844.48718 6.99218,0 0,21.875 -6.99218,0 0,-21.875 m 0,-8.51562 6.99218,0 0,5.70312 -6.99218,0 0,-5.70312"
           id="path4397"
           inkscape:connector-curvature="0" />
        <path
           style="fill:#ffffff"
           d="m 517.56836,855.17078 -7.89063,-10.6836 7.40235,0 4.47265,6.48438 4.53125,-6.48438 7.40235,0 -7.89063,10.64453 8.28125,11.23047 -7.40234,0 -4.92188,-6.91406 -4.86328,6.91406 -7.40234,0 8.28125,-11.1914"
           id="path4399"
           inkscape:connector-curvature="0" />
        <path
           d="m 558.42773,838.12 0,6.17187 c -1.60158,-0.71612 -3.16408,-1.25649 -4.6875,-1.62109 -1.52345,-0.36456 -2.96225,-0.54685 -4.3164,-0.54688 -1.79689,3e-5 -3.12501,0.24742 -3.98438,0.74219 -0.85938,0.49481 -1.28907,1.26304 -1.28906,2.30469 -10e-6,0.78127 0.28645,1.39325 0.85938,1.83593 0.58592,0.42971 1.64061,0.8008 3.16406,1.11329 l 3.20312,0.64453 c 3.24217,0.65105 5.54686,1.64064 6.91407,2.96875 1.36716,1.32813 2.05075,3.21615 2.05078,5.66406 -3e-5,3.21615 -0.95706,5.61198 -2.8711,7.1875 -1.90106,1.5625 -4.81121,2.34375 -8.73047,2.34375 -1.84897,0 -3.70443,-0.17578 -5.5664,-0.52734 -1.86199,-0.35157 -3.72397,-0.8724 -5.58594,-1.5625 l 0,-6.34766 c 1.86197,0.98959 3.65885,1.73829 5.39063,2.24609 1.74478,0.4948 3.42446,0.7422 5.03906,0.74219 1.64061,10e-6 2.89712,-0.27343 3.76953,-0.82031 0.87238,-0.54687 1.30857,-1.32812 1.30859,-2.34375 -2e-5,-0.91145 -0.29949,-1.61458 -0.89843,-2.10938 -0.58596,-0.49478 -1.76434,-0.93749 -3.53516,-1.32812 l -2.91016,-0.64453 c -2.91667,-0.62499 -5.05209,-1.62108 -6.40625,-2.98828 -1.34115,-1.36718 -2.01172,-3.20962 -2.01172,-5.52735 0,-2.90362 0.9375,-5.13669 2.8125,-6.69922 1.875,-1.56247 4.57031,-2.34372 8.08594,-2.34375 1.60155,3e-5 3.24868,0.12373 4.94141,0.3711 1.69269,0.2344 3.44399,0.59247 5.2539,1.07422"
           style="fill:#ffffff"
           id="path4401"
           inkscape:connector-curvature="0" />
        <path
           d="m 574.48242,842.88562 0,17.79297 2.69531,0 c 3.0729,0 5.41665,-0.76171 7.03125,-2.28516 1.62759,-1.52343 2.44139,-3.73696 2.44141,-6.64062 -2e-5,-2.89061 -0.80731,-5.09113 -2.42187,-6.60156 -1.61461,-1.5104 -3.96487,-2.26561 -7.05079,-2.26563 l -2.69531,0 m -7.51953,-5.68359 7.92969,0 c 4.42707,3e-5 7.72133,0.31904 9.88281,0.95703 2.17446,0.62503 4.03643,1.69273 5.58594,3.20312 1.36716,1.31513 2.38278,2.83206 3.04687,4.55078 0.66403,1.71877 0.99607,3.66539 0.9961,5.83985 -3e-5,2.20053 -0.33207,4.16667 -0.9961,5.89844 -0.66409,1.71875 -1.67971,3.23568 -3.04687,4.55078 -1.56253,1.51042 -3.43753,2.58463 -5.625,3.22265 -2.18752,0.625 -5.46877,0.9375 -9.84375,0.9375 l -7.92969,0 0,-29.16015"
           style="fill:#ffffff"
           id="path4403"
           inkscape:connector-curvature="0" />
      </g>
      <path
         id="path4405"
         d="m 138.3176,1133.1795 c -0.81996,1.4986 -1.6524,2.7186 -2.50062,3.6799 -0.81995,0.933 -1.72415,1.6794 -2.71373,2.2449 -0.96134,0.5372 -2.05207,0.9246 -3.26786,1.1508 -1.18752,0.1979 -2.55104,0.2984 -4.10613,0.2984 -1.14711,0 -2.17803,-0.059 -3.08315,-0.1705 -0.004,0 -0.0105,0 -0.0142,0 -0.11475,-0.01 -0.35175,-0.047 -0.59674,-0.085 -0.25804,-0.04 -0.52181,-0.079 -0.93773,-0.1563 -7.62391,-1.4106 -10.15239,3.882 -10.69867,5.3422 -0.0855,0.2286 -0.12787,0.3694 -0.12787,0.3694 l -9.26365,25.8303 -5.683219,9.6615 11.352229,0 c 4.66248,-10.3812 9.14498,-32.0568 13.93811,-33.9715 1.0389,0.1453 2.32665,0.2131 3.87879,0.2131 2.03575,0 3.85847,-0.244 5.47011,-0.753 1.61162,-0.5089 3.06125,-1.2983 4.36187,-2.3728 1.30061,-1.1026 2.47745,-2.5091 3.5236,-4.2055 1.07441,-1.6965 2.09338,-3.7344 3.05473,-6.1095 l -2.58584,-0.9661 z"
         style="font-size:144px;font-style:normal;font-weight:bold;line-height:125%;letter-spacing:0px;word-spacing:0px;fill:#ffffff;fill-opacity:1;stroke:none;font-family:Sans;-inkscape-font-specification:Sans Bold"
         inkscape:connector-curvature="0" />
      <path
         inkscape:connector-curvature="0"
         id="path4407"
         d="m 138.31731,1133.1806 c -0.81997,1.4985 -1.65234,2.7169 -2.50057,3.6782 -0.81994,0.933 -1.72449,1.6797 -2.71408,2.2452 -0.23807,0.133 -0.48351,0.2553 -0.7374,0.3698 -0.003,10e-4 -0.004,0 -0.007,0.01 -0.31957,0.2247 -0.73061,0.4177 -1.28771,0.5503 -6.42533,1.5299 -10.80183,7.2559 -11.21291,7.8099 0.18639,-0.1533 0.37401,-0.2784 0.56131,-0.3742 0.0281,-0.015 0.0554,-0.028 0.0836,-0.042 0.005,0 0.009,-0.01 0.0132,-0.01 0.0327,-0.015 0.0664,-0.029 0.0991,-0.042 1.03889,0.1453 2.32636,0.2135 3.87851,0.2135 2.03575,0 3.85835,-0.2461 5.46999,-0.755 1.61162,-0.509 3.05995,-1.2963 4.36058,-2.3707 1.30061,-1.1027 2.47797,-2.51 3.52413,-4.2065 1.07441,-1.6965 2.09392,-3.7355 3.05526,-6.1106 l -2.58642,-0.9641 z"
         style="font-size:144px;font-style:normal;font-weight:bold;line-height:125%;letter-spacing:0px;word-spacing:0px;fill:#ffffff;fill-opacity:1;stroke:none;font-family:Sans;-inkscape-font-specification:Sans Bold" />
      <path
         id="path4409"
         d="m 63.68261,1133.1795 c 0.819966,1.4986 1.652394,2.7186 2.500616,3.6799 0.819956,0.933 1.724149,1.6794 2.71374,2.2449 0.961325,0.5372 2.052063,0.9246 3.267848,1.1508 1.187524,0.198 2.551047,0.2984 4.106128,0.2984 1.147124,0 2.178037,-0.059 3.083146,-0.1705 0.0036,0 0.01055,0 0.01423,0 0.11474,-0.01 0.351742,-0.047 0.596737,-0.085 0.258044,-0.04 0.521812,-0.079 0.937732,-0.1563 7.623911,-1.4106 10.15239,3.882 10.69867,5.3422 0.0855,0.2286 0.127868,0.3694 0.127868,0.3694 l 9.263655,25.8303 5.68322,9.6615 -11.352233,0 c -4.662474,-10.3812 -9.144977,-32.0568 -13.938104,-33.9715 -1.0389,0.1453 -2.326655,0.2131 -3.878802,0.2131 -2.035747,0 -3.858467,-0.244 -5.470102,-0.753 -1.611625,-0.5089 -3.061258,-1.2983 -4.361874,-2.3728 -1.300605,-1.1026 -2.477444,-2.5091 -3.523594,-4.2055 -1.074416,-1.6965 -2.093395,-3.7344 -3.054735,-6.1095 l 2.585866,-0.9661 z"
         style="font-size:144px;font-style:normal;font-weight:bold;line-height:125%;letter-spacing:0px;word-spacing:0px;fill:#ffffff;fill-opacity:1;stroke:none;font-family:Sans;-inkscape-font-specification:Sans Bold"
         inkscape:connector-curvature="0" />
      <path
         sodipodi:nodetypes="ccc"
         d="m 100.99058,1171.6793 -5.660922,9.6655 11.346562,0"
         style="font-size:144px;font-style:normal;font-weight:bold;line-height:125%;letter-spacing:0px;word-spacing:0px;fill:#ffffff;fill-opacity:1;stroke:none;font-family:Sans;-inkscape-font-specification:Sans Bold"
         id="path4413"
         inkscape:connector-curvature="0" />
      <path
         inkscape:connector-curvature="0"
         id="path4415"
         d="m 63.683378,1133.1806 -2.586415,0.9641 c 0.300417,0.7422 0.606296,1.4523 0.917904,2.1285 0.06232,0.1353 0.124335,0.2681 0.187099,0.4007 2.46e-4,5e-4 -2.41e-4,0 0,0 0.06249,0.1319 0.126383,0.2624 0.189305,0.3918 0.02094,0.043 0.0428,0.085 0.06383,0.1276 0.105535,0.2151 0.21021,0.4285 0.316974,0.6362 4.87e-4,10e-4 0.0015,10e-4 0.002,0 0.06364,0.1237 0.127433,0.2464 0.191507,0.3676 0.258429,0.4886 0.52039,0.9562 0.785833,1.4021 0.06628,0.1114 0.131385,0.2193 0.198106,0.328 0.02585,0.042 0.0511,0.084 0.07704,0.1255 0.04127,0.066 0.08401,0.1326 0.125467,0.1981 0.06538,0.106 0.129501,0.211 0.195905,0.3148 0.105801,0.1653 0.215202,0.3269 0.323578,0.4864 0.02734,0.04 0.05391,0.081 0.08144,0.1211 0.06878,0.1 0.137125,0.1976 0.206913,0.295 0.138886,0.1938 0.279737,0.3832 0.422632,0.5679 0.07145,0.092 0.143273,0.1829 0.215719,0.2729 0.144901,0.18 0.291369,0.3554 0.440243,0.5261 0.112867,0.1295 0.228242,0.2567 0.343387,0.3808 0.03635,0.039 0.07345,0.078 0.110056,0.1167 0.153185,0.1618 0.307333,0.3187 0.464456,0.471 0.07837,0.076 0.15618,0.1509 0.235527,0.2246 0.07973,0.074 0.159222,0.1462 0.239931,0.2179 0.08032,0.071 0.160844,0.1402 0.242132,0.2091 0.243867,0.2015 0.493981,0.3931 0.748411,0.5745 0.678475,0.4839 1.394749,0.897 2.150574,1.2393 0.09448,0.043 0.188241,0.085 0.283951,0.1255 0.192034,0.082 0.38627,0.1585 0.583322,0.2311 0.09821,0.036 0.195496,0.07 0.294964,0.1034 0.09946,0.034 0.200835,0.067 0.301563,0.099 0.100722,0.032 0.201388,0.063 0.303764,0.092 0.204753,0.059 0.41378,0.116 0.625142,0.1673 0.105678,0.026 0.211843,0.049 0.31917,0.073 0.107332,0.024 0.214597,0.047 0.323578,0.068 0.109682,0.022 0.218827,0.042 0.330183,0.062 0.221274,0.039 0.445666,0.074 0.673565,0.1057 0.341851,0.047 0.690997,0.086 1.047773,0.1144 0.237851,0.019 0.479702,0.035 0.724194,0.046 0.244493,0.011 0.492866,0.018 0.744009,0.022 0.125569,0 0.251368,0 0.378606,0 0.194016,0 0.384325,0 0.570108,0 0.371577,0 0.726376,-0.013 1.065385,-0.026 0.168755,-0.01 0.334494,-0.013 0.495272,-0.022 0.161454,-0.01 0.31979,-0.02 0.473256,-0.031 0.460396,-0.033 0.884906,-0.075 1.274495,-0.1298 0.03266,0.013 0.06641,0.027 0.09905,0.042 0.0046,0 0.0087,0.01 0.01321,0.01 0.02821,0.013 0.05548,0.027 0.08365,0.042 0.187401,0.096 0.374802,0.2208 0.561302,0.3742 -0.410211,-0.5528 -4.78684,-6.2799 -11.212921,-7.8099 -0.557089,-0.1326 -0.968134,-0.3255 -1.287698,-0.5503 -0.0026,-10e-4 -0.0041,0 -0.0066,-0.01 -0.253309,-0.1142 -0.499828,-0.2371 -0.737404,-0.3698 -4.86e-4,-2e-4 -0.0015,3e-4 -0.002,0 -0.06131,-0.035 -0.122056,-0.071 -0.182701,-0.1078 -4.86e-4,-3e-4 -0.0015,2e-4 -0.002,0 -0.06118,-0.037 -0.119983,-0.074 -0.180499,-0.1123 -0.12153,-0.077 -0.242148,-0.1553 -0.360994,-0.2377 -0.05919,-0.041 -0.117577,-0.083 -0.176097,-0.1255 -0.117858,-0.085 -0.232619,-0.1729 -0.34779,-0.2642 -0.05719,-0.045 -0.112964,-0.09 -0.169492,-0.1364 -0.05695,-0.047 -0.113214,-0.095 -0.169492,-0.1431 -0.05587,-0.048 -0.109881,-0.098 -0.165089,-0.1475 -0.27603,-0.2481 -0.54391,-0.5125 -0.803439,-0.7968 -0.05191,-0.057 -0.105038,-0.1156 -0.156288,-0.1739 -0.188604,-0.2138 -0.37642,-0.4406 -0.563503,-0.6802 -0.0233,-0.03 -0.045,-0.06 -0.06824,-0.09 -0.05253,-0.068 -0.106072,-0.1366 -0.158489,-0.2069 -0.262084,-0.3515 -0.522115,-0.7297 -0.781424,-1.1336 -0.103723,-0.1616 -0.207066,-0.3274 -0.310369,-0.4975 -0.05165,-0.085 -0.102535,-0.1704 -0.154081,-0.2575 -0.154153,-0.2607 -0.308992,-0.5322 -0.462254,-0.8123 z"
         style="font-size:144px;font-style:normal;font-weight:bold;line-height:125%;letter-spacing:0px;word-spacing:0px;fill:#ffffff;fill-opacity:1;stroke:none;font-family:Sans;-inkscape-font-specification:Sans Bold" />
    </g>
  </g>
</svg>
